<?xml version="1.0" encoding="utf-8"?>
<!-- Generator: Adobe Illustrator 19.0.0, SVG Export Plug-In . SVG Version: 6.00 Build 0)  -->
<svg version="1.1" id="Layer_1" xmlns="http://www.w3.org/2000/svg" xmlns:xlink="http://www.w3.org/1999/xlink" x="0px" y="0px"
	 viewBox="0 0 800 252.3" style="enable-background:new 0 0 800 252.3;" xml:space="preserve">
<style type="text/css">
	.st0{fill:#2D3436;}
	.st1{fill:#1A1A1A;}
</style>
<g id="XMLID_179_">
	<g id="XMLID_180_">
		<g id="XMLID_219_">
			<path id="XMLID_220_" class="st0" d="M1813.6-731.5h-96.4v-172.9h96.4c13.6,0,26.2,3.9,38,11.6s21.1,18.2,28.1,31.5
				s10.5,27.7,10.5,43.3c0,11.7-2.1,22.9-6.2,33.6c-4.1,10.7-9.7,19.9-16.6,27.6s-15.1,13.9-24.5,18.4
				C1833.5-733.8,1823.7-731.5,1813.6-731.5z M1724.7-739h88.9c9.1,0,17.9-2.1,26.4-6.3s15.8-9.8,22-16.8c6.2-7,11.2-15.4,14.9-25.2
				c3.7-9.8,5.6-20,5.6-30.7c0-10.7-1.9-20.9-5.6-30.6c-3.7-9.7-8.7-18.2-14.9-25.2c-6.2-7.1-13.5-12.7-22-16.9
				c-8.5-4.2-17.3-6.3-26.4-6.3h-88.9V-739z M1732.2-746.5v-142.9h81.4c10.9,0,21,3.2,30.4,9.6c9.4,6.4,16.9,15.1,22.5,26.1
				s8.4,22.9,8.4,35.8c0,12.9-2.8,24.8-8.4,35.8s-13.1,19.7-22.5,26.1c-9.4,6.4-19.5,9.6-30.4,9.6h-81.4V-746.5z M1739.7-754h73.8
				c9.5,0,18.4-2.9,26.6-8.6s14.7-13.5,19.6-23.3c4.9-9.8,7.3-20.5,7.3-32.1c0-11.5-2.4-22.2-7.3-32c-4.9-9.9-11.4-17.6-19.6-23.3
				c-8.2-5.7-17.1-8.6-26.5-8.6h-73.9V-754z M1747.2-761.6v-112.7h66.3c8.1,0,15.7,2.5,22.8,7.5c7,5,12.6,11.9,16.8,20.5
				c4.1,8.7,6.2,18.1,6.2,28.4c0,10.2-2.1,19.6-6.2,28.3s-9.7,15.6-16.8,20.6c-7,5-14.6,7.5-22.8,7.5L1747.2-761.6L1747.2-761.6z
				 M1754.8-769.1h58.8c10.4,0,19.3-4.8,26.8-14.4c7.5-9.6,11.2-21.1,11.2-34.5c0-8.8-1.7-17-5.2-24.5c-3.4-7.5-8.1-13.5-13.9-17.8
				c-5.8-4.4-12.1-6.5-19-6.5h-58.7V-769.1z M1762.3-776.6v-82.7h51.3c8.3,0,15.4,4.1,21.4,12.2s8.9,17.8,8.9,29.2
				c0,11.4-3,21.2-8.9,29.2c-6,8.1-13.1,12.1-21.4,12.1H1762.3z M1769.8-784.1h43.8c6.2,0,11.5-3.3,15.9-9.9
				c4.4-6.6,6.6-14.6,6.6-23.9c0-9.4-2.2-17.4-6.6-24c-4.4-6.6-9.7-9.9-15.9-9.9h-43.8V-784.1z"/>
		</g>
		<g id="XMLID_209_">
			<path id="XMLID_210_" class="st0" d="M1910.3-781.5c-5-11.6-7.5-23.8-7.5-36.5c0-12.7,2.5-24.9,7.5-36.5
				c5-11.6,11.7-21.6,20.1-30c8.4-8.4,18.4-15.1,30-20.1c11.6-5,23.8-7.5,36.5-7.5c12.7,0,24.9,2.5,36.5,7.5
				c11.6,5,21.6,11.7,30,20.1c8.4,8.4,15.1,18.4,20.1,30c5,11.6,7.5,23.8,7.5,36.5c0,12.7-2.5,24.9-7.5,36.5
				c-5,11.6-11.7,21.6-20.1,30c-8.4,8.4-18.4,15.1-30,20.1c-11.6,5-23.8,7.5-36.5,7.5c-12.7,0-24.9-2.5-36.5-7.5
				c-11.6-5-21.6-11.7-30-20.1C1922-759.9,1915.3-769.9,1910.3-781.5z M1917.2-851.5c-4.6,10.7-6.8,21.9-6.8,33.6
				c0,11.7,2.3,22.9,6.8,33.6c4.6,10.7,10.7,19.9,18.4,27.6c7.7,7.7,16.9,13.9,27.6,18.4c10.7,4.6,21.9,6.8,33.6,6.8
				c11.7,0,22.9-2.3,33.6-6.8c10.7-4.6,19.9-10.7,27.6-18.4c7.7-7.7,13.9-16.9,18.4-27.6c4.6-10.7,6.8-21.9,6.8-33.6
				c0-11.7-2.3-22.9-6.8-33.6c-4.5-10.7-10.6-19.9-18.4-27.6c-7.7-7.7-16.9-13.9-27.6-18.4c-10.7-4.6-21.9-6.8-33.6-6.8
				c-11.7,0-22.9,2.3-33.6,6.8c-10.7,4.6-19.9,10.7-27.6,18.4S1921.8-862.2,1917.2-851.5z M1928.5-778.4
				c-7.1-12.1-10.6-25.3-10.6-39.6c0-14.3,3.5-27.5,10.6-39.6s16.7-21.7,28.8-28.8c12.1-7.1,25.3-10.6,39.6-10.6
				c14.3,0,27.5,3.5,39.6,10.6c12.1,7.1,21.7,16.7,28.8,28.8c6.9,12.2,10.5,25.4,10.5,39.7s-3.5,27.5-10.6,39.6
				c-7.1,12.1-16.7,21.7-28.8,28.8c-12.1,7.1-25.3,10.6-39.6,10.6c-14.3,0-27.5-3.5-39.6-10.6
				C1945.1-756.7,1935.5-766.3,1928.5-778.4z M1931-845.7c-3.8,8.8-5.6,18.1-5.6,27.8s1.9,18.9,5.6,27.8c3.8,8.8,8.8,16.4,15.2,22.8
				c6.4,6.4,14,11.4,22.8,15.2c8.8,3.8,18.1,5.6,27.8,5.6c9.7,0,18.9-1.9,27.8-5.6c8.8-3.8,16.4-8.8,22.8-15.2
				c6.4-6.4,11.4-14,15.2-22.8s5.6-18.1,5.6-27.8s-1.9-18.9-5.6-27.8c-3.8-8.8-8.8-16.4-15.2-22.8c-6.4-6.4-14-11.4-22.8-15.2
				c-8.8-3.8-18.1-5.6-27.8-5.6s-18.9,1.9-27.8,5.6c-8.8,3.8-16.4,8.8-22.8,15.2C1939.8-862.1,1934.8-854.6,1931-845.7z
				 M1941.5-785.9c-5.7-9.8-8.6-20.5-8.6-32.1c0-11.6,2.9-22.2,8.6-32.1c5.7-9.8,13.5-17.6,23.3-23.3c9.8-5.7,20.5-8.6,32.1-8.6
				c11.6,0,22.2,2.9,32.1,8.6c9.8,5.7,17.6,13.5,23.3,23.3c5.7,9.8,8.6,20.5,8.6,32.1c0,11.6-2.9,22.2-8.6,32.1
				c-5.7,9.8-13.5,17.6-23.3,23.3s-20.5,8.6-32.1,8.6c-11.6,0-22.2-2.9-32.1-8.6C1955-768.3,1947.2-776.1,1941.5-785.9z M1948-846.3
				c-5,8.6-7.6,18.1-7.6,28.3c0,10.2,2.5,19.7,7.6,28.3c5,8.6,11.9,15.5,20.5,20.5s18.1,7.6,28.3,7.6c10.2,0,19.7-2.5,28.3-7.6
				c8.6-5,15.5-11.9,20.5-20.5c5-8.6,7.6-18.1,7.6-28.3c0-10.2-2.5-19.7-7.6-28.3c-5-8.6-11.9-15.5-20.5-20.5s-18.1-7.6-28.3-7.6
				c-10.2,0-19.7,2.5-28.3,7.6C1959.9-861.7,1953.1-854.9,1948-846.3z M1951.8-799c-2.6-6-3.9-12.3-3.9-19c0-6.6,1.3-12.9,3.9-19
				c2.6-6,6.1-11.2,10.4-15.6c4.4-4.4,9.6-7.9,15.6-10.4c6-2.6,12.3-3.9,19-3.9c6.6,0,12.9,1.3,19,3.9c6,2.6,11.2,6.1,15.6,10.4
				c4.4,4.4,7.9,9.6,10.4,15.6c2.6,6,3.9,12.3,3.9,19c0,6.6-1.3,12.9-3.9,19c-2.6,6-6.1,11.2-10.4,15.6c-4.4,4.4-9.6,7.9-15.6,10.4
				c-6,2.6-12.3,3.9-19,3.9c-6.6,0-12.9-1.3-19-3.9c-6-2.6-11.2-6.1-15.6-10.4C1957.9-787.8,1954.4-793,1951.8-799z M1967.6-847.2
				c-8.1,8.1-12.1,17.8-12.1,29.2c0,11.4,4,21.2,12.1,29.2c8.1,8.1,17.8,12.1,29.2,12.1c11.4,0,21.2-4,29.2-12.1
				c8.1-8.1,12.1-17.8,12.1-29.2c0-11.4-4-21.2-12.1-29.2c-8.1-8.1-17.8-12.1-29.2-12.1C1985.4-859.3,1975.7-855.3,1967.6-847.2z"/>
		</g>
		<g id="XMLID_193_">
			<path id="XMLID_194_" class="st0" d="M2182.2-776.6h-8.5l-59.8-113.5v158.6h-7.5v-172.9h8.5L2182.2-776.6z M2121.4-865.2
				l7.5,14.3v119.4h-7.5V-865.2z M2199.2-776.6h-8.6l-67.2-127.8h8.6L2199.2-776.6z M2136.5-836.5l7.5,14.2v90.9h-7.5V-836.5z
				 M2276-890.1l-59.8,113.5h-8.6l-67.2-127.8h8.5l63.1,119.9l63-119.9h8.6v172.9h-7.5L2276-890.1L2276-890.1z M2151.5-807.9
				l7.5,14.2v62.2h-7.5V-807.9z M2201.8-814.5l-4.4-7.9l43.4-82h8.6L2201.8-814.5z M2210.5-798.1l-4.3-7.8l51.8-98.5h8.5
				L2210.5-798.1z M2230.9-794.6l7.5-14.2v77.3h-7.5V-794.6z M2245.9-823.4l7.5-14.2v106.1h-7.5V-823.4z M2260.9-851.8l7.5-14.3
				v134.6h-7.5V-851.8z"/>
		</g>
		<g id="XMLID_187_">
			<path id="XMLID_188_" class="st0" d="M2470.2-807.5v-96.9h7.5v96.9c0,15-3.9,29-11.8,41.8c-7.9,12.8-18.5,23-32,30.5
				S2405.8-724,2390-724c-15.8,0-30.4-3.7-43.9-11.2s-24.1-17.6-32-30.5c-7.9-12.8-11.8-26.8-11.8-41.8v-96.9h7.5v96.9
				c0,10.2,2.1,20.1,6.4,29.4c4.2,9.4,10,17.5,17.1,24.3c7.2,6.8,15.7,12.2,25.6,16.2s20.3,6.1,31.1,6.1s21.1-2,31.1-6.1
				c9.9-4,18.5-9.5,25.6-16.2c7.2-6.8,12.9-14.9,17.1-24.3C2468.1-787.5,2470.2-797.3,2470.2-807.5z M2455.2-807.5v-96.9h7.5v96.9
				c0,9.3-1.9,18.1-5.8,26.6s-9,15.8-15.5,21.9c-6.5,6.1-14.2,11-23.2,14.6c-9,3.6-18.4,5.4-28.2,5.4c-9.8,0-19.2-1.8-28.2-5.4
				c-9-3.6-16.7-8.5-23.2-14.6c-6.5-6.1-11.6-13.4-15.5-21.9s-5.8-17.3-5.8-26.6v-96.9h7.5v96.9c0,11,2.9,21.2,8.8,30.5
				c5.8,9.4,13.8,16.8,23.8,22.2c10,5.5,20.9,8.2,32.6,8.2c11.8,0,22.6-2.7,32.6-8.2s17.9-12.9,23.8-22.2
				C2452.3-786.3,2455.2-796.5,2455.2-807.5z M2440.1-807.5v-96.9h7.5v96.9c0,7.2-1.5,14.1-4.6,20.7c-3.1,6.6-7.2,12.3-12.3,17.1
				c-5.2,4.8-11.3,8.6-18.4,11.4c-7.1,2.8-14.6,4.2-22.3,4.2c-7.8,0-15.2-1.4-22.3-4.2c-7.1-2.8-13.2-6.6-18.4-11.4
				c-5.2-4.8-9.3-10.5-12.3-17.1c-3.1-6.6-4.6-13.5-4.6-20.7v-96.9h7.5v96.9c0,8.3,2.2,16,6.7,23c4.5,7.1,10.6,12.7,18.3,16.8
				c7.7,4.1,16.1,6.2,25.1,6.2s17.4-2.1,25.1-6.2c7.7-4.1,13.8-9.7,18.3-16.8C2437.9-791.5,2440.1-799.2,2440.1-807.5z
				 M2425.1-807.5v-96.9h7.5v96.9c0,10.6-4.2,19.6-12.5,27.2c-8.4,7.5-18.4,11.3-30.1,11.3c-11.7,0-21.7-3.8-30.1-11.3
				s-12.5-16.6-12.5-27.2v-96.9h7.5v96.9c0,8.5,3.4,15.8,10.3,21.8c6.9,6.1,15.1,9.1,24.8,9.1c9.7,0,17.9-3,24.8-9.1
				C2421.7-791.7,2425.1-799,2425.1-807.5z"/>
		</g>
		<g id="XMLID_181_">
			<path id="XMLID_182_" class="st0" d="M2566.8-836.7h-12.6c-5.4,0-9.2-1.4-11.6-4.1c-2.4-2.7-3.6-6.4-3.6-10.9
				c0-10,7.5-15,22.5-15c14.1,0,24.6,2.1,31.7,6.3l-6.1,4.6c-4.9-2.2-13.4-3.3-25.7-3.3c-6,0-10,0.7-12.1,2
				c-2.1,1.3-3.1,3.2-3.1,5.5c0,2.4,0.6,4.2,1.7,5.5c1.1,1.3,3.2,2,6.2,2h12.9c9.4,0,17.9,1.6,25.4,4.8c7.6,3.2,13.8,7.6,18.6,13.1
				c4.9,5.5,8.6,11.9,11.2,19.1c2.6,7.2,3.9,14.9,3.9,23.1c0,6.7-0.9,13-2.8,19c-1.9,6-4.7,11.5-8.5,16.5s-8.4,9.3-13.7,13
				c-5.3,3.7-11.7,6.5-19,8.6c-7.3,2.1-15.3,3.1-23.9,3.1c-13.4,0-26-2-37.8-6.1c-11.7-4.1-21.5-9.8-29.3-17.1l6.1-4.5
				c7.1,6.4,16,11.4,26.7,14.9s22.1,5.3,34.3,5.3c9.5,0,18.2-1.4,25.8-4.1c7.7-2.7,14-6.5,19-11.3s8.8-10.4,11.5-16.7
				c2.7-6.3,4-13.2,4-20.5c0-9.7-1.9-18.4-5.8-26.3c-3.9-7.8-9.8-14.2-17.8-19.1C2587.1-834.3,2577.7-836.7,2566.8-836.7z
				 M2554.2-799.2h11.5c5.4,0,9.2,1.4,11.6,4.2c2.4,2.8,3.6,6.4,3.6,10.9c0,10-7.5,15-22.5,15c-14.1,0-24.8-2.1-31.9-6.3l6.1-4.6
				c4.9,2.2,13.5,3.3,25.8,3.3c6,0,10-0.7,12.1-2s3.1-3.2,3.1-5.5s-0.6-4.1-1.7-5.5c-1.1-1.4-3.3-2-6.3-2h-11.3
				c-9.6,0-18.3-1.6-26.1-4.7c-7.8-3.1-14.1-7.4-19.1-12.9s-8.8-11.9-11.4-19.1c-2.6-7.2-4-15-4-23.4c0-6.7,0.9-13,2.8-19
				c1.9-6,4.7-11.5,8.5-16.5s8.4-9.3,13.7-13c5.3-3.7,11.7-6.5,19-8.6c7.3-2.1,15.3-3.1,23.9-3.1c13.4,0,26,2,37.7,6.1
				c11.7,4.1,21.4,9.8,29.2,17.1l-6.1,4.5c-7.1-6.4-16-11.4-26.6-14.9c-10.7-3.5-22.1-5.3-34.3-5.3c-9.5,0-18.2,1.4-25.8,4.1
				c-7.7,2.8-14,6.5-19,11.3c-5,4.8-8.8,10.4-11.5,16.7c-2.7,6.3-4,13.2-4,20.5c0,9.8,2,18.7,6,26.5c4,7.9,10,14.2,18.2,19
				C2533.4-801.5,2543-799.2,2554.2-799.2z M2554.2-829.2h11.9c14.1,0,25.2,4.3,33.2,12.9c8,8.6,12,19.4,12,32.2
				c0,13-4.6,23.8-13.9,32.3s-22.2,12.8-39,12.8c-11.1,0-21.5-1.5-31.2-4.6s-17.7-7.4-24.1-12.9l5.8-4.7c5.7,4.7,12.9,8.3,21.6,10.9
				c8.7,2.6,18,3.9,27.9,3.9c14.7,0,25.9-3.5,33.7-10.5s11.6-16,11.6-27c0-10.9-3.3-19.8-9.8-26.9c-6.5-7.1-15.8-10.7-27.9-10.7
				h-11.8c-10.2,0-17.8-2.8-22.9-8.4c-5.1-5.6-7.6-12.8-7.6-21.7s3.1-16.2,9.5-21.7c6.3-5.6,15.8-8.4,28.4-8.4
				c8.8,0,17.1,1,24.6,3.1c7.6,2.1,13.9,5,18.8,8.8l-6,4.6c-8.7-6-21.2-9-37.5-9c-10.5,0-18.2,2.1-23,6.2c-4.8,4.1-7.3,9.6-7.3,16.3
				c0,6.8,1.8,12.3,5.4,16.4C2540.2-831.3,2546-829.2,2554.2-829.2z M2554.2-814.2h11.5c10.2,0,17.8,2.8,22.9,8.5
				c5.1,5.6,7.6,12.8,7.6,21.6c0,8.9-3.2,16.2-9.5,21.7c-6.3,5.6-15.8,8.4-28.4,8.4c-8.8,0-17.1-1-24.7-3.1
				c-7.6-2.1-13.9-5-18.8-8.8l6-4.6c8.7,6,21.2,9,37.6,9c10.5,0,18.2-2.1,23-6.2c4.8-4.1,7.3-9.6,7.3-16.3c0-6.8-1.8-12.2-5.4-16.3
				c-3.6-4.1-9.5-6.2-17.6-6.2h-11.4c-14.3,0-25.4-4.3-33.5-12.8c-8-8.5-12.1-19.3-12.1-32.3s4.6-23.8,13.9-32.3s22.2-12.8,39-12.8
				c11.1,0,21.5,1.5,31.2,4.6c9.6,3.1,17.7,7.4,24.1,12.9l-5.8,4.7c-5.7-4.7-12.9-8.3-21.5-10.9c-8.6-2.6-17.9-3.9-27.9-3.9
				c-14.7,0-25.9,3.5-33.7,10.5s-11.6,16-11.6,27c0,10.9,3.3,19.9,9.8,27C2532.5-817.7,2541.9-814.2,2554.2-814.2z"/>
		</g>
	</g>
</g>
<g id="XMLID_143_">
	<path id="XMLID_178_" class="st1" d="M574.5-292.6c0,2-1,3-3,3h-10.2c-1.9,0-2.9-1-2.9-3v-26.8c0-2,1-3,2.9-3h10.2c2,0,3,1,3,3v7.7
		h-4.9v-6.5h-6.3v24.4h6.3v-6.9h4.9V-292.6z"/>
	<path id="XMLID_175_" class="st1" d="M603.5-292.6c0,2-1,3-3,3h-10.6c-1.9,0-2.9-1-2.9-3v-26.8c0-2,1-3,2.9-3h10.6c2,0,3,1,3,3
		V-292.6z M598.6-293.8v-24.4h-6.7v24.4H598.6z"/>
	<path id="XMLID_174_" class="st1" d="M628.9-289.6H616v-32.8h4.9v28.4h8V-289.6z"/>
	<path id="XMLID_173_" class="st1" d="M653.9-289.6h-13.6v-32.8h13.5v4.3h-8.6v9.6h7.4v4.3h-7.4v10.3h8.7V-289.6z"/>
	<path id="XMLID_172_" class="st1" d="M682-292.6c0,2-1,3-3,3h-10.2c-1.9,0-2.9-1-2.9-3v-26.8c0-2,1-3,2.9-3H679c2,0,3,1,3,3v7.7
		h-4.9v-6.5h-6.3v24.4h6.3v-6.9h4.9V-292.6z"/>
	<path id="XMLID_171_" class="st1" d="M710.6-292.6c0,2-1,3-3,3h-10.2c-1.9,0-2.9-1-2.9-3v-26.8c0-2,1-3,2.9-3h10.2c2,0,3,1,3,3v7.7
		h-4.9v-6.5h-6.3v24.4h6.3v-6.9h4.9V-292.6z"/>
	<path id="XMLID_170_" class="st1" d="M728-289.6h-4.9v-32.8h4.9V-289.6z"/>
	<path id="XMLID_167_" class="st1" d="M757.1-292.6c0,2-1,3-3,3h-10.6c-1.9,0-2.9-1-2.9-3v-26.8c0-2,1-3,2.9-3h10.6c2,0,3,1,3,3
		V-292.6z M752.2-293.8v-24.4h-6.7v24.4H752.2z"/>
	<path id="XMLID_166_" class="st1" d="M786.2-289.6h-4.3l-7.9-20.6c0.2,1,0.3,1.8,0.3,2.4v18.3h-4.8v-32.8h4.3l7.9,20.2
		c-0.2-1-0.3-1.8-0.3-2.4v-17.8h4.8V-289.6z"/>
	<path id="XMLID_163_" class="st1" d="M815.3-289.6h-4.9l-1-6.2h-6.1l-1,6.2h-4.8v-0.1l6.3-32.7h5.2L815.3-289.6z M808.8-300.1
		l-2.4-14.8l-2.4,14.8H808.8z"/>
	<path id="XMLID_162_" class="st1" d="M853.7-300.1h-10v-4.4h10V-300.1z"/>
	<path id="XMLID_161_" class="st1" d="M899.4-292.6c0,2-1,3-3,3h-10.2c-1.9,0-2.9-1-2.9-3v-26.8c0-2,1-3,2.9-3h10.2c2,0,3,1,3,3v7.7
		h-4.9v-6.5h-6.3v24.4h6.3v-6.9h4.9V-292.6z"/>
	<path id="XMLID_158_" class="st1" d="M928.4-292.6c0,2-1,3-3,3h-10.6c-1.9,0-2.9-1-2.9-3v-26.8c0-2,1-3,2.9-3h10.6c2,0,3,1,3,3
		V-292.6z M923.5-293.8v-24.4h-6.7v24.4H923.5z"/>
	<path id="XMLID_157_" class="st1" d="M957.5-289.6h-4.3l-7.9-20.6c0.2,1,0.3,1.8,0.3,2.4v18.3h-4.8v-32.8h4.3l7.9,20.2
		c-0.2-1-0.3-1.8-0.3-2.4v-17.8h4.8V-289.6z"/>
	<path id="XMLID_154_" class="st1" d="M986.5-292.6c0,2-1,3-3,3h-10.6c-1.9,0-2.9-1-2.9-3v-26.8c0-2,1-3,2.9-3h10.6c2,0,3,1,3,3
		V-292.6z M981.6-293.8v-24.4h-6.7v24.4H981.6z"/>
	<path id="XMLID_153_" class="st1" d="M1015.2-292.6c0,2-1,3-3,3H1002c-1.9,0-2.9-1-2.9-3v-26.8c0-2,1-3,2.9-3h10.2c2,0,3,1,3,3v7.7
		h-4.9v-6.5h-6.3v24.4h6.3v-6.9h4.9V-292.6z"/>
	<path id="XMLID_152_" class="st1" d="M1041.2-289.6h-13.6v-32.8h13.5v4.3h-8.6v9.6h7.4v4.3h-7.4v10.3h8.7V-289.6L1041.2-289.6z"/>
	<path id="XMLID_151_" class="st1" d="M1080.1-300.1h-10v-4.4h10V-300.1z"/>
	<path id="XMLID_150_" class="st1" d="M1126-322.4l-6.3,32.8h-4.9l-6.3-32.8h4.9l3.7,22.5c0,0.6,0.1,1.6,0.1,2.8
		c0-0.6,0-1.6,0.1-2.8l3.7-22.5H1126z"/>
	<path id="XMLID_149_" class="st1" d="M1151-289.6h-13.6v-32.8h13.5v4.3h-8.6v9.6h7.4v4.3h-7.4v10.3h8.7L1151-289.6L1151-289.6z"/>
	<path id="XMLID_148_" class="st1" d="M1179.5-289.6h-4.3l-7.9-20.6c0.2,1,0.3,1.8,0.3,2.4v18.3h-4.8v-32.8h4.3l7.9,20.2
		c-0.2-1-0.3-1.8-0.3-2.4v-17.8h4.8V-289.6z"/>
	<path id="XMLID_145_" class="st1" d="M1208.4-295.8c0,1.9-0.6,3.4-1.7,4.5s-2.7,1.6-4.6,1.6h-10v-32.8h10c1.9,0,3.5,0.6,4.6,1.7
		c1.1,1.1,1.7,2.6,1.7,4.6V-295.8z M1203.4-296.6v-18.8c0-1.8-1-2.7-2.9-2.7h-3.6v24.4h3.5C1202.4-293.8,1203.4-294.8,1203.4-296.6z
		"/>
	<path id="XMLID_144_" class="st1" d="M1234.3-289.6h-13.6v-32.8h13.5v4.3h-8.6v9.6h7.4v4.3h-7.4v10.3h8.7V-289.6z"/>
</g>
<g id="XMLID_121_">
	<g id="XMLID_132_">
		<path id="XMLID_133_" class="st0" d="M710.7-912.3h-91.5v-158.6h91.5c14,0,27,3.5,39.1,10.6c12.1,7.1,21.7,16.7,28.9,28.9
			c7.2,12.2,10.7,25.4,10.7,39.6c0,10.8-2.1,21.1-6.3,31c-4.2,9.8-9.9,18.3-17,25.4c-7.1,7.1-15.5,12.7-25.2,16.9
			C731.2-914.4,721.1-912.3,710.7-912.3z M627.1-920.3h83.6c12.6,0,24.2-3.2,35-9.5c10.8-6.4,19.4-15,25.8-26.1
			c6.4-11,9.6-23,9.6-36c0-12.8-3.2-24.7-9.6-35.6c-6.4-11-15.1-19.6-25.9-26c-10.8-6.4-22.5-9.5-35-9.5H627v142.7H627.1z
			 M635-928.2v-126.9h75.7c11.1,0,21.4,2.8,31,8.5s17.2,13.3,22.9,23.1c5.7,9.7,8.5,20.3,8.5,31.7c0,11.5-2.8,22.2-8.5,32
			s-13.3,17.5-22.9,23.2c-9.6,5.7-19.9,8.5-31,8.5L635-928.2L635-928.2z M642.9-936.1h67.7c9.7,0,18.7-2.5,27-7.4
			c8.3-4.9,14.9-11.7,19.8-20.3c4.9-8.6,7.4-18,7.4-28.1c0-9.9-2.5-19.1-7.4-27.7c-4.9-8.5-11.5-15.3-19.9-20.2
			c-8.3-5-17.3-7.4-26.9-7.4h-67.7V-936.1z M650.9-944.1v-95.2h59.8c12.6,0,23.4,4.6,32.4,13.9c9.1,9.3,13.6,20.4,13.6,33.4
			c0,13.3-4.5,24.6-13.5,33.9s-19.9,13.9-32.5,13.9L650.9-944.1L650.9-944.1z M658.8-952h51.9c10.4,0,19.4-3.9,26.8-11.6
			c7.4-7.7,11.1-17.2,11.1-28.3c0-10.9-3.7-20.2-11.2-27.9s-16.4-11.6-26.7-11.6h-51.9V-952z M666.7-959.9v-63.5h44
			c8.2,0,15.1,3.1,21,9.3s8.8,13.6,8.8,22.3c0,9-2.9,16.5-8.7,22.7s-12.8,9.3-21,9.3L666.7-959.9L666.7-959.9z M674.7-967.9h36
			c5.9,0,11-2.3,15.3-6.9c4.2-4.6,6.3-10.3,6.3-17.1c0-6.5-2.1-12-6.3-16.6c-4.2-4.6-9.3-6.9-15.3-6.9h-36V-967.9z"/>
	</g>
	<g id="XMLID_124_">
		<path id="XMLID_125_" class="st0" d="M953.3-1046.1l-6.4,4.7c-7.4-9.2-16.5-16.4-27.3-21.7c-10.8-5.3-22.3-7.9-34.5-7.9
			c-10.7,0-21,2.1-30.8,6.3c-9.8,4.2-18.3,9.8-25.3,16.9c-7.1,7.1-12.7,15.5-16.9,25.3c-4.2,9.8-6.3,20.1-6.3,30.8
			c0,10.7,2.1,21,6.3,30.8s9.8,18.3,16.9,25.3c7.1,7.1,15.5,12.7,25.3,16.9c9.8,4.2,20.1,6.3,30.8,6.3c12.3,0,23.8-2.6,34.5-7.9
			c10.8-5.3,19.8-12.5,27.3-21.7l6.3,4.8c-8.2,10.1-18.2,18.1-30,24c-11.9,5.8-24.5,8.8-38.1,8.8c-11.8,0-23.1-2.3-33.9-6.9
			c-10.8-4.6-20-10.8-27.8-18.6c-7.8-7.8-14-17.1-18.6-27.8c-4.6-10.8-6.9-22-6.9-33.9c0-11.8,2.3-23.1,6.9-33.9
			c4.6-10.8,10.8-20,18.6-27.8c7.8-7.8,17.1-14,27.8-18.6c10.8-4.6,22-6.9,33.9-6.9c13.5,0,26.2,2.9,38.1,8.8
			C935.1-1064.3,945.1-1056.3,953.3-1046.1z M940.9-1036.2l-6.2,5c-5.9-7.4-13.3-13.3-21.9-17.5c-8.7-4.3-17.9-6.4-27.8-6.4
			c-8.6,0-16.8,1.7-24.6,5s-14.6,7.9-20.3,13.6c-5.7,5.7-10.2,12.4-13.5,20.3c-3.3,7.8-5,16-5,24.6s1.7,16.8,5,24.6
			s7.9,14.6,13.5,20.3c5.7,5.7,12.4,10.2,20.3,13.5c7.8,3.3,16,5,24.6,5c9.8,0,19.1-2.1,27.8-6.4s16-10.1,21.9-17.5l5.9,5.2
			c-6.7,8.3-14.9,14.8-24.6,19.6c-9.7,4.7-20,7.1-31.1,7.1c-9.7,0-18.9-1.9-27.8-5.7c-8.8-3.8-16.4-8.8-22.7-15.2
			c-6.4-6.4-11.4-13.9-15.2-22.7s-5.7-18.1-5.7-27.8s1.9-18.9,5.7-27.8s8.9-16.4,15.2-22.7c6.4-6.4,13.9-11.4,22.7-15.2
			c8.8-3.8,18.1-5.7,27.8-5.7c11.1,0,21.5,2.4,31.2,7.2C926-1051.1,934.3-1044.5,940.9-1036.2z M928.5-1026.3l-6.3,4.8
			c-4.4-5.6-9.9-9.9-16.4-13.1s-13.4-4.7-20.8-4.7c-13.1,0-24.4,4.7-33.7,14c-9.3,9.3-13.9,20.5-13.9,33.6
			c0,13.1,4.6,24.3,13.9,33.6c9.3,9.3,20.5,14,33.7,14c7.3,0,14.3-1.6,20.8-4.8s12-7.6,16.4-13.2l6.1,5.1
			c-5.1,6.5-11.5,11.5-19.1,15.3c-7.6,3.7-15.6,5.6-24.2,5.6c-10.1,0-19.4-2.5-27.9-7.4c-8.5-4.9-15.3-11.7-20.2-20.2
			c-5-8.5-7.4-17.8-7.4-27.9s2.5-19.4,7.4-27.9c5-8.5,11.7-15.3,20.2-20.2c8.5-5,17.8-7.4,27.9-7.4c8.6,0,16.7,1.9,24.3,5.6
			C917-1037.9,923.3-1032.8,928.5-1026.3z M916.1-1016.3l-6.4,4.8c-6.4-7.9-14.6-11.9-24.7-11.9c-8.7,0-16.2,3.1-22.4,9.3
			s-9.3,13.7-9.3,22.4c0,8.7,3.1,16.2,9.3,22.4s13.7,9.3,22.4,9.3c4.9,0,9.5-1.1,13.8-3.2c4.3-2.1,7.9-5.1,11-8.8l6.2,5.2
			c-3.7,4.6-8.2,8.2-13.7,10.9c-5.4,2.6-11.2,3.9-17.3,3.9c-10.9,0-20.3-3.9-28-11.6s-11.6-17.1-11.6-28s3.9-20.3,11.6-28
			c7.7-7.7,17.1-11.6,28-11.6c6.2,0,12,1.3,17.4,4C907.9-1024.6,912.5-1021,916.1-1016.3z"/>
	</g>
</g>
<g id="XMLID_221_">
	<g id="XMLID_88_">
		<path id="XMLID_36_" class="st0" d="M64.3,17H7v59h12.9c-1.6,3-2.4,6.9-2.4,12.4c0,13.5,1.5,27.8,4.5,43.5c0,0.3,0.9,4.6,2.6,12.1
			l6.5,31.9h38c11.5,0,23.6-4.6,36.4-12.8c19.4-12.4,32.5-28.4,39.4-47.4c2.2-6.2,3.4-12.1,3.4-18.1C148.3,43.8,120.3,17,64.3,17z
			 M66.7,137.7c-2.6-9.9-4-19.9-4-29.9c0-9.9,1.3-20.3,4-31.1c23,1.5,34.5,9.5,34.5,24.2C101.1,120.2,89.6,132.4,66.7,137.7z"/>
		<path id="XMLID_35_" class="st0" d="M289.2,32.7c-15.1-15.6-34.5-23.4-58.3-23.4c-23.6,0-42,7.8-55,23.4
			c-13,15.6-19.5,37.1-19.5,64.4c0,21.1,7.7,39.5,23.2,55.2c15.5,15.7,33.6,23.5,54.5,23.5c23.2,0,42.2-8.3,56.9-25
			c13.9-15.7,20.8-35.2,20.8-58.5C311.7,68.2,304.2,48.3,289.2,32.7z M257.7,125.4c-5.8,6.1-13.1,9.1-22,9.1c-8.7,0-16-3.1-22-9.4
			c-5.9-6.3-8.9-13.8-8.9-22.5c0-9.5,2.7-17.1,8-22.9c5.4-5.7,12.7-8.6,22.1-8.6c8.5,0,15.8,3.2,22.1,9.5c6.3,6.3,9.4,13.7,9.4,22.2
			C266.4,111.8,263.5,119.4,257.7,125.4z"/>
		<path id="XMLID_42_" class="st0" d="M375.6,92.5c12.8,21.8,21.3,42.4,25.4,61.8h29.3c4.1-19.5,11.2-40.4,21.4-62.6
			c0.3,6.3,0.4,12.6,0.4,18.6c0,23.8-2.5,45.3-7.5,64.6h42.8c8.1-24.2,12.1-51.1,12.1-80.8c0-23.9-2.7-49.8-8.1-77.7h-45.2
			c-16.2,25.1-27.1,48.9-32.5,71.3c-5.8-22.2-16.9-46-33.3-71.3h-53.9c-1.6,14.5-2.4,28.9-2.4,43.2c0,39.2,5.8,77.7,17.4,115.3h45.2
			C379.8,150.9,376.1,123.5,375.6,92.5z"/>
		<path id="XMLID_46_" class="st0" d="M598.6,14.9c9.1,37.9,13.7,66.2,13.7,85c0,11.6-2.3,20.9-6.9,27.9c-5,7.4-11.6,11.1-19.8,11.1
			c-7.9,0-13.8-3.5-17.6-10.5c-3.2-5.5-4.8-12.6-4.8-21.2V95.1c0-5.8,0.4-12.2,1.2-19c0.7-5.8,2.4-16.4,5.4-31.9l5.2-28.5h-57.1
			c-4.5,28-6.7,52.1-6.7,72.3c0,28.7,5.9,51.1,17.8,67.4c12,16.6,28.6,25,49.7,25c57.1,0,85.6-32.8,85.6-98.5
			c0-19.2-2.3-41.5-6.9-67H598.6z"/>
		<path id="XMLID_49_" class="st0" d="M793,15.9c-16.2-5.4-32.8-8.1-49.7-8.1c-19.7,0-35.8,5-48.3,15.1
			c-12.6,10-18.8,23.3-18.8,39.8c0,11.5,5.5,21.9,16.4,31.1c4.4,3.7,14.6,10.1,30.7,19.2c11.1,6.3,16.6,11.8,16.6,16.2
			c0,5.3-4.8,7.9-14.3,7.9s-22.6-2.2-39.2-6.7v43.4c8.5,1.2,17.8,1.8,28.1,1.8c21.8,0,38.6-2.6,50.3-7.7c17-7.4,25.6-20.5,25.6-39.4
			c0-7.5-2-14-5.9-19.4c-3.2-4.2-8.3-8.7-15.5-13.5c-5.5-3.7-12.6-7.9-21.2-12.7c-10-5.5-15.1-9.6-15.1-12.1c0-2.6,2.9-5.2,8.7-7.5
			c5.2-2,10.8-3,16.8-3c10.2,0,21.7,3.3,34.7,9.9V15.9z"/>
	</g>
	<g id="XMLID_117_">
		<path id="XMLID_244_" class="st0" d="M191.1,203.5c-0.5,2.3-1.1,4.6-1.9,6.9l-3.9,10.6h12.1l-3.7-10
			C192.5,208,191.6,205.5,191.1,203.5z"/>
		<path id="XMLID_245_" class="st0" d="M558.9,203.5c-0.5,2.3-1.1,4.6-1.9,6.9l-3.9,10.6h12.1l-3.7-10
			C560.3,208,559.5,205.5,558.9,203.5z"/>
		<path id="XMLID_246_" class="st0" d="M463.8,204.3c-0.8-0.2-2.3-0.3-4.4-0.3H450v13h9.5c3.1,0,5.2-0.7,6.5-1.8
			c1.3-1.1,1.9-2.8,1.9-4.9c0-1.5-0.4-2.8-1.1-3.9C466.1,205.4,465.1,204.7,463.8,204.3z"/>
		<path id="XMLID_247_" class="st0" d="M255,212.8c0.6-1,1-2.1,1-3.2c0-1.7-0.6-3-1.8-4c-1.2-1.1-3.2-1.5-5.8-1.5H237v12h10.2
			c2.2,0,3.9-0.4,5.1-0.9C253.5,214.7,254.4,213.7,255,212.8z"/>
		<path id="XMLID_250_" class="st0" d="M7,191v54h786v-54H7z M151,236h-4v-30.4L136.2,236h-4.3l-9.9-30.9V236h-5v-36h7.1l8.5,25.2
			c0.8,2.4,1.4,4.1,1.7,5.2c0.4-1.3,1-3.1,1.9-5.7l8.6-24.8h6.2V236z M203,236l-4.2-11h-15l-3.9,11h-5l13.7-36h5.1l14.6,36H203z
			 M257.8,236l-4.7-7.7c-1.4-2.1-2.5-3.9-3.4-5c-0.9-1.1-1.7-2-2.4-2.4c-0.7-0.5-1.4-0.6-2.2-0.8c-0.5-0.1-1.4,0-2.6,0H237v16h-5
			v-36h16.1c3.2,0,5.6,0.2,7.3,0.9c1.7,0.6,3,1.7,4,3.4c1,1.6,1.5,3.4,1.5,5.4c0,2.5-0.8,4.7-2.5,6.4c-1.6,1.7-4.2,2.8-7.6,3.3
			c1.3,0.6,2.2,1.2,2.9,1.8c1.4,1.3,2.7,3.1,3.9,5l6.2,10H257.8z M311.4,236l-12.7-18.3l-5.8,5.5V236h-5v-36h5v17.5l17.6-17.5h6.4
			l-15,14.6l15.7,21.4H311.4z M368,236h-26v-36h26v4h-22v11h20v5h-20v12h22V236z M421,204h-12v32h-5v-32h-12v-4h29V204z
			 M469.9,217.9c-1.9,2.1-5.4,3.1-10.5,3.1H450v15h-4v-36h13c2.4,0,4.2,0,5.4,0.2c1.8,0.3,3.2,0.8,4.4,1.6c1.2,0.8,2.1,1.9,2.9,3.4
			c0.7,1.5,1.1,3.1,1.1,4.9C472.8,213.2,471.9,215.7,469.9,217.9z M521,236h-22v-36h4v32h18V236z M570.8,236l-4.2-11h-15l-3.9,11h-5
			l13.7-36h5.1l14.6,36H570.8z M624.9,233.1c-2.6,2-5.7,3.1-9.5,3.1c-3.9,0-7-0.8-9.4-2.4c-2.4-1.6-4.3-3.8-5.5-6.8
			c-1.3-3-1.9-6.2-1.9-9.6c0-3.7,0.7-7,2.1-9.8c1.4-2.8,3.5-4.9,6.1-6.3c2.6-1.4,5.5-2.2,8.7-2.2c3.6,0,6.6,0.9,9,2.7
			c2.4,1.8,4.1,4.4,5.1,7.7l-4.7,1.1c-0.8-2.6-2-4.5-3.6-5.7c-1.6-1.2-3.6-1.8-6-1.8c-2.8,0-5,0.7-6.9,2c-1.8,1.3-3.1,3.1-3.9,5.3
			c-0.7,2.2-1.1,4.5-1.1,6.9c0,3,0.4,5.7,1.3,8c0.9,2.3,2.3,4,4.1,5.1c1.9,1.1,3.9,1.7,6.1,1.7c2.7,0,4.9-0.8,6.7-2.3
			c1.8-1.5,3.1-3.8,3.7-6.8l4.7,1.2C629.3,228.1,627.5,231.1,624.9,233.1z M683,236h-27v-36h26v4h-21v11h20v5h-20v12h22V236z"/>
	</g>
</g>
</svg>
