<?xml version="1.0" encoding="utf-8"?>
<!-- Generator: Adobe Illustrator 19.0.0, SVG Export Plug-In . SVG Version: 6.00 Build 0)  -->
<svg version="1.1" id="Layer_1" xmlns="http://www.w3.org/2000/svg" xmlns:xlink="http://www.w3.org/1999/xlink" x="0px" y="0px"
	 viewBox="0 0 940 293.5" style="enable-background:new 0 0 940 293.5;" xml:space="preserve">
<style type="text/css">
	.st0{fill:#2D3436;}
	.st1{fill:#1A1A1A;}
</style>
<g id="XMLID_1_">
	<g id="XMLID_64_">
		<g id="XMLID_96_">
			<path id="XMLID_231_" class="st0" d="M1326.2,805.3h-96.4V632.3h96.4c13.6,0,26.2,3.9,38,11.6c11.8,7.7,21.1,18.2,28.1,31.5
				c7,13.3,10.5,27.7,10.5,43.3c0,11.7-2.1,22.9-6.2,33.6c-4.1,10.7-9.7,19.9-16.6,27.6c-6.9,7.7-15.1,13.9-24.5,18.4
				C1346.2,803,1336.4,805.3,1326.2,805.3z M1237.3,797.8h88.9c9.1,0,17.9-2.1,26.4-6.3c8.5-4.2,15.8-9.8,22-16.8
				c6.2-7,11.2-15.4,14.9-25.2c3.7-9.8,5.6-20,5.6-30.7c0-10.7-1.9-20.9-5.6-30.6c-3.7-9.7-8.7-18.2-14.9-25.2
				c-6.2-7.1-13.5-12.7-22-16.9c-8.5-4.2-17.3-6.3-26.4-6.3h-88.9V797.8z M1244.9,790.2V647.4h81.4c10.9,0,21,3.2,30.4,9.6
				c9.4,6.4,16.9,15.1,22.5,26.1c5.6,11,8.4,22.9,8.4,35.8c0,12.9-2.8,24.8-8.4,35.8c-5.6,11-13.1,19.7-22.5,26.1
				c-9.4,6.4-19.5,9.6-30.4,9.6H1244.9z M1252.4,782.7h73.8c9.5,0,18.4-2.9,26.6-8.6c8.2-5.7,14.7-13.5,19.6-23.3
				c4.9-9.8,7.3-20.5,7.3-32.1c0-11.5-2.4-22.2-7.3-32c-4.9-9.9-11.4-17.6-19.6-23.3c-8.2-5.7-17.1-8.6-26.5-8.6h-73.8V782.7z
				 M1259.9,775.2V662.4h66.3c8.1,0,15.7,2.5,22.8,7.5c7,5,12.6,11.9,16.8,20.5c4.1,8.7,6.2,18.1,6.2,28.4c0,10.2-2.1,19.6-6.2,28.3
				c-4.1,8.7-9.7,15.6-16.8,20.6c-7,5-14.6,7.5-22.8,7.5H1259.9z M1267.4,767.7h58.8c10.4,0,19.3-4.8,26.8-14.4
				c7.5-9.6,11.2-21.1,11.2-34.5c0-8.8-1.7-17-5.2-24.5c-3.4-7.5-8.1-13.5-13.9-17.8c-5.8-4.4-12.1-6.5-19-6.5h-58.8V767.7z
				 M1274.9,760.2v-82.7h51.3c8.3,0,15.4,4.1,21.4,12.2c6,8.1,8.9,17.8,8.9,29.2c0,11.4-3,21.2-8.9,29.2c-6,8.1-13.1,12.1-21.4,12.1
				H1274.9z M1282.5,752.6h43.8c6.2,0,11.5-3.3,15.9-9.9c4.4-6.6,6.6-14.6,6.6-23.9c0-9.4-2.2-17.4-6.6-24
				c-4.4-6.6-9.7-9.9-15.9-9.9h-43.8V752.6z"/>
		</g>
		<g id="XMLID_87_">
			<path id="XMLID_221_" class="st0" d="M1423,755.3c-5-11.6-7.5-23.8-7.5-36.5c0-12.7,2.5-24.9,7.5-36.5c5-11.6,11.7-21.6,20.1-30
				c8.4-8.4,18.4-15.1,30-20.1c11.6-5,23.8-7.5,36.5-7.5s24.9,2.5,36.5,7.5c11.6,5,21.6,11.7,30,20.1c8.4,8.4,15.1,18.4,20.1,30
				c5,11.6,7.5,23.8,7.5,36.5c0,12.7-2.5,24.9-7.5,36.5c-5,11.6-11.7,21.6-20.1,30c-8.4,8.4-18.4,15.1-30,20.1s-23.8,7.5-36.5,7.5
				s-24.9-2.5-36.5-7.5s-21.6-11.7-30-20.1C1434.6,776.9,1428,766.9,1423,755.3z M1429.9,685.2c-4.6,10.7-6.8,21.9-6.8,33.6
				c0,11.7,2.3,22.9,6.8,33.6c4.6,10.7,10.7,19.9,18.4,27.6c7.7,7.7,16.9,13.9,27.6,18.4c10.7,4.6,21.9,6.8,33.6,6.8
				s22.9-2.3,33.6-6.8c10.7-4.6,19.9-10.7,27.6-18.4c7.7-7.7,13.9-16.9,18.4-27.6c4.6-10.7,6.8-21.9,6.8-33.6
				c0-11.7-2.3-22.9-6.8-33.6c-4.6-10.7-10.7-19.9-18.4-27.6c-7.7-7.7-16.9-13.9-27.6-18.4c-10.7-4.6-21.9-6.8-33.6-6.8
				s-22.9,2.3-33.6,6.8c-10.7,4.6-19.9,10.7-27.6,18.4C1440.6,665.3,1434.4,674.5,1429.9,685.2z M1441.1,758.4
				c-7.1-12.1-10.6-25.3-10.6-39.6c0-14.3,3.5-27.5,10.6-39.6c7.1-12.1,16.7-21.7,28.8-28.8c12.1-7.1,25.3-10.6,39.6-10.6
				c14.3,0,27.5,3.5,39.6,10.6c12.1,7.1,21.7,16.7,28.8,28.8c7.1,12.1,10.6,25.3,10.6,39.6c0,14.3-3.5,27.5-10.6,39.6
				c-7.1,12.1-16.7,21.7-28.8,28.8c-12.1,7.1-25.3,10.6-39.6,10.6c-14.3,0-27.5-3.5-39.6-10.6
				C1457.8,780.1,1448.2,770.5,1441.1,758.4z M1443.7,691c-3.8,8.8-5.6,18.1-5.6,27.8c0,9.7,1.9,18.9,5.6,27.8
				c3.8,8.8,8.8,16.4,15.2,22.8c6.4,6.4,14,11.4,22.8,15.2c8.8,3.8,18.1,5.6,27.8,5.6c9.7,0,18.9-1.9,27.8-5.6
				c8.8-3.8,16.4-8.8,22.8-15.2c6.4-6.4,11.4-14,15.2-22.8c3.8-8.8,5.6-18.1,5.6-27.8c0-9.7-1.9-18.9-5.6-27.8
				c-3.8-8.8-8.8-16.4-15.2-22.8c-6.4-6.4-14-11.4-22.8-15.2c-8.8-3.8-18.1-5.6-27.8-5.6c-9.7,0-18.9,1.9-27.8,5.6
				c-8.8,3.8-16.4,8.8-22.8,15.2C1452.5,674.6,1447.5,682.2,1443.7,691z M1454.1,750.9c-5.7-9.8-8.6-20.5-8.6-32.1
				c0-11.6,2.9-22.2,8.6-32.1c5.7-9.8,13.5-17.6,23.3-23.3c9.8-5.7,20.5-8.6,32.1-8.6c11.6,0,22.2,2.9,32.1,8.6
				c9.8,5.7,17.6,13.5,23.3,23.3c5.7,9.8,8.6,20.5,8.6,32.1c0,11.6-2.9,22.2-8.6,32.1c-5.7,9.8-13.5,17.6-23.3,23.3
				c-9.8,5.7-20.5,8.6-32.1,8.6c-11.6,0-22.2-2.9-32.1-8.6C1467.6,768.4,1459.9,760.7,1454.1,750.9z M1460.7,690.5
				c-5,8.6-7.6,18.1-7.6,28.3c0,10.2,2.5,19.7,7.6,28.3c5,8.6,11.9,15.5,20.5,20.5c8.6,5,18.1,7.6,28.3,7.6
				c10.2,0,19.7-2.5,28.3-7.6c8.6-5,15.5-11.9,20.5-20.5c5-8.6,7.6-18.1,7.6-28.3c0-10.2-2.5-19.7-7.6-28.3
				c-5-8.6-11.9-15.5-20.5-20.5c-8.6-5-18.1-7.6-28.3-7.6c-10.2,0-19.7,2.5-28.3,7.6C1472.6,675,1465.7,681.9,1460.7,690.5z
				 M1464.5,737.8c-2.6-6-3.9-12.3-3.9-19c0-6.6,1.3-12.9,3.9-19c2.6-6,6.1-11.2,10.4-15.6c4.4-4.4,9.6-7.9,15.6-10.4
				c6-2.6,12.3-3.9,19-3.9c6.6,0,12.9,1.3,19,3.9c6,2.6,11.2,6.1,15.6,10.4c4.4,4.4,7.9,9.6,10.4,15.6c2.6,6,3.9,12.3,3.9,19
				c0,6.6-1.3,12.9-3.9,19c-2.6,6-6.1,11.2-10.4,15.6c-4.4,4.4-9.6,7.9-15.6,10.4c-6,2.6-12.3,3.9-19,3.9c-6.6,0-12.9-1.3-19-3.9
				c-6-2.6-11.2-6.1-15.6-10.4C1470.5,749,1467.1,743.8,1464.5,737.8z M1480.3,689.6c-8.1,8.1-12.1,17.8-12.1,29.2
				c0,11.4,4,21.2,12.1,29.2c8.1,8.1,17.8,12.1,29.2,12.1c11.4,0,21.2-4,29.2-12.1c8.1-8.1,12.1-17.8,12.1-29.2
				c0-11.4-4-21.2-12.1-29.2c-8.1-8.1-17.8-12.1-29.2-12.1C1498.1,677.4,1488.3,681.5,1480.3,689.6z"/>
		</g>
		<g id="XMLID_75_">
			<path id="XMLID_208_" class="st0" d="M1694.9,760.2h-8.5l-59.8-113.5v158.6h-7.5V632.3h8.5L1694.9,760.2z M1634.1,671.6l7.5,14.3
				v119.4h-7.5V671.6z M1711.9,760.2h-8.6l-67.3-127.8h8.6L1711.9,760.2z M1649.1,700.2l7.5,14.2v90.9h-7.5V700.2z M1788.6,646.6
				l-59.8,113.5h-8.6l-67.1-127.8h8.5l63.1,119.9l63-119.9h8.6v172.9h-7.5V646.6z M1664.2,728.8l7.5,14.2v62.2h-7.5V728.8z
				 M1714.5,722.2l-4.4-7.9l43.4-82h8.6L1714.5,722.2z M1723.2,738.6l-4.3-7.8l51.8-98.5h8.5L1723.2,738.6z M1743.5,742.2l7.5-14.2
				v77.3h-7.5V742.2z M1758.6,713.4l7.5-14.2v106.1h-7.5V713.4z M1773.6,685l7.5-14.3v134.6h-7.5V685z"/>
		</g>
		<g id="XMLID_70_">
			<path id="XMLID_202_" class="st0" d="M1982.9,729.2v-96.9h7.5v96.9c0,15-3.9,29-11.8,41.8c-7.9,12.8-18.5,23-32,30.5
				c-13.5,7.5-28.1,11.2-43.9,11.2c-15.8,0-30.4-3.7-43.9-11.2c-13.5-7.5-24.1-17.6-32-30.5c-7.9-12.8-11.8-26.8-11.8-41.8v-96.9
				h7.5v96.9c0,10.2,2.1,20.1,6.4,29.4c4.2,9.4,10,17.5,17.1,24.3c7.2,6.8,15.7,12.2,25.6,16.2c9.9,4,20.3,6.1,31.1,6.1
				c10.8,0,21.1-2,31.1-6.1c9.9-4,18.5-9.5,25.6-16.2c7.2-6.8,12.9-14.9,17.1-24.3C1980.8,749.3,1982.9,739.5,1982.9,729.2z
				 M1967.8,729.2v-96.9h7.5v96.9c0,9.3-1.9,18.1-5.8,26.6c-3.9,8.5-9,15.8-15.5,21.9c-6.5,6.1-14.2,11-23.2,14.6
				c-9,3.6-18.4,5.4-28.2,5.4c-9.8,0-19.2-1.8-28.2-5.4c-9-3.6-16.7-8.5-23.2-14.6c-6.5-6.1-11.6-13.4-15.5-21.9
				c-3.9-8.5-5.8-17.3-5.8-26.6v-96.9h7.5v96.9c0,11,2.9,21.2,8.8,30.5c5.8,9.4,13.8,16.8,23.8,22.2c10,5.5,20.9,8.2,32.6,8.2
				c11.8,0,22.6-2.7,32.6-8.2c10-5.5,17.9-12.9,23.8-22.2C1964.9,750.4,1967.8,740.2,1967.8,729.2z M1952.8,729.2v-96.9h7.5v96.9
				c0,7.2-1.5,14.1-4.6,20.7c-3.1,6.6-7.2,12.3-12.3,17.1c-5.2,4.8-11.3,8.6-18.4,11.4c-7.1,2.8-14.6,4.2-22.3,4.2
				c-7.8,0-15.2-1.4-22.3-4.2c-7.1-2.8-13.2-6.6-18.4-11.4c-5.2-4.8-9.3-10.5-12.3-17.1c-3.1-6.6-4.6-13.5-4.6-20.7v-96.9h7.5v96.9
				c0,8.3,2.2,16,6.7,23c4.5,7.1,10.6,12.7,18.3,16.8c7.7,4.1,16.1,6.2,25.1,6.2c9,0,17.4-2.1,25.1-6.2c7.7-4.1,13.8-9.7,18.3-16.8
				C1950.6,745.2,1952.8,737.5,1952.8,729.2z M1937.8,729.2v-96.9h7.5v96.9c0,10.6-4.2,19.6-12.5,27.2c-8.4,7.5-18.4,11.3-30.1,11.3
				c-11.7,0-21.7-3.8-30.1-11.3c-8.4-7.5-12.5-16.6-12.5-27.2v-96.9h7.5v96.9c0,8.5,3.4,15.8,10.3,21.8c6.9,6.1,15.1,9.1,24.8,9.1
				c9.7,0,17.9-3,24.8-9.1C1934.3,745,1937.8,737.7,1937.8,729.2z"/>
		</g>
		<g id="XMLID_65_">
			<path id="XMLID_196_" class="st0" d="M2079.5,700h-12.6c-5.4,0-9.2-1.4-11.6-4.1c-2.4-2.7-3.6-6.4-3.6-10.9c0-10,7.5-15,22.5-15
				c14.1,0,24.6,2.1,31.7,6.3l-6.1,4.6c-4.9-2.2-13.4-3.3-25.7-3.3c-6,0-10,0.7-12.1,2c-2.1,1.3-3.1,3.2-3.1,5.5
				c0,2.4,0.6,4.2,1.7,5.5c1.1,1.3,3.2,2,6.2,2h12.9c9.4,0,17.9,1.6,25.4,4.8c7.6,3.2,13.8,7.6,18.6,13.1
				c4.9,5.5,8.6,11.9,11.2,19.1c2.6,7.2,3.9,14.9,3.9,23.1c0,6.7-0.9,13-2.8,19c-1.9,6-4.7,11.5-8.5,16.5c-3.8,5-8.4,9.3-13.7,13
				c-5.3,3.7-11.7,6.5-19,8.6c-7.3,2.1-15.3,3.1-23.9,3.1c-13.4,0-26-2-37.8-6.1c-11.7-4.1-21.5-9.8-29.3-17.1l6.1-4.5
				c7.1,6.4,16,11.4,26.7,14.9c10.7,3.5,22.1,5.3,34.3,5.3c9.5,0,18.2-1.4,25.8-4.1c7.7-2.7,14-6.5,19-11.3
				c5-4.8,8.8-10.4,11.5-16.7c2.7-6.3,4-13.2,4-20.5c0-9.7-1.9-18.4-5.8-26.3c-3.9-7.8-9.8-14.2-17.8-19.1
				C2099.8,702.4,2090.3,700,2079.5,700z M2066.8,737.6h11.5c5.4,0,9.2,1.4,11.6,4.2c2.4,2.8,3.6,6.4,3.6,10.9c0,10-7.5,15-22.5,15
				c-14.1,0-24.8-2.1-31.9-6.3l6.1-4.6c4.9,2.2,13.5,3.3,25.8,3.3c6,0,10-0.7,12.1-2c2.1-1.3,3.1-3.2,3.1-5.5c0-2.3-0.6-4.1-1.7-5.5
				s-3.3-2-6.3-2h-11.3c-9.6,0-18.3-1.6-26.1-4.7c-7.8-3.1-14.1-7.4-19.1-12.9c-5-5.5-8.8-11.9-11.4-19.1c-2.6-7.2-4-15-4-23.4
				c0-6.7,0.9-13,2.8-19c1.9-6,4.7-11.5,8.5-16.5c3.8-5,8.4-9.3,13.7-13c5.3-3.7,11.7-6.5,19-8.6c7.3-2.1,15.3-3.1,23.9-3.1
				c13.4,0,26,2,37.7,6.1s21.4,9.8,29.2,17.1l-6.1,4.5c-7.1-6.4-16-11.4-26.6-14.9c-10.7-3.5-22.1-5.3-34.3-5.3
				c-9.5,0-18.2,1.4-25.8,4.1c-7.7,2.8-14,6.5-19,11.3c-5,4.8-8.8,10.4-11.5,16.7c-2.7,6.3-4,13.2-4,20.5c0,9.8,2,18.7,6,26.5
				c4,7.9,10,14.2,18.2,19C2046.1,735.2,2055.7,737.6,2066.8,737.6z M2066.8,707.5h11.9c14.1,0,25.2,4.3,33.2,12.9
				c8,8.6,12,19.4,12,32.2c0,13-4.6,23.8-13.9,32.3c-9.3,8.5-22.2,12.8-39,12.8c-11.1,0-21.5-1.5-31.2-4.6
				c-9.7-3.1-17.7-7.4-24.1-12.9l5.8-4.7c5.7,4.7,12.9,8.3,21.6,10.9c8.7,2.6,18,3.9,27.9,3.9c14.7,0,25.9-3.5,33.7-10.5
				c7.8-7,11.6-16,11.6-27c0-10.9-3.3-19.8-9.8-26.9c-6.5-7.1-15.8-10.7-27.9-10.7h-11.8c-10.2,0-17.8-2.8-22.9-8.4
				c-5.1-5.6-7.6-12.8-7.6-21.7c0-8.9,3.1-16.2,9.5-21.7c6.3-5.6,15.8-8.4,28.4-8.4c8.8,0,17.1,1,24.6,3.1c7.6,2.1,13.9,5,18.8,8.8
				l-6,4.6c-8.7-6-21.2-9-37.5-9c-10.5,0-18.2,2.1-23,6.2c-4.8,4.1-7.3,9.6-7.3,16.3c0,6.8,1.8,12.3,5.4,16.4
				C2052.8,705.5,2058.7,707.5,2066.8,707.5z M2066.8,722.6h11.5c10.2,0,17.8,2.8,22.9,8.5c5.1,5.6,7.6,12.8,7.6,21.6
				c0,8.9-3.2,16.2-9.4,21.7c-6.3,5.6-15.8,8.4-28.4,8.4c-8.8,0-17.1-1-24.7-3.1c-7.6-2.1-13.9-5-18.8-8.8l6-4.6
				c8.7,6,21.2,9,37.6,9c10.5,0,18.2-2.1,23-6.2c4.8-4.1,7.3-9.6,7.3-16.3c0-6.8-1.8-12.2-5.4-16.3c-3.6-4.1-9.5-6.2-17.6-6.2h-11.4
				c-14.3,0-25.4-4.3-33.5-12.8c-8-8.5-12.1-19.3-12.1-32.3c0-13,4.6-23.8,13.9-32.3c9.3-8.5,22.2-12.8,39-12.8
				c11.1,0,21.5,1.5,31.2,4.6c9.6,3.1,17.7,7.4,24.1,12.9l-5.8,4.7c-5.7-4.7-12.9-8.3-21.5-10.9c-8.6-2.6-17.9-3.9-27.9-3.9
				c-14.7,0-25.9,3.5-33.7,10.5c-7.8,7-11.6,16-11.6,27c0,10.9,3.3,19.9,9.8,27C2045.2,719,2054.6,722.6,2066.8,722.6z"/>
		</g>
	</g>
</g>
<g id="XMLID_120_">
	<path id="XMLID_18_" class="st1" d="M1193.5-359.3c0,2-1,3-3,3h-10.2c-1.9,0-2.9-1-2.9-3v-26.8c0-2,1-3,2.9-3h10.2c2,0,3,1,3,3v7.7
		h-4.9v-6.5h-6.3v24.4h6.3v-6.9h4.9V-359.3z"/>
	<path id="XMLID_20_" class="st1" d="M1222.4-359.3c0,2-1,3-3,3h-10.6c-1.9,0-2.9-1-2.9-3v-26.8c0-2,1-3,2.9-3h10.6c2,0,3,1,3,3
		V-359.3z M1217.5-360.5v-24.4h-6.7v24.4H1217.5z"/>
	<path id="XMLID_23_" class="st1" d="M1247.8-356.3h-12.9v-32.8h4.9v28.4h8V-356.3z"/>
	<path id="XMLID_25_" class="st1" d="M1272.9-356.3h-13.6v-32.8h13.5v4.3h-8.6v9.6h7.4v4.3h-7.4v10.3h8.7V-356.3z"/>
	<path id="XMLID_27_" class="st1" d="M1301-359.3c0,2-1,3-3,3h-10.2c-1.9,0-2.9-1-2.9-3v-26.8c0-2,1-3,2.9-3h10.2c2,0,3,1,3,3v7.7
		h-4.9v-6.5h-6.3v24.4h6.3v-6.9h4.9V-359.3z"/>
	<path id="XMLID_29_" class="st1" d="M1329.5-359.3c0,2-1,3-3,3h-10.2c-1.9,0-2.9-1-2.9-3v-26.8c0-2,1-3,2.9-3h10.2c2,0,3,1,3,3v7.7
		h-4.9v-6.5h-6.3v24.4h6.3v-6.9h4.9V-359.3z"/>
	<path id="XMLID_31_" class="st1" d="M1346.9-356.3h-4.9v-32.8h4.9V-356.3z"/>
	<path id="XMLID_33_" class="st1" d="M1376.1-359.3c0,2-1,3-3,3h-10.6c-1.9,0-2.9-1-2.9-3v-26.8c0-2,1-3,2.9-3h10.6c2,0,3,1,3,3
		V-359.3z M1371.2-360.5v-24.4h-6.7v24.4H1371.2z"/>
	<path id="XMLID_36_" class="st1" d="M1405.2-356.3h-4.3l-7.9-20.6c0.2,1,0.3,1.8,0.3,2.4v18.3h-4.8v-32.8h4.3l7.9,20.2
		c-0.2-1-0.3-1.8-0.3-2.4v-17.8h4.8V-356.3z"/>
	<path id="XMLID_38_" class="st1" d="M1434.3-356.3h-4.9l-1-6.2h-6.1l-1,6.2h-4.8v-0.1l6.3-32.7h5.2L1434.3-356.3z M1427.8-366.7
		l-2.4-14.8l-2.4,14.8H1427.8z"/>
	<path id="XMLID_41_" class="st1" d="M1472.6-366.7h-10v-4.4h10V-366.7z"/>
	<path id="XMLID_43_" class="st1" d="M1518.4-359.3c0,2-1,3-3,3h-10.2c-1.9,0-2.9-1-2.9-3v-26.8c0-2,1-3,2.9-3h10.2c2,0,3,1,3,3v7.7
		h-4.9v-6.5h-6.3v24.4h6.3v-6.9h4.9V-359.3z"/>
	<path id="XMLID_45_" class="st1" d="M1547.3-359.3c0,2-1,3-3,3h-10.6c-1.9,0-2.9-1-2.9-3v-26.8c0-2,1-3,2.9-3h10.6c2,0,3,1,3,3
		V-359.3z M1542.4-360.5v-24.4h-6.7v24.4H1542.4z"/>
	<path id="XMLID_48_" class="st1" d="M1576.4-356.3h-4.3l-7.9-20.6c0.2,1,0.3,1.8,0.3,2.4v18.3h-4.8v-32.8h4.3l7.9,20.2
		c-0.2-1-0.3-1.8-0.3-2.4v-17.8h4.8V-356.3z"/>
	<path id="XMLID_50_" class="st1" d="M1605.5-359.3c0,2-1,3-3,3h-10.6c-1.9,0-2.9-1-2.9-3v-26.8c0-2,1-3,2.9-3h10.6c2,0,3,1,3,3
		V-359.3z M1600.6-360.5v-24.4h-6.7v24.4H1600.6z"/>
	<path id="XMLID_53_" class="st1" d="M1634.1-359.3c0,2-1,3-3,3h-10.2c-1.9,0-2.9-1-2.9-3v-26.8c0-2,1-3,2.9-3h10.2c2,0,3,1,3,3v7.7
		h-4.9v-6.5h-6.3v24.4h6.3v-6.9h4.9V-359.3z"/>
	<path id="XMLID_55_" class="st1" d="M1660.1-356.3h-13.6v-32.8h13.5v4.3h-8.6v9.6h7.4v4.3h-7.4v10.3h8.7V-356.3z"/>
	<path id="XMLID_57_" class="st1" d="M1699.1-366.7h-10v-4.4h10V-366.7z"/>
	<path id="XMLID_60_" class="st1" d="M1745-389.1l-6.3,32.8h-4.9l-6.3-32.8h4.9l3.7,22.5c0,0.6,0.1,1.6,0.1,2.8c0-0.6,0-1.6,0.1-2.8
		l3.7-22.5H1745z"/>
	<path id="XMLID_62_" class="st1" d="M1769.9-356.3h-13.6v-32.8h13.5v4.3h-8.6v9.6h7.4v4.3h-7.4v10.3h8.7V-356.3z"/>
	<path id="XMLID_105_" class="st1" d="M1798.5-356.3h-4.3l-7.9-20.6c0.2,1,0.3,1.8,0.3,2.4v18.3h-4.8v-32.8h4.3l7.9,20.2
		c-0.2-1-0.3-1.8-0.3-2.4v-17.8h4.8V-356.3z"/>
	<path id="XMLID_107_" class="st1" d="M1827.3-362.5c0,1.9-0.6,3.4-1.7,4.5c-1.1,1.1-2.7,1.6-4.6,1.6h-10v-32.8h10
		c1.9,0,3.5,0.6,4.6,1.7c1.1,1.1,1.7,2.6,1.7,4.6V-362.5z M1822.4-363.3v-18.8c0-1.8-1-2.7-2.9-2.7h-3.6v24.4h3.5
		C1821.4-360.5,1822.4-361.4,1822.4-363.3z"/>
	<path id="XMLID_110_" class="st1" d="M1853.3-356.3h-13.6v-32.8h13.5v4.3h-8.6v9.6h7.4v4.3h-7.4v10.3h8.7V-356.3z"/>
</g>
<g id="XMLID_136_">
	<g id="XMLID_128_">
		<path id="XMLID_129_" class="st0" d="M337.5,1063h-91.5V904.4h91.5c14,0,27,3.5,39.1,10.6c12.1,7.1,21.7,16.7,28.9,28.9
			c7.2,12.2,10.7,25.4,10.7,39.6c0,10.8-2.1,21.1-6.3,31c-4.2,9.8-9.9,18.3-17,25.4c-7.1,7.1-15.5,12.7-25.2,16.9
			S347.9,1063,337.5,1063z M253.8,1055.1h83.6c12.6,0,24.2-3.2,35-9.5c10.8-6.4,19.4-15,25.8-26.1c6.4-11,9.6-23,9.6-36
			c0-12.8-3.2-24.7-9.6-35.6c-6.4-11-15.1-19.6-25.9-26c-10.8-6.4-22.5-9.5-35-9.5h-83.6V1055.1z M261.8,1047.2V920.3h75.7
			c11.1,0,21.4,2.8,31,8.5c9.6,5.7,17.2,13.3,22.9,23.1c5.7,9.7,8.5,20.3,8.5,31.7c0,11.5-2.8,22.2-8.5,32
			c-5.7,9.8-13.3,17.5-22.9,23.2c-9.6,5.7-19.9,8.5-31,8.5H261.8z M269.7,1039.2h67.7c9.7,0,18.7-2.5,27-7.4
			c8.3-4.9,14.9-11.7,19.8-20.3c4.9-8.6,7.4-18,7.4-28.1c0-9.9-2.5-19.1-7.4-27.6c-4.9-8.5-11.5-15.3-19.9-20.2
			c-8.3-5-17.3-7.4-26.9-7.4h-67.7V1039.2z M277.6,1031.3v-95.2h59.8c12.6,0,23.4,4.6,32.4,13.9c9.1,9.3,13.6,20.4,13.6,33.4
			c0,13.3-4.5,24.6-13.5,33.9c-9,9.3-19.9,13.9-32.5,13.9H277.6z M285.6,1023.4h51.9c10.4,0,19.4-3.9,26.8-11.6
			c7.4-7.7,11.1-17.2,11.1-28.3c0-10.9-3.7-20.2-11.2-27.9c-7.5-7.7-16.4-11.6-26.7-11.6h-51.9V1023.4z M293.5,1015.4V952h44
			c8.2,0,15.1,3.1,21,9.3c5.8,6.2,8.8,13.6,8.8,22.3c0,9-2.9,16.5-8.7,22.7c-5.8,6.2-12.8,9.3-21,9.3H293.5z M301.4,1007.5h36
			c5.9,0,11-2.3,15.3-6.9c4.2-4.6,6.3-10.3,6.3-17.1c0-6.5-2.1-12-6.3-16.6c-4.2-4.6-9.3-6.9-15.3-6.9h-36V1007.5z"/>
	</g>
</g>
<g id="XMLID_125_">
	<path id="XMLID_299_" class="st0" d="M-924.6,405.1l-38.3,32.8l-15-17.5c-3-3.5-5-7-6.1-10.5c-1-3.5-1.1-6.9-0.1-10.1
		c0.9-3.2,2.9-6.1,5.8-8.6c2.9-2.5,6-3.9,9.2-4.3c3.3-0.4,6.6,0.2,9.8,1.8c3.3,1.6,6.4,4.1,9.4,7.6l9.8,11.5l-8.7-0.9l14.7-12.6
		L-924.6,405.1z M-947.5,405.9l-0.9,9.1l-9.3-10.8c-1.9-2.3-3.9-3.5-5.8-3.8c-1.9-0.3-3.8,0.3-5.5,1.8c-1.8,1.5-2.7,3.3-2.7,5.2
		c0,2,0.9,4.1,2.9,6.3l9.3,10.8l-9.1-0.6L-947.5,405.9z M-944.9,381.4l-5.8,21.5l-9.9-11.5l5.8-21.5L-944.9,381.4z"/>
	<path id="XMLID_303_" class="st0" d="M-974.2,359.2l-13.8-22.5l9.4-5.8l21.1,34.5l-43,26.3l-20.6-33.7l9.4-5.8l13.3,21.7
		L-974.2,359.2z M-990.6,370.5l-12.2-20l9.1-5.6l12.2,20L-990.6,370.5z"/>
	<path id="XMLID_306_" class="st0" d="M-981.5,325.8l-46.8,18.7l-8.9-22.1c-2.1-5.2-2.9-10.1-2.6-14.8c0.3-4.7,1.8-8.8,4.4-12.4
		c2.6-3.6,6.3-6.4,11.1-8.3c4.8-1.9,9.3-2.5,13.7-1.7c4.4,0.8,8.3,2.8,11.8,5.9c3.5,3.2,6.3,7.3,8.3,12.5L-981.5,325.8z
		 M-997.3,316.8l-3.3-8.4c-1.1-2.7-2.5-4.8-4.3-6.4c-1.8-1.6-3.9-2.5-6.3-2.9c-2.4-0.3-4.9,0-7.6,1.1c-2.7,1.1-4.8,2.6-6.3,4.5
		c-1.5,1.9-2.3,4-2.5,6.4c-0.2,2.4,0.2,4.9,1.3,7.6l3.3,8.4L-997.3,316.8z"/>
	<path id="XMLID_309_" class="st0" d="M-1008.1,234.8c0.6,4.1,0.7,8.1,0.2,12c-0.5,3.9-1.3,7.2-2.6,9.8l-11.1-3.1
		c1.1-2.4,1.9-5.2,2.4-8.3c0.5-3.1,0.5-6,0.1-8.9c-0.3-1.9-0.7-3.5-1.2-4.6c-0.5-1.1-1.1-1.9-1.8-2.4c-0.7-0.5-1.4-0.6-2.2-0.5
		c-1.1,0.2-2,0.8-2.5,2c-0.5,1.1-0.9,2.6-1,4.3c-0.2,1.7-0.3,3.6-0.5,5.7c-0.1,2.1-0.4,4.2-0.7,6.3c-0.4,2.1-1,4.1-1.8,5.9
		c-0.8,1.8-2,3.4-3.6,4.7c-1.6,1.3-3.7,2.2-6.4,2.5c-3,0.4-5.8,0-8.5-1.2s-5-3.4-6.9-6.5c-2-3.1-3.3-7-4-11.9
		c-0.5-3.3-0.6-6.5-0.3-9.8c0.3-3.3,0.9-6.2,2-8.9l11.1,2.8c-0.9,2.6-1.5,5.1-1.8,7.5c-0.3,2.4-0.3,4.7,0,6.9
		c0.3,1.9,0.7,3.5,1.3,4.6c0.6,1.1,1.2,1.9,2,2.3c0.7,0.4,1.5,0.6,2.4,0.4c1.1-0.2,1.9-0.8,2.4-1.9c0.5-1.1,0.8-2.5,1-4.3
		c0.2-1.7,0.3-3.7,0.4-5.7c0.1-2.1,0.4-4.2,0.7-6.3c0.3-2.1,0.9-4.1,1.7-5.9c0.8-1.8,2-3.4,3.6-4.6c1.6-1.3,3.7-2.1,6.3-2.5
		c2.9-0.4,5.7,0,8.4,1.3c2.7,1.3,5,3.4,7,6.5C-1010.2,225.8-1008.8,229.8-1008.1,234.8z"/>
	<path id="XMLID_311_" class="st0" d="M-1011.5,182.9c-0.1,4-0.8,7.7-2.1,11.1c-1.4,3.4-3.2,6.3-5.7,8.8c-2.4,2.5-5.2,4.4-8.4,5.7
		c-3.2,1.3-6.7,2-10.5,1.9c-3.8-0.1-7.3-0.8-10.4-2.3c-3.1-1.4-5.9-3.5-8.2-6c-2.3-2.6-4.1-5.6-5.3-9c-1.2-3.4-1.8-7.2-1.7-11.2
		c0.1-4.1,0.8-7.8,2.1-11.2c1.4-3.4,3.2-6.3,5.7-8.7c2.4-2.5,5.2-4.4,8.4-5.7c3.2-1.4,6.7-2,10.5-1.9c3.8,0.1,7.3,0.8,10.4,2.3
		c3.2,1.5,5.9,3.5,8.2,6c2.3,2.5,4.1,5.5,5.3,8.9C-1012,175.1-1011.4,178.8-1011.5,182.9z M-1023.3,182.7c0-1.9-0.3-3.7-0.9-5.4
		c-0.6-1.7-1.6-3.1-2.8-4.4c-1.2-1.2-2.8-2.2-4.5-3c-1.8-0.7-3.7-1.1-5.9-1.2c-2.2,0-4.2,0.3-6,0.9c-1.8,0.7-3.3,1.6-4.6,2.8
		c-1.3,1.2-2.3,2.6-3,4.3c-0.7,1.6-1.1,3.4-1.1,5.3c0,1.9,0.3,3.7,0.9,5.4c0.6,1.7,1.6,3.1,2.8,4.4c1.3,1.2,2.7,2.2,4.5,3
		c1.7,0.7,3.7,1.1,5.9,1.2c2.2,0,4.1-0.3,5.9-0.9c1.8-0.7,3.3-1.6,4.6-2.8c1.3-1.2,2.3-2.6,3-4.3
		C-1023.7,186.4-1023.3,184.6-1023.3,182.7z"/>
	<path id="XMLID_314_" class="st0" d="M-1005,125c-0.8,3.9-2.1,7.4-4,10.5c-1.9,3.1-4.3,5.6-7,7.6c-2.8,2-5.9,3.3-9.3,4.1
		c-3.4,0.7-7,0.7-10.8,0c-3.8-0.7-7.1-2.1-9.9-4.1c-2.9-2-5.2-4.4-7-7.3c-1.8-2.9-3-6.1-3.6-9.7c-0.6-3.6-0.5-7.3,0.3-11.2
		c0.9-4.6,2.5-8.5,4.8-11.8c2.3-3.3,5.2-5.8,8.7-7.6l6.3,10.5c-2.2,1.2-4,2.7-5.4,4.4c-1.4,1.7-2.3,3.7-2.8,6.1
		c-0.4,2-0.4,4-0.1,5.8c0.3,1.8,1,3.5,2,4.9c1,1.4,2.3,2.7,3.9,3.7c1.6,1,3.5,1.8,5.6,2.2c2.1,0.4,4.1,0.5,6,0.1
		c1.9-0.3,3.6-1,5-1.9c1.5-1,2.7-2.2,3.7-3.8c1-1.6,1.7-3.4,2.1-5.4c0.5-2.4,0.4-4.6-0.2-6.7c-0.6-2.1-1.7-4.1-3.3-6.1l9.8-7.3
		c2.5,3,4.2,6.4,5.1,10.4C-1004.1,116.2-1004.1,120.4-1005,125z"/>
	<path id="XMLID_316_" class="st0" d="M-999.4,99.1l-47.9-15.7l4.5-13.5l47.9,15.7L-999.4,99.1z"/>
	<path id="XMLID_318_" class="st0" d="M-995.3,82.6l-35.9-41.8l6-12.7l55.1,1.6l-6.4,13.4l-46.7-3l2.4-5.1l31.7,34.4L-995.3,82.6z
		 M-998.9,67.4l-7.9-7.8l10.6-22.2l11.1,1.2L-998.9,67.4z"/>
	<path id="XMLID_321_" class="st0" d="M-968.1,28.3l-41.5-28.6l8.1-11.7l32.2,22.1l13.6-19.8l9.3,6.4L-968.1,28.3z"/>
	<path id="XMLID_323_" class="st0" d="M-941.3-70.6l-3,10.2l-1.5-1.5l10.2-3l1.9,7.8l-9.8,2.4l0.3-1.2l6.9,6.6l-5.8,5.8l-6.6-6.9
		l1.2-0.3L-950-41l-7.8-2l3.1-10.2l1.5,1.5l-10.2,3l-2-7.8l9.8-2.4l-0.3,1.2l-7-6.7l5.8-5.8l6.7,7l-1.2,0.3l2.4-9.8L-941.3-70.6z"/>
	<path id="XMLID_325_" class="st0" d="M-893.2-56.6l-26.8-42.7l9.9-6.3l35.9,17.9l-5.2,3.3l-1.1-39.8l9.9-6.3l27,42.6l-11.1,7
		l-16.3-25.7l1.9-1.2l0.7,29.7l-5.4,3.4l-26.8-13.2l2.3-1.5l16.2,25.8L-893.2-56.6z"/>
	<path id="XMLID_327_" class="st0" d="M-842-88.6l2.8-55l13.1-5l38.9,39.1l-13.9,5.3l-31.8-34.3l5.2-2l-0.8,46.8L-842-88.6z
		 M-834.1-102.1l-0.3-11.1l23-8.8l7.2,8.5L-834.1-102.1z"/>
	<path id="XMLID_330_" class="st0" d="M-785.1-109.5l-9.6-49.5l22.6-4.4c4.5-0.9,8.6-0.9,12.1-0.1c3.6,0.8,6.5,2.4,8.8,4.8
		c2.3,2.4,3.9,5.5,4.6,9.3c0.7,3.7,0.5,7.1-0.8,10.2c-1.3,3.1-3.4,5.6-6.4,7.7c-3,2.1-6.8,3.6-11.3,4.4l-14.8,2.9l5.1-7.1l3.7,19
		L-785.1-109.5z M-774.5-129.8l-7.5-5.2l14-2.7c2.9-0.6,5-1.6,6.2-3.2c1.2-1.6,1.6-3.5,1.1-5.7c-0.4-2.3-1.5-4-3.2-5
		c-1.7-1-4-1.2-6.9-0.6l-14,2.7l5-7.6L-774.5-129.8z M-754.5-115.5l-15.8-15.6l14.9-2.9l15.9,15.6L-754.5-115.5z"/>
	<path id="XMLID_334_" class="st0" d="M-734.6-118.7l-1.3-50.4l14.1-0.4l1.3,50.4L-734.6-118.7z M-722.1-130.2l-1.2-16l21.1-23.8
		l15.7-0.4l-21,23.9l-7.7,8.5L-722.1-130.2z M-700.8-119.5l-16.9-20.4l9-10.2l24.5,30.1L-700.8-119.5z"/>
	<path id="XMLID_338_" class="st0" d="M-666.9-128.2l26.1,3.5l-1.5,10.9l-40.1-5.4l6.7-50l39.2,5.2l-1.5,10.9l-25.2-3.4
		L-666.9-128.2z M-665.3-148l23.2,3.1l-1.4,10.6l-23.2-3.1L-665.3-148z"/>
	<path id="XMLID_341_" class="st0" d="M-626-109.3l10.8-37.6l-14.9-4.3l3.1-10.9l43.4,12.5l-3.1,10.9l-14.8-4.3l-10.8,37.6
		L-626-109.3z"/>
	<path id="XMLID_343_" class="st0" d="M-594.2-99.7l21.3-45.7l20.9,9.7c4.2,1.9,7.5,4.3,9.9,7.1c2.4,2.8,3.8,5.8,4.3,9.1
		c0.5,3.3-0.1,6.7-1.7,10.2c-1.6,3.4-3.8,6-6.6,7.8c-2.8,1.8-6.1,2.6-9.7,2.6c-3.7,0-7.6-1-11.8-3l-13.7-6.4l8.4-2.9l-8.2,17.6
		L-594.2-99.7z M-573.7-109.9l-3-8.6l12.9,6c2.7,1.3,5,1.6,6.9,1.1c1.9-0.6,3.3-1.9,4.3-4c1-2.1,1.1-4.1,0.3-5.9
		c-0.8-1.8-2.5-3.3-5.2-4.6l-12.9-6l8.5-3.3L-573.7-109.9z"/>
	<path id="XMLID_346_" class="st0" d="M-548.8-77.6l27.9-42l11.9,7.9l-21.6,32.6l20,13.3l-6.2,9.4L-548.8-77.6z"/>
	<path id="XMLID_348_" class="st0" d="M-517.8-58l50.5-22l10.3,9.5l-17.7,52.2l-10.9-10l16.6-43.8l4.1,3.8l-42.2,20.2L-517.8-58z
		 M-502.3-56.9l9.8-5.3l18.1,16.7l-4.4,10.2L-502.3-56.9z"/>
	<path id="XMLID_351_" class="st0" d="M-459.6,3.7c-2.4-3.2-4.2-6.5-5.3-9.9s-1.4-6.9-1.1-10.3c0.3-3.4,1.4-6.6,3-9.7
		c1.7-3.1,4-5.8,7.1-8.1c3-2.4,6.2-4,9.6-4.8c3.4-0.9,6.8-1,10.1-0.5c3.4,0.5,6.6,1.7,9.7,3.6c3.1,1.9,5.8,4.4,8.3,7.6
		c2.9,3.7,4.8,7.5,5.7,11.4c1,3.9,1,7.8,0,11.6l-12-2.1c0.5-2.5,0.6-4.8,0.2-6.9c-0.4-2.2-1.3-4.2-2.8-6.1c-1.3-1.6-2.7-2.9-4.3-3.9
		c-1.6-1-3.3-1.5-5-1.7c-1.8-0.2-3.5,0-5.4,0.5c-1.8,0.5-3.6,1.5-5.3,2.8c-1.7,1.3-3.1,2.8-4,4.4c-1,1.6-1.6,3.3-1.9,5.1
		c-0.3,1.7-0.1,3.5,0.4,5.3c0.5,1.8,1.4,3.5,2.7,5.1c1.5,1.9,3.2,3.3,5.2,4.2s4.2,1.4,6.8,1.6l-0.9,12.2c-3.9-0.1-7.6-1.1-11.2-3
		C-453.6,10.1-456.8,7.3-459.6,3.7z"/>
	<path id="XMLID_353_" class="st0" d="M-427.1,31.3l12.6,23.1l-9.7,5.3l-19.4-35.5L-399.3,0l19,34.7L-390,40l-12.2-22.3L-427.1,31.3
		z M-410.1,20.9l11.2,20.5l-9.3,5.1L-419.5,26L-410.1,20.9z"/>
	<path id="XMLID_356_" class="st0" d="M-365.6,97.1l-7.7-7.4l2.1-0.7l-2,10.4l-7.9-1.9l2.3-9.8l0.9,0.8l-9.1,3.1l-2.5-7.8l9.2-2.7
		l-0.3,1.2l-7.6-6.7l5.3-6l7.6,7.4l-2.1,0.7l2-10.5l7.8,1.8l-2.4,9.8l-0.9-0.8l9.1-3.1l2.5,7.8l-9.3,2.7l0.3-1.2l7.6,6.6
		L-365.6,97.1z"/>
	<path id="XMLID_358_" class="st0" d="M-400.8,133.8l50.1-5.4l2.5,22.9c0.5,4.6,0.2,8.6-0.9,12.1c-1.1,3.5-3,6.3-5.6,8.4
		c-2.6,2.1-5.8,3.4-9.6,3.8c-3.8,0.4-7.1-0.1-10.1-1.7c-3-1.5-5.4-3.8-7.2-7c-1.9-3.2-3-7-3.5-11.6l-1.6-15l6.8,5.6l-19.3,2.1
		L-400.8,133.8z M-381.5,146.1l5.8-7l1.5,14.2c0.3,3,1.2,5.1,2.6,6.4c1.4,1.3,3.3,1.9,5.6,1.6c2.3-0.3,4.1-1.2,5.2-2.8
		c1.1-1.6,1.5-3.9,1.2-6.8l-1.5-14.2l7.2,5.6L-381.5,146.1z"/>
	<path id="XMLID_361_" class="st0" d="M-398.4,209.9c0.3-4,1.2-7.7,2.7-11c1.5-3.3,3.6-6.1,6.1-8.5c2.5-2.4,5.4-4.1,8.7-5.3
		c3.3-1.2,6.8-1.6,10.6-1.4c3.8,0.3,7.2,1.2,10.3,2.8c3.1,1.6,5.7,3.7,7.9,6.4s3.8,5.8,4.9,9.2c1.1,3.5,1.5,7.2,1.2,11.3
		c-0.3,4.1-1.2,7.7-2.7,11s-3.6,6.1-6.1,8.4c-2.5,2.3-5.4,4.1-8.7,5.3c-3.3,1.2-6.8,1.7-10.6,1.4c-3.8-0.3-7.2-1.2-10.3-2.8
		c-3.1-1.6-5.7-3.8-7.9-6.4c-2.2-2.7-3.8-5.7-4.9-9.2C-398.3,217.7-398.7,213.9-398.4,209.9z M-386.7,210.7
		c-0.1,1.9,0.1,3.7,0.6,5.4c0.6,1.7,1.4,3.2,2.6,4.5c1.2,1.3,2.6,2.4,4.4,3.2c1.7,0.8,3.7,1.3,5.8,1.4c2.2,0.2,4.2-0.1,6-0.6
		c1.8-0.6,3.4-1.4,4.7-2.6c1.4-1.1,2.4-2.5,3.2-4.1c0.8-1.6,1.2-3.4,1.4-5.3c0.1-1.9-0.1-3.7-0.6-5.4c-0.6-1.7-1.4-3.2-2.6-4.5
		c-1.2-1.3-2.6-2.4-4.3-3.2c-1.7-0.8-3.7-1.3-5.9-1.4c-2.2-0.1-4.1,0.1-6,0.6c-1.8,0.6-3.4,1.4-4.8,2.6c-1.4,1.1-2.4,2.5-3.2,4.1
		C-386.1,207-386.5,208.7-386.7,210.7z"/>
	<path id="XMLID_364_" class="st0" d="M-409,275.9l24.2-10.8l7.3,11.4l-35.6,15.4L-409,275.9z M-400.7,243.1l48.9,12.4l-3.5,13.7
		l-48.9-12.4L-400.7,243.1z M-393,258.2l15.7,3.2l17.2,26.7l-3.9,15.2l-17.4-26.7l-6.1-9.7L-393,258.2z"/>
	<path id="XMLID_368_" class="st0" d="M-409.9,310.9l-10.5,24.2l-10.1-4.4l16.1-37.1l46.2,20.1l-15.7,36.3l-10.1-4.4l10.1-23.3
		L-409.9,310.9z M-391.3,317.9l-9.3,21.5l-9.8-4.2l9.3-21.5L-391.3,317.9z"/>
	<path id="XMLID_371_" class="st0" d="M-433.1,336l42.2,27.6l-13,20c-3,4.7-6.6,8.2-10.6,10.6c-4,2.4-8.3,3.6-12.7,3.5
		c-4.4-0.1-8.8-1.5-13.2-4.3c-4.3-2.8-7.4-6.2-9.2-10.3c-1.9-4-2.5-8.4-1.9-13.1c0.6-4.7,2.4-9.3,5.4-14L-433.1,336z M-431.4,354.2
		l-4.9,7.5c-1.6,2.4-2.5,4.8-2.8,7.2c-0.3,2.4,0.2,4.6,1.2,6.8c1.1,2.1,2.8,4,5.3,5.6c2.5,1.6,4.9,2.5,7.3,2.6
		c2.4,0.1,4.6-0.4,6.7-1.6c2.1-1.2,3.9-3,5.5-5.4l4.9-7.5L-431.4,354.2z"/>
	<path id="XMLID_374_" class="st0" d="M-467,401.3l-17.9,19.3l-8.1-7.5l27.5-29.7l37,34.2l-26.8,29l-8.1-7.5l17.3-18.7L-467,401.3z
		 M-451.7,414.1l-15.9,17.2l-7.8-7.2l15.9-17.2L-451.7,414.1z"/>
	<path id="XMLID_377_" class="st0" d="M-493,413.9l1.7,37.7l-6.2-8l35.2,10.4l-12.6,10l-22.7-6.9l5.3-4.3l1.7,23.6l-12.1,9.5
		l-1.6-36.2l6.2,7.9L-535,447l12.9-10.2l23.5,7.6l-5.1,4.1l-2.1-24.5L-493,413.9z"/>
	<path id="XMLID_379_" class="st0" d="M-560.2,508.6l6-8.8l1,1.9l-10.6-0.3l0.6-8.1l10.1,0.7l-0.7,1.1l-4.5-8.4l7.3-3.7l4.1,8.6
		l-1.3-0.1l5.4-8.5l6.8,4.3l-6.1,8.7l-1-1.9l10.7,0.3l-0.5,8l-10.1-0.8l0.7-1.1l4.6,8.5l-7.3,3.7l-4.2-8.7l1.3,0.1l-5.3,8.6
		L-560.2,508.6z"/>
	<path id="XMLID_381_" class="st0" d="M-601.8,480l12.9,48.7l-23,6.1c-5.4,1.4-10.4,1.7-15,0.8c-4.6-0.9-8.5-2.9-11.8-5.9
		s-5.5-7-6.9-12c-1.3-5-1.3-9.6,0-13.8c1.3-4.3,3.8-7.9,7.3-11c3.6-3.1,8-5.3,13.4-6.7L-601.8,480z M-612.7,494.6l-8.7,2.3
		c-2.8,0.7-5.1,1.9-6.9,3.5c-1.8,1.6-3,3.5-3.6,5.9c-0.6,2.3-0.6,4.9,0.2,7.7c0.7,2.8,2,5.1,3.7,6.8c1.7,1.7,3.7,2.8,6,3.3
		c2.3,0.5,4.9,0.4,7.7-0.4l8.7-2.3L-612.7,494.6z"/>
	<path id="XMLID_384_" class="st0" d="M-682.8,494.7c4-0.3,7.8,0.1,11.3,1.2c3.5,1.1,6.6,2.7,9.3,4.9s4.8,4.8,6.4,7.9
		c1.6,3.1,2.5,6.5,2.8,10.3c0.3,3.8-0.2,7.3-1.4,10.6c-1.2,3.3-2.9,6.2-5.3,8.7c-2.3,2.5-5.2,4.6-8.5,6.1c-3.3,1.5-7,2.4-11,2.7
		c-4.1,0.3-7.8-0.1-11.3-1.2c-3.5-1.1-6.5-2.7-9.2-4.9c-2.7-2.2-4.8-4.8-6.4-7.9c-1.6-3.1-2.6-6.5-2.9-10.3
		c-0.3-3.8,0.2-7.3,1.4-10.6c1.2-3.3,2.9-6.2,5.3-8.7c2.3-2.5,5.1-4.5,8.4-6.1C-690.5,495.9-686.9,495-682.8,494.7z M-682,506.5
		c-1.9,0.1-3.7,0.6-5.3,1.4c-1.6,0.8-3,1.9-4.1,3.2c-1.1,1.4-2,2.9-2.6,4.8c-0.6,1.8-0.8,3.8-0.6,6c0.2,2.2,0.6,4.2,1.5,5.9
		c0.8,1.7,1.9,3.1,3.2,4.3c1.3,1.2,2.8,2.1,4.5,2.6c1.7,0.6,3.5,0.8,5.4,0.6c1.9-0.1,3.7-0.6,5.3-1.4c1.6-0.8,3-1.9,4.1-3.2
		c1.1-1.4,2-2.9,2.6-4.7c0.6-1.8,0.8-3.8,0.6-6c-0.2-2.2-0.6-4.1-1.5-5.8c-0.8-1.7-1.9-3.2-3.2-4.4c-1.3-1.2-2.8-2.1-4.5-2.6
		C-678.2,506.6-680,506.4-682,506.5z"/>
	<path id="XMLID_387_" class="st0" d="M-715.9,497.7l-6.5,50l-11.6-1.5l-16.3-36.7l6.1,0.8l-24.6,31.4l-11.6-1.5l6.4-50l13,1.7
		l-3.8,30.2l-2.2-0.3l18.4-23.3l6.3,0.8l12.2,27.3l-2.7-0.4l3.9-30.2L-715.9,497.7z"/>
	<path id="XMLID_389_" class="st0" d="M-803.2,479.3c7,2.4,11.9,6.2,14.5,11.4c2.6,5.2,2.8,11.4,0.4,18.4l-9,26.5l-13.5-4.6l8.8-26
		c1.4-4.1,1.6-7.3,0.6-9.6c-1-2.3-2.9-4-5.7-4.9c-2.8-1-5.3-0.8-7.5,0.4c-2.2,1.2-4,3.9-5.4,8l-8.8,26l-13.3-4.5l9-26.5
		c2.4-7.1,6.2-11.9,11.5-14.4C-816.4,477-810.2,476.9-803.2,479.3z"/>
	<path id="XMLID_391_" class="st0" d="M-848,460c3.6,1.9,6.9,4.3,9.8,7c2.9,2.7,5,5.3,6.4,7.9l-9.1,7.1c-1.3-2.3-3.1-4.6-5.2-6.8
		c-2.2-2.2-4.5-4-7.1-5.4c-1.7-0.9-3.2-1.5-4.4-1.8c-1.2-0.2-2.2-0.2-3,0c-0.8,0.3-1.3,0.8-1.7,1.5c-0.5,1-0.5,2.1,0.1,3.2
		c0.6,1.1,1.6,2.2,2.8,3.4c1.3,1.2,2.7,2.4,4.3,3.8c1.6,1.3,3.1,2.8,4.6,4.3c1.5,1.6,2.7,3.2,3.7,4.9c1,1.7,1.5,3.6,1.6,5.7
		c0.1,2-0.5,4.3-1.7,6.6c-1.4,2.7-3.4,4.7-6,6.1c-2.6,1.4-5.7,2-9.4,1.7c-3.6-0.2-7.6-1.5-12-3.8c-2.9-1.6-5.6-3.4-8.1-5.6
		c-2.5-2.2-4.5-4.5-6-6.9l8.8-7.3c1.5,2.3,3.2,4.2,4.9,5.9c1.8,1.7,3.6,3,5.6,4.1c1.7,0.9,3.2,1.5,4.5,1.7c1.3,0.2,2.3,0.1,3-0.2
		c0.8-0.3,1.4-0.9,1.8-1.7c0.5-1,0.5-2-0.1-3c-0.6-1.1-1.6-2.2-2.9-3.3c-1.3-1.2-2.8-2.4-4.4-3.7c-1.6-1.3-3.1-2.8-4.6-4.3
		c-1.5-1.5-2.7-3.2-3.7-4.9c-1-1.7-1.5-3.6-1.6-5.7c-0.1-2,0.5-4.2,1.7-6.5c1.4-2.6,3.4-4.6,6-6c2.6-1.4,5.7-2,9.3-1.8
		C-856.5,456.4-852.5,457.7-848,460z"/>
	<path id="XMLID_393_" class="st0" d="M-936.5,452.1l10.5,1.9l-1.4,1.7l-4.1-9.8l7.6-2.8l3.5,9.5l-1.2-0.2l5.8-7.6l6.4,5.1l-6.2,7.3
		l-0.4-1.2l10,1.4l-1.1,8l-10.5-1.9l1.4-1.7l4.1,9.9l-7.5,2.8l-3.4-9.5l1.2,0.2l-5.9,7.7l-6.4-5.1l6.2-7.4l0.4,1.2l-10-1.3
		L-936.5,452.1z"/>
</g>
<path id="XMLID_x5F_421_x5F_" style="fill:none;" d="M124.6-1116.3c0,170.1-137.9,307.9-307.9,307.9s-307.9-137.9-307.9-307.9
	s137.9-307.9,307.9-307.9S124.6-1286.4,124.6-1116.3z"/>
<text id="XMLID_297_"><textPath  xlink:href="#XMLID_x5F_421_x5F_" startOffset="1516.5527%">
<tspan  class="st0" style="font-family:'Montserrat-ExtraBold'; font-size:72px;">RED SOCIAL * MARKETPLACE * POKEDEX * DOMUS * </tspan></textPath>
</text>
<g id="XMLID_419_">
	<g id="XMLID_473_">
		<g id="XMLID_509_">
			<path id="XMLID_510_" class="st0" d="M110.8,233.2H14.4V60.3h96.4c13.6,0,26.2,3.9,38,11.6c11.8,7.7,21.1,18.2,28.1,31.5
				c7,13.3,10.5,27.7,10.5,43.3c0,11.7-2.1,22.9-6.2,33.6c-4.1,10.7-9.7,19.9-16.6,27.6c-6.9,7.7-15.1,13.9-24.5,18.4
				C130.7,231,120.9,233.2,110.8,233.2z M21.9,225.7h88.9c9.1,0,17.9-2.1,26.4-6.3c8.5-4.2,15.8-9.8,22-16.8
				c6.2-7,11.2-15.4,14.9-25.2c3.7-9.8,5.6-20,5.6-30.7c0-10.7-1.9-20.9-5.6-30.6c-3.7-9.7-8.7-18.2-14.9-25.2
				c-6.2-7.1-13.5-12.7-22-16.9c-8.5-4.2-17.3-6.3-26.4-6.3H21.9V225.7z M29.4,218.2V75.3h81.4c10.9,0,21,3.2,30.4,9.6
				c9.4,6.4,16.9,15.1,22.5,26.1c5.6,11,8.4,22.9,8.4,35.8c0,12.9-2.8,24.8-8.4,35.8c-5.6,11-13.1,19.7-22.5,26.1
				c-9.4,6.4-19.5,9.6-30.4,9.6H29.4z M36.9,210.7h73.8c9.5,0,18.4-2.9,26.6-8.6c8.2-5.7,14.7-13.5,19.6-23.3
				c4.9-9.8,7.3-20.5,7.3-32.1c0-11.5-2.4-22.2-7.3-32c-4.9-9.9-11.4-17.6-19.6-23.3c-8.2-5.7-17.1-8.6-26.5-8.6H36.9V210.7z
				 M44.4,203.2V90.4h66.3c8.1,0,15.7,2.5,22.8,7.5c7,5,12.6,11.9,16.8,20.5c4.1,8.7,6.2,18.1,6.2,28.4c0,10.2-2.1,19.6-6.2,28.3
				c-4.1,8.7-9.7,15.6-16.8,20.6c-7,5-14.6,7.5-22.8,7.5H44.4z M52,195.6h58.8c10.4,0,19.3-4.8,26.8-14.4
				c7.5-9.6,11.2-21.1,11.2-34.5c0-8.8-1.7-17-5.2-24.5c-3.4-7.5-8.1-13.5-13.9-17.8c-5.8-4.4-12.1-6.5-19-6.5H52V195.6z
				 M59.5,188.1v-82.7h51.3c8.3,0,15.4,4.1,21.4,12.2c6,8.1,8.9,17.8,8.9,29.2c0,11.4-3,21.2-8.9,29.2c-6,8.1-13.1,12.1-21.4,12.1
				H59.5z M67,180.6h43.8c6.2,0,11.5-3.3,15.9-9.9c4.4-6.6,6.6-14.6,6.6-23.9c0-9.4-2.2-17.4-6.6-24c-4.4-6.6-9.7-9.9-15.9-9.9H67
				V180.6z"/>
		</g>
		<g id="XMLID_499_">
			<path id="XMLID_500_" class="st0" d="M207.5,183.3c-5-11.6-7.5-23.8-7.5-36.5c0-12.7,2.5-24.9,7.5-36.5c5-11.6,11.7-21.6,20.1-30
				c8.4-8.4,18.4-15.1,30-20.1c11.6-5,23.8-7.5,36.5-7.5c12.7,0,24.9,2.5,36.5,7.5c11.6,5,21.6,11.7,30,20.1
				c8.4,8.4,15.1,18.4,20.1,30c5,11.6,7.5,23.8,7.5,36.5c0,12.7-2.5,24.9-7.5,36.5c-5,11.6-11.7,21.6-20.1,30
				c-8.4,8.4-18.4,15.1-30,20.1s-23.8,7.5-36.5,7.5c-12.7,0-24.9-2.5-36.5-7.5c-11.6-5-21.6-11.7-30-20.1
				C219.2,204.9,212.5,194.9,207.5,183.3z M214.4,113.2c-4.6,10.7-6.8,21.9-6.8,33.6s2.3,22.9,6.8,33.6
				c4.6,10.7,10.7,19.9,18.4,27.6c7.7,7.7,16.9,13.9,27.6,18.4c10.7,4.6,21.9,6.8,33.6,6.8c11.7,0,22.9-2.3,33.6-6.8
				c10.7-4.6,19.9-10.7,27.6-18.4c7.7-7.7,13.9-16.9,18.4-27.6c4.6-10.7,6.8-21.9,6.8-33.6s-2.3-22.9-6.8-33.6
				c-4.6-10.7-10.7-19.9-18.4-27.6c-7.7-7.7-16.9-13.9-27.6-18.4c-10.7-4.6-21.9-6.8-33.6-6.8c-11.7,0-22.9,2.3-33.6,6.8
				c-10.7,4.6-19.9,10.7-27.6,18.4C225.1,93.3,219,102.5,214.4,113.2z M225.7,186.3c-7.1-12.1-10.6-25.3-10.6-39.6
				c0-14.3,3.5-27.5,10.6-39.6c7.1-12.1,16.7-21.7,28.8-28.8c12.1-7.1,25.3-10.6,39.6-10.6c14.3,0,27.5,3.5,39.6,10.6
				c12.1,7.1,21.7,16.7,28.8,28.8c7.1,12.1,10.6,25.3,10.6,39.6c0,14.3-3.5,27.5-10.6,39.6c-7.1,12.1-16.7,21.7-28.8,28.8
				c-12.1,7.1-25.3,10.6-39.6,10.6c-14.3,0-27.5-3.5-39.6-10.6C242.3,208.1,232.7,198.5,225.7,186.3z M228.2,119
				c-3.8,8.8-5.6,18.1-5.6,27.8c0,9.7,1.9,18.9,5.6,27.8c3.8,8.8,8.8,16.4,15.2,22.8c6.4,6.4,14,11.4,22.8,15.2
				c8.8,3.8,18.1,5.6,27.8,5.6c9.7,0,18.9-1.9,27.8-5.6c8.8-3.8,16.4-8.8,22.8-15.2c6.4-6.4,11.4-14,15.2-22.8
				c3.8-8.8,5.6-18.1,5.6-27.8c0-9.7-1.9-18.9-5.6-27.8c-3.8-8.8-8.8-16.4-15.2-22.8c-6.4-6.4-14-11.4-22.8-15.2
				c-8.8-3.8-18.1-5.6-27.8-5.6c-9.7,0-18.9,1.9-27.8,5.6c-8.8,3.8-16.4,8.8-22.8,15.2C237.1,102.5,232,110.1,228.2,119z
				 M238.7,178.8c-5.7-9.8-8.6-20.5-8.6-32.1c0-11.6,2.9-22.2,8.6-32.1c5.7-9.8,13.5-17.6,23.3-23.3c9.8-5.7,20.5-8.6,32.1-8.6
				c11.6,0,22.2,2.9,32.1,8.6c9.8,5.7,17.6,13.5,23.3,23.3c5.7,9.8,8.6,20.5,8.6,32.1c0,11.6-2.9,22.2-8.6,32.1
				c-5.7,9.8-13.5,17.6-23.3,23.3c-9.8,5.7-20.5,8.6-32.1,8.6c-11.6,0-22.2-2.9-32.1-8.6C252.2,196.4,244.4,188.6,238.7,178.8z
				 M245.2,118.5c-5,8.6-7.6,18.1-7.6,28.3c0,10.2,2.5,19.7,7.6,28.3c5,8.6,11.9,15.5,20.5,20.5c8.6,5,18.1,7.6,28.3,7.6
				c10.2,0,19.7-2.5,28.3-7.6c8.6-5,15.5-11.9,20.5-20.5c5-8.6,7.6-18.1,7.6-28.3c0-10.2-2.5-19.7-7.6-28.3
				c-5-8.6-11.9-15.5-20.5-20.5c-8.6-5-18.1-7.6-28.3-7.6c-10.2,0-19.7,2.5-28.3,7.6C257.1,103,250.3,109.8,245.2,118.5z M249,165.7
				c-2.6-6-3.9-12.3-3.9-19c0-6.6,1.3-12.9,3.9-19c2.6-6,6.1-11.2,10.4-15.6c4.4-4.4,9.6-7.9,15.6-10.4c6-2.6,12.3-3.9,19-3.9
				c6.6,0,12.9,1.3,19,3.9c6,2.6,11.2,6.1,15.6,10.4c4.4,4.4,7.9,9.6,10.4,15.6c2.6,6,3.9,12.3,3.9,19c0,6.6-1.3,12.9-3.9,19
				c-2.6,6-6.1,11.2-10.4,15.6c-4.4,4.4-9.6,7.9-15.6,10.4c-6,2.6-12.3,3.9-19,3.9c-6.6,0-12.9-1.3-19-3.9
				c-6-2.6-11.2-6.1-15.6-10.4C255.1,176.9,251.6,171.7,249,165.7z M264.8,117.5c-8.1,8.1-12.1,17.8-12.1,29.2
				c0,11.4,4,21.2,12.1,29.2c8.1,8.1,17.8,12.1,29.2,12.1c11.4,0,21.2-4,29.2-12.1c8.1-8.1,12.1-17.8,12.1-29.2
				c0-11.4-4-21.2-12.1-29.2c-8.1-8.1-17.8-12.1-29.2-12.1C282.6,105.4,272.9,109.5,264.8,117.5z"/>
		</g>
		<g id="XMLID_486_">
			<path id="XMLID_487_" class="st0" d="M479.4,188.1h-8.5L411.1,74.6v158.6h-7.5V60.3h8.5L479.4,188.1z M418.6,99.6l7.5,14.3v119.4
				h-7.5V99.6z M496.4,188.1h-8.6L420.6,60.3h8.6L496.4,188.1z M433.7,128.2l7.5,14.2v90.9h-7.5V128.2z M573.2,74.6l-59.8,113.5
				h-8.6L437.6,60.3h8.5l63.1,119.9l63-119.9h8.6v172.9h-7.5V74.6z M448.7,156.8l7.5,14.2v62.2h-7.5V156.8z M499,150.2l-4.4-7.9
				l43.4-82h8.6L499,150.2z M507.7,166.6l-4.3-7.8l51.8-98.5h8.5L507.7,166.6z M528.1,170.2l7.5-14.2v77.3h-7.5V170.2z M543.1,141.3
				l7.5-14.2v106.1h-7.5V141.3z M558.1,112.9l7.5-14.3v134.6h-7.5V112.9z"/>
		</g>
		<g id="XMLID_480_">
			<path id="XMLID_481_" class="st0" d="M767.4,157.2V60.3h7.5v96.9c0,15-3.9,29-11.8,41.8c-7.9,12.8-18.5,23-32,30.5
				c-13.5,7.5-28.1,11.2-43.9,11.2c-15.8,0-30.4-3.7-43.9-11.2c-13.5-7.5-24.1-17.6-32-30.5c-7.9-12.8-11.8-26.8-11.8-41.8V60.3h7.5
				v96.9c0,10.2,2.1,20.1,6.4,29.4c4.2,9.4,10,17.5,17.1,24.3c7.2,6.8,15.7,12.2,25.6,16.2c9.9,4,20.3,6.1,31.1,6.1
				c10.8,0,21.1-2,31.1-6.1c9.9-4,18.5-9.5,25.6-16.2c7.2-6.8,12.9-14.9,17.1-24.3C765.3,177.3,767.4,167.4,767.4,157.2z
				 M752.4,157.2V60.3h7.5v96.9c0,9.3-1.9,18.1-5.8,26.6c-3.9,8.5-9,15.8-15.5,21.9c-6.5,6.1-14.2,11-23.2,14.6
				c-9,3.6-18.4,5.4-28.2,5.4c-9.8,0-19.2-1.8-28.2-5.4c-9-3.6-16.7-8.5-23.2-14.6c-6.5-6.1-11.6-13.4-15.5-21.9
				c-3.9-8.5-5.8-17.3-5.8-26.6V60.3h7.5v96.9c0,11,2.9,21.2,8.8,30.5c5.8,9.4,13.8,16.8,23.8,22.2c10,5.5,20.9,8.2,32.6,8.2
				c11.8,0,22.6-2.7,32.6-8.2c10-5.5,17.9-12.9,23.8-22.2C749.5,178.4,752.4,168.2,752.4,157.2z M737.3,157.2V60.3h7.5v96.9
				c0,7.2-1.5,14.1-4.6,20.7c-3.1,6.6-7.2,12.3-12.3,17.1c-5.2,4.8-11.3,8.6-18.4,11.4c-7.1,2.8-14.6,4.2-22.3,4.2
				c-7.8,0-15.2-1.4-22.3-4.2c-7.1-2.8-13.2-6.6-18.4-11.4c-5.2-4.8-9.3-10.5-12.3-17.1c-3.1-6.6-4.6-13.5-4.6-20.7V60.3h7.5v96.9
				c0,8.3,2.2,16,6.7,23c4.5,7.1,10.6,12.7,18.3,16.8c7.7,4.1,16.1,6.2,25.1,6.2c9,0,17.4-2.1,25.1-6.2c7.7-4.1,13.8-9.7,18.3-16.8
				C735.1,173.2,737.3,165.5,737.3,157.2z M722.3,157.2V60.3h7.5v96.9c0,10.6-4.2,19.6-12.5,27.2c-8.4,7.5-18.4,11.3-30.1,11.3
				c-11.7,0-21.7-3.8-30.1-11.3c-8.4-7.5-12.5-16.6-12.5-27.2V60.3h7.5v96.9c0,8.5,3.4,15.8,10.3,21.8c6.9,6.1,15.1,9.1,24.8,9.1
				c9.7,0,17.9-3,24.8-9.1C718.9,173,722.3,165.7,722.3,157.2z"/>
		</g>
		<g id="XMLID_474_">
			<path id="XMLID_475_" class="st0" d="M864,128h-12.6c-5.4,0-9.2-1.4-11.6-4.1c-2.4-2.7-3.6-6.4-3.6-10.9c0-10,7.5-15,22.5-15
				c14.1,0,24.6,2.1,31.7,6.3l-6.1,4.6c-4.9-2.2-13.4-3.3-25.7-3.3c-6,0-10,0.7-12.1,2c-2.1,1.3-3.1,3.2-3.1,5.5
				c0,2.4,0.6,4.2,1.7,5.5c1.1,1.3,3.2,2,6.2,2h12.9c9.4,0,17.9,1.6,25.4,4.8c7.6,3.2,13.8,7.6,18.6,13.1
				c4.9,5.5,8.6,11.9,11.2,19.1c2.6,7.2,3.9,14.9,3.9,23.1c0,6.7-0.9,13-2.8,19c-1.9,6-4.7,11.5-8.5,16.5c-3.8,5-8.4,9.3-13.7,13
				c-5.3,3.7-11.7,6.5-19,8.6c-7.3,2.1-15.3,3.1-23.9,3.1c-13.4,0-26-2-37.8-6.1c-11.7-4.1-21.5-9.8-29.3-17.1l6.1-4.5
				c7.1,6.4,16,11.4,26.7,14.9c10.7,3.5,22.1,5.3,34.3,5.3c9.5,0,18.2-1.4,25.8-4.1c7.7-2.7,14-6.5,19-11.3
				c5-4.8,8.8-10.4,11.5-16.7c2.7-6.3,4-13.2,4-20.5c0-9.7-1.9-18.4-5.8-26.3c-3.9-7.8-9.8-14.2-17.8-19.1
				C884.3,130.4,874.9,128,864,128z M851.4,165.6h11.5c5.4,0,9.2,1.4,11.6,4.2c2.4,2.8,3.6,6.4,3.6,10.9c0,10-7.5,15-22.5,15
				c-14.1,0-24.8-2.1-31.9-6.3l6.1-4.6c4.9,2.2,13.5,3.3,25.8,3.3c6,0,10-0.7,12.1-2c2.1-1.3,3.1-3.2,3.1-5.5c0-2.3-0.6-4.1-1.7-5.5
				c-1.1-1.4-3.3-2-6.3-2h-11.3c-9.6,0-18.3-1.6-26.1-4.7c-7.8-3.1-14.1-7.4-19.1-12.9c-5-5.5-8.8-11.9-11.4-19.1
				c-2.6-7.2-4-15-4-23.4c0-6.7,0.9-13,2.8-19c1.9-6,4.7-11.5,8.5-16.5c3.8-5,8.4-9.3,13.7-13c5.3-3.7,11.7-6.5,19-8.6
				c7.3-2.1,15.3-3.1,23.9-3.1c13.4,0,26,2,37.7,6.1c11.7,4.1,21.4,9.8,29.2,17.1l-6.1,4.5c-7.1-6.4-16-11.4-26.6-14.9
				c-10.7-3.5-22.1-5.3-34.3-5.3c-9.5,0-18.2,1.4-25.8,4.1c-7.7,2.8-14,6.5-19,11.3c-5,4.8-8.8,10.4-11.5,16.7
				c-2.7,6.3-4,13.2-4,20.5c0,9.8,2,18.7,6,26.5c4,7.9,10,14.2,18.2,19C830.6,163.2,840.2,165.6,851.4,165.6z M851.4,135.5h11.9
				c14.1,0,25.2,4.3,33.2,12.9c8,8.6,12,19.4,12,32.2c0,13-4.6,23.8-13.9,32.3c-9.3,8.5-22.2,12.8-39,12.8
				c-11.1,0-21.5-1.5-31.2-4.6c-9.7-3.1-17.7-7.4-24.1-12.9l5.8-4.7c5.7,4.7,12.9,8.3,21.6,10.9c8.7,2.6,18,3.9,27.9,3.9
				c14.7,0,25.9-3.5,33.7-10.5c7.8-7,11.6-16,11.6-27c0-10.9-3.3-19.8-9.8-26.9c-6.5-7.1-15.8-10.7-27.9-10.7h-11.8
				c-10.2,0-17.8-2.8-22.9-8.4c-5.1-5.6-7.6-12.8-7.6-21.7c0-8.9,3.1-16.2,9.5-21.7c6.3-5.6,15.8-8.4,28.4-8.4
				c8.8,0,17.1,1,24.6,3.1c7.6,2.1,13.9,5,18.8,8.8l-6,4.6c-8.7-6-21.2-9-37.5-9c-10.5,0-18.2,2.1-23,6.2c-4.8,4.1-7.3,9.6-7.3,16.3
				c0,6.8,1.8,12.3,5.4,16.4C837.4,133.4,843.2,135.5,851.4,135.5z M851.4,150.5h11.5c10.2,0,17.8,2.8,22.9,8.5
				c5.1,5.6,7.6,12.8,7.6,21.6c0,8.9-3.2,16.2-9.5,21.7c-6.3,5.6-15.8,8.4-28.4,8.4c-8.8,0-17.1-1-24.7-3.1
				c-7.6-2.1-13.9-5-18.8-8.8l6-4.6c8.7,6,21.2,9,37.6,9c10.5,0,18.2-2.1,23-6.2c4.8-4.1,7.3-9.6,7.3-16.3c0-6.8-1.8-12.2-5.4-16.3
				c-3.6-4.1-9.5-6.2-17.6-6.2h-11.4c-14.3,0-25.4-4.3-33.5-12.8c-8-8.5-12.1-19.3-12.1-32.3c0-13,4.6-23.8,13.9-32.3
				c9.3-8.5,22.2-12.8,39-12.8c11.1,0,21.5,1.5,31.2,4.6c9.6,3.1,17.7,7.4,24.1,12.9l-5.8,4.7c-5.7-4.7-12.9-8.3-21.5-10.9
				c-8.6-2.6-17.9-3.9-27.9-3.9c-14.7,0-25.9,3.5-33.7,10.5c-7.8,7-11.6,16-11.6,27c0,10.9,3.3,19.9,9.8,27
				C829.7,147,839.1,150.5,851.4,150.5z"/>
		</g>
	</g>
</g>
</svg>
