<?xml version="1.0" encoding="utf-8"?>
<!-- Generator: Adobe Illustrator 19.0.0, SVG Export Plug-In . SVG Version: 6.00 Build 0)  -->
<svg version="1.1" id="Layer_1" xmlns="http://www.w3.org/2000/svg" xmlns:xlink="http://www.w3.org/1999/xlink" x="0px" y="0px"
	 viewBox="0 0 960 216.5" style="enable-background:new 0 0 960 216.5;" xml:space="preserve">
<style type="text/css">
	.st0{fill:#2D3436;}
	.st1{fill:#1A1A1A;}
</style>
<g id="XMLID_1_">
	<g id="XMLID_64_">
		<g id="XMLID_96_">
			<path id="XMLID_231_" class="st0" d="M120.8,194.7H24.4V21.8h96.4c13.6,0,26.2,3.9,38,11.6c11.8,7.7,21.1,18.2,28.1,31.5
				c7,13.3,10.5,27.7,10.5,43.3c0,11.7-2.1,22.9-6.2,33.6c-4.1,10.7-9.7,19.9-16.6,27.6c-6.9,7.7-15.1,13.9-24.5,18.4
				C140.7,192.4,130.9,194.7,120.8,194.7z M31.9,187.2h88.9c9.1,0,17.9-2.1,26.4-6.3c8.5-4.2,15.8-9.8,22-16.8
				c6.2-7,11.2-15.4,14.9-25.2c3.7-9.8,5.6-20,5.6-30.7c0-10.7-1.9-20.9-5.6-30.6c-3.7-9.7-8.7-18.2-14.9-25.2
				c-6.2-7.1-13.5-12.7-22-16.9c-8.5-4.2-17.3-6.3-26.4-6.3H31.9V187.2z M39.4,179.7V36.8h81.4c10.9,0,21,3.2,30.4,9.6
				c9.4,6.4,16.9,15.1,22.5,26.1c5.6,11,8.4,22.9,8.4,35.8c0,12.9-2.8,24.8-8.4,35.8c-5.6,11-13.1,19.7-22.5,26.1
				c-9.4,6.4-19.5,9.6-30.4,9.6H39.4z M46.9,172.2h73.8c9.5,0,18.4-2.9,26.6-8.6c8.2-5.7,14.7-13.5,19.6-23.3
				c4.9-9.8,7.3-20.5,7.3-32.1c0-11.5-2.4-22.2-7.3-32c-4.9-9.9-11.4-17.6-19.6-23.3c-8.2-5.7-17.1-8.6-26.5-8.6H46.9V172.2z
				 M54.4,164.6V51.9h66.3c8.1,0,15.7,2.5,22.8,7.5c7,5,12.6,11.9,16.8,20.5c4.1,8.7,6.2,18.1,6.2,28.4c0,10.2-2.1,19.6-6.2,28.3
				c-4.1,8.7-9.7,15.6-16.8,20.6c-7,5-14.6,7.5-22.8,7.5H54.4z M62,157.1h58.8c10.4,0,19.3-4.8,26.8-14.4
				c7.5-9.6,11.2-21.1,11.2-34.5c0-8.8-1.7-17-5.2-24.5c-3.4-7.5-8.1-13.5-13.9-17.8c-5.8-4.4-12.1-6.5-19-6.5H62V157.1z
				 M69.5,149.6V66.9h51.3c8.3,0,15.4,4.1,21.4,12.2c6,8.1,8.9,17.8,8.9,29.2c0,11.4-3,21.2-8.9,29.2c-6,8.1-13.1,12.1-21.4,12.1
				H69.5z M77,142.1h43.8c6.2,0,11.5-3.3,15.9-9.9c4.4-6.6,6.6-14.6,6.6-23.9c0-9.4-2.2-17.4-6.6-24c-4.4-6.6-9.7-9.9-15.9-9.9H77
				V142.1z"/>
		</g>
		<g id="XMLID_87_">
			<path id="XMLID_221_" class="st0" d="M217.5,144.7c-5-11.6-7.5-23.8-7.5-36.5s2.5-24.9,7.5-36.5c5-11.6,11.7-21.6,20.1-30
				c8.4-8.4,18.4-15.1,30-20.1c11.6-5,23.8-7.5,36.5-7.5c12.7,0,24.9,2.5,36.5,7.5c11.6,5,21.6,11.7,30,20.1
				c8.4,8.4,15.1,18.4,20.1,30c5,11.6,7.5,23.8,7.5,36.5s-2.5,24.9-7.5,36.5c-5,11.6-11.7,21.6-20.1,30c-8.4,8.4-18.4,15.1-30,20.1
				s-23.8,7.5-36.5,7.5c-12.7,0-24.9-2.5-36.5-7.5s-21.6-11.7-30-20.1C229.2,166.3,222.5,156.3,217.5,144.7z M224.4,74.7
				c-4.6,10.7-6.8,21.9-6.8,33.6s2.3,22.9,6.8,33.6c4.6,10.7,10.7,19.9,18.4,27.6c7.7,7.7,16.9,13.9,27.6,18.4
				c10.7,4.6,21.9,6.8,33.6,6.8c11.7,0,22.9-2.3,33.6-6.8c10.7-4.6,19.9-10.7,27.6-18.4c7.7-7.7,13.9-16.9,18.4-27.6
				c4.6-10.7,6.8-21.9,6.8-33.6s-2.3-22.9-6.8-33.6C379.1,64,373,54.8,365.2,47.1c-7.7-7.7-16.9-13.9-27.6-18.4
				c-10.7-4.6-21.9-6.8-33.6-6.8c-11.7,0-22.9,2.3-33.6,6.8c-10.7,4.6-19.9,10.7-27.6,18.4C235.1,54.8,229,64,224.4,74.7z
				 M235.7,147.8c-7.1-12.1-10.6-25.3-10.6-39.6c0-14.3,3.5-27.5,10.6-39.6c7.1-12.1,16.7-21.7,28.8-28.8
				c12.1-7.1,25.3-10.6,39.6-10.6c14.3,0,27.5,3.5,39.6,10.6c12.1,7.1,21.7,16.7,28.8,28.8C379.4,80.8,383,94,383,108.3
				c0,14.3-3.5,27.5-10.6,39.6c-7.1,12.1-16.7,21.7-28.8,28.8c-12.1,7.1-25.3,10.6-39.6,10.6c-14.3,0-27.5-3.5-39.6-10.6
				C252.3,169.5,242.7,159.9,235.7,147.8z M238.2,80.5c-3.8,8.8-5.6,18.1-5.6,27.8c0,9.7,1.9,18.9,5.6,27.8
				c3.8,8.8,8.8,16.4,15.2,22.8c6.4,6.4,14,11.4,22.8,15.2c8.8,3.8,18.1,5.6,27.8,5.6c9.7,0,18.9-1.9,27.8-5.6
				c8.8-3.8,16.4-8.8,22.8-15.2c6.4-6.4,11.4-14,15.2-22.8c3.8-8.8,5.6-18.1,5.6-27.8c0-9.7-1.9-18.9-5.6-27.8
				c-3.8-8.8-8.8-16.4-15.2-22.8c-6.4-6.4-14-11.4-22.8-15.2c-8.8-3.8-18.1-5.6-27.8-5.6c-9.7,0-18.9,1.9-27.8,5.6
				c-8.8,3.8-16.4,8.8-22.8,15.2S242,71.6,238.2,80.5z M248.7,140.3c-5.7-9.8-8.6-20.5-8.6-32.1c0-11.6,2.9-22.2,8.6-32.1
				c5.7-9.8,13.5-17.6,23.3-23.3c9.8-5.7,20.5-8.6,32.1-8.6c11.6,0,22.2,2.9,32.1,8.6c9.8,5.7,17.6,13.5,23.3,23.3
				c5.7,9.8,8.6,20.5,8.6,32.1c0,11.6-2.9,22.2-8.6,32.1c-5.7,9.8-13.5,17.6-23.3,23.3c-9.8,5.7-20.5,8.6-32.1,8.6
				c-11.6,0-22.2-2.9-32.1-8.6C262.2,157.9,254.4,150.1,248.7,140.3z M255.2,79.9c-5,8.6-7.6,18.1-7.6,28.3
				c0,10.2,2.5,19.7,7.6,28.3c5,8.6,11.9,15.5,20.5,20.5c8.6,5,18.1,7.6,28.3,7.6c10.2,0,19.7-2.5,28.3-7.6
				c8.6-5,15.5-11.9,20.5-20.5c5-8.6,7.6-18.1,7.6-28.3c0-10.2-2.5-19.7-7.6-28.3c-5-8.6-11.9-15.5-20.5-20.5
				c-8.6-5-18.1-7.6-28.3-7.6c-10.2,0-19.7,2.5-28.3,7.6C267.1,64.5,260.3,71.3,255.2,79.9z M259,127.2c-2.6-6-3.9-12.3-3.9-19
				c0-6.6,1.3-12.9,3.9-19c2.6-6,6.1-11.2,10.4-15.6c4.4-4.4,9.6-7.9,15.6-10.4c6-2.6,12.3-3.9,19-3.9c6.6,0,12.9,1.3,19,3.9
				c6,2.6,11.2,6.1,15.6,10.4c4.4,4.4,7.9,9.6,10.4,15.6c2.6,6,3.9,12.3,3.9,19c0,6.6-1.3,12.9-3.9,19c-2.6,6-6.1,11.2-10.4,15.6
				c-4.4,4.4-9.6,7.9-15.6,10.4c-6,2.6-12.3,3.9-19,3.9c-6.6,0-12.9-1.3-19-3.9c-6-2.6-11.2-6.1-15.6-10.4
				C265.1,138.4,261.6,133.2,259,127.2z M274.8,79c-8.1,8.1-12.1,17.8-12.1,29.2c0,11.4,4,21.2,12.1,29.2
				c8.1,8.1,17.8,12.1,29.2,12.1c11.4,0,21.2-4,29.2-12.1c8.1-8.1,12.1-17.8,12.1-29.2c0-11.4-4-21.2-12.1-29.2
				c-8.1-8.1-17.8-12.1-29.2-12.1C292.6,66.9,282.9,70.9,274.8,79z"/>
		</g>
		<g id="XMLID_75_">
			<path id="XMLID_208_" class="st0" d="M489.4,149.6h-8.5L421.1,36.1v158.6h-7.5V21.8h8.5L489.4,149.6z M428.6,61l7.5,14.3v119.4
				h-7.5V61z M506.4,149.6h-8.6L430.6,21.8h8.6L506.4,149.6z M443.7,89.7l7.5,14.2v90.9h-7.5V89.7z M583.2,36.1l-59.8,113.5h-8.6
				L447.6,21.8h8.5l63.1,119.9l63-119.9h8.6v172.9h-7.5V36.1z M458.7,118.3l7.5,14.2v62.2h-7.5V118.3z M509,111.7l-4.4-7.9l43.4-82
				h8.6L509,111.7z M517.7,128.1l-4.3-7.8l51.8-98.5h8.5L517.7,128.1z M538.1,131.6l7.5-14.2v77.3h-7.5V131.6z M553.1,102.8
				l7.5-14.2v106.1h-7.5V102.8z M568.1,74.4l7.5-14.3v134.6h-7.5V74.4z"/>
		</g>
		<g id="XMLID_70_">
			<path id="XMLID_202_" class="st0" d="M777.4,118.7V21.8h7.5v96.9c0,15-3.9,29-11.8,41.8c-7.9,12.8-18.5,23-32,30.5
				c-13.5,7.5-28.1,11.2-43.9,11.2c-15.8,0-30.4-3.7-43.9-11.2c-13.5-7.5-24.1-17.6-32-30.5c-7.9-12.8-11.8-26.8-11.8-41.8V21.8h7.5
				v96.9c0,10.2,2.1,20.1,6.4,29.4c4.2,9.4,10,17.5,17.1,24.3c7.2,6.8,15.7,12.2,25.6,16.2c9.9,4,20.3,6.1,31.1,6.1
				c10.8,0,21.1-2,31.1-6.1c9.9-4,18.5-9.5,25.6-16.2c7.2-6.8,12.9-14.9,17.1-24.3C775.3,138.7,777.4,128.9,777.4,118.7z
				 M762.4,118.7V21.8h7.5v96.9c0,9.3-1.9,18.1-5.8,26.6c-3.9,8.5-9,15.8-15.5,21.9c-6.5,6.1-14.2,11-23.2,14.6
				c-9,3.6-18.4,5.4-28.2,5.4c-9.8,0-19.2-1.8-28.2-5.4c-9-3.6-16.7-8.5-23.2-14.6c-6.5-6.1-11.6-13.4-15.5-21.9
				c-3.9-8.5-5.8-17.3-5.8-26.6V21.8h7.5v96.9c0,11,2.9,21.2,8.8,30.5c5.8,9.4,13.8,16.8,23.8,22.2c10,5.5,20.9,8.2,32.6,8.2
				c11.8,0,22.6-2.7,32.6-8.2c10-5.5,17.9-12.9,23.8-22.2C759.5,139.9,762.4,129.7,762.4,118.7z M747.3,118.7V21.8h7.5v96.9
				c0,7.2-1.5,14.1-4.6,20.7c-3.1,6.6-7.2,12.3-12.3,17.1c-5.2,4.8-11.3,8.6-18.4,11.4c-7.1,2.8-14.6,4.2-22.3,4.2
				c-7.8,0-15.2-1.4-22.3-4.2c-7.1-2.8-13.2-6.6-18.4-11.4c-5.2-4.8-9.3-10.5-12.3-17.1c-3.1-6.6-4.6-13.5-4.6-20.7V21.8h7.5v96.9
				c0,8.3,2.2,16,6.7,23c4.5,7.1,10.6,12.7,18.3,16.8c7.7,4.1,16.1,6.2,25.1,6.2c9,0,17.4-2.1,25.1-6.2c7.7-4.1,13.8-9.7,18.3-16.8
				C745.1,134.7,747.3,127,747.3,118.7z M732.3,118.7V21.8h7.5v96.9c0,10.6-4.2,19.6-12.5,27.2c-8.4,7.5-18.4,11.3-30.1,11.3
				c-11.7,0-21.7-3.8-30.1-11.3c-8.4-7.5-12.5-16.6-12.5-27.2V21.8h7.5v96.9c0,8.5,3.4,15.8,10.3,21.8c6.9,6.1,15.1,9.1,24.8,9.1
				c9.7,0,17.9-3,24.8-9.1C728.9,134.5,732.3,127.2,732.3,118.7z"/>
		</g>
		<g id="XMLID_65_">
			<path id="XMLID_196_" class="st0" d="M874,89.5h-12.6c-5.4,0-9.2-1.4-11.6-4.1c-2.4-2.7-3.6-6.4-3.6-10.9c0-10,7.5-15,22.5-15
				c14.1,0,24.6,2.1,31.7,6.3l-6.1,4.6c-4.9-2.2-13.4-3.3-25.7-3.3c-6,0-10,0.7-12.1,2c-2.1,1.3-3.1,3.2-3.1,5.5
				c0,2.4,0.6,4.2,1.7,5.5c1.1,1.3,3.2,2,6.2,2h12.9c9.4,0,17.9,1.6,25.4,4.8c7.6,3.2,13.8,7.6,18.6,13.1
				c4.9,5.5,8.6,11.9,11.2,19.1c2.6,7.2,3.9,14.9,3.9,23.1c0,6.7-0.9,13-2.8,19c-1.9,6-4.7,11.5-8.5,16.5c-3.8,5-8.4,9.3-13.7,13
				c-5.3,3.7-11.7,6.5-19,8.6c-7.3,2.1-15.3,3.1-23.9,3.1c-13.4,0-26-2-37.8-6.1c-11.7-4.1-21.5-9.8-29.3-17.1l6.1-4.5
				c7.1,6.4,16,11.4,26.7,14.9c10.7,3.5,22.1,5.3,34.3,5.3c9.5,0,18.2-1.4,25.8-4.1c7.7-2.7,14-6.5,19-11.3
				c5-4.8,8.8-10.4,11.5-16.7c2.7-6.3,4-13.2,4-20.5c0-9.7-1.9-18.4-5.8-26.3c-3.9-7.8-9.8-14.2-17.8-19.1
				C894.3,91.9,884.9,89.5,874,89.5z M861.4,127h11.5c5.4,0,9.2,1.4,11.6,4.2c2.4,2.8,3.6,6.4,3.6,10.9c0,10-7.5,15-22.5,15
				c-14.1,0-24.8-2.1-31.9-6.3l6.1-4.6c4.9,2.2,13.5,3.3,25.8,3.3c6,0,10-0.7,12.1-2c2.1-1.3,3.1-3.2,3.1-5.5c0-2.3-0.6-4.1-1.7-5.5
				c-1.1-1.4-3.3-2-6.3-2h-11.3c-9.6,0-18.3-1.6-26.1-4.7c-7.8-3.1-14.1-7.4-19.1-12.9c-5-5.5-8.8-11.9-11.4-19.1
				c-2.6-7.2-4-15-4-23.4c0-6.7,0.9-13,2.8-19c1.9-6,4.7-11.5,8.5-16.5c3.8-5,8.4-9.3,13.7-13c5.3-3.7,11.7-6.5,19-8.6
				c7.3-2.1,15.3-3.1,23.9-3.1c13.4,0,26,2,37.7,6.1s21.4,9.8,29.2,17.1l-6.1,4.5c-7.1-6.4-16-11.4-26.6-14.9
				c-10.7-3.5-22.1-5.3-34.3-5.3c-9.5,0-18.2,1.4-25.8,4.1c-7.7,2.8-14,6.5-19,11.3c-5,4.8-8.8,10.4-11.5,16.7
				c-2.7,6.3-4,13.2-4,20.5c0,9.8,2,18.7,6,26.5c4,7.9,10,14.2,18.2,19C840.6,124.7,850.2,127,861.4,127z M861.4,97h11.9
				c14.1,0,25.2,4.3,33.2,12.9c8,8.6,12,19.4,12,32.2c0,13-4.6,23.8-13.9,32.3c-9.3,8.5-22.2,12.8-39,12.8
				c-11.1,0-21.5-1.5-31.2-4.6c-9.7-3.1-17.7-7.4-24.1-12.9l5.8-4.7c5.7,4.7,12.9,8.3,21.6,10.9c8.7,2.6,18,3.9,27.9,3.9
				c14.7,0,25.9-3.5,33.7-10.5c7.8-7,11.6-16,11.6-27c0-10.9-3.3-19.8-9.8-26.9c-6.5-7.1-15.8-10.7-27.9-10.7h-11.8
				c-10.2,0-17.8-2.8-22.9-8.4c-5.1-5.6-7.6-12.8-7.6-21.7c0-8.9,3.1-16.2,9.5-21.7c6.3-5.6,15.8-8.4,28.4-8.4
				c8.8,0,17.1,1,24.6,3.1c7.6,2.1,13.9,5,18.8,8.8l-6,4.6c-8.7-6-21.2-9-37.5-9c-10.5,0-18.2,2.1-23,6.2c-4.8,4.1-7.3,9.6-7.3,16.3
				c0,6.8,1.8,12.3,5.4,16.4C847.4,94.9,853.2,97,861.4,97z M861.4,112h11.5c10.2,0,17.8,2.8,22.9,8.5c5.1,5.6,7.6,12.8,7.6,21.6
				c0,8.9-3.2,16.2-9.5,21.7c-6.3,5.6-15.8,8.4-28.4,8.4c-8.8,0-17.1-1-24.7-3.1c-7.6-2.1-13.9-5-18.8-8.8l6-4.6
				c8.7,6,21.2,9,37.6,9c10.5,0,18.2-2.1,23-6.2c4.8-4.1,7.3-9.6,7.3-16.3c0-6.8-1.8-12.2-5.4-16.3c-3.6-4.1-9.5-6.2-17.6-6.2h-11.4
				c-14.3,0-25.4-4.3-33.5-12.8c-8-8.5-12.1-19.3-12.1-32.3c0-13,4.6-23.8,13.9-32.3c9.3-8.5,22.2-12.8,39-12.8
				c11.1,0,21.5,1.5,31.2,4.6c9.6,3.1,17.7,7.4,24.1,12.9l-5.8,4.7c-5.7-4.7-12.9-8.3-21.5-10.9c-8.6-2.6-17.9-3.9-27.9-3.9
				c-14.7,0-25.9,3.5-33.7,10.5c-7.8,7-11.6,16-11.6,27c0,10.9,3.3,19.9,9.8,27C839.7,108.5,849.1,112,861.4,112z"/>
		</g>
	</g>
</g>
<g id="XMLID_120_">
	<path id="XMLID_18_" class="st1" d="M-1118.3,633.6c0,2-1,3-3,3h-10.2c-1.9,0-2.9-1-2.9-3v-26.8c0-2,1-3,2.9-3h10.2c2,0,3,1,3,3
		v7.7h-4.9V608h-6.3v24.4h6.3v-6.9h4.9V633.6z"/>
	<path id="XMLID_20_" class="st1" d="M-1089.3,633.6c0,2-1,3-3,3h-10.6c-1.9,0-2.9-1-2.9-3v-26.8c0-2,1-3,2.9-3h10.6c2,0,3,1,3,3
		V633.6z M-1094.2,632.4V608h-6.7v24.4H-1094.2z"/>
	<path id="XMLID_23_" class="st1" d="M-1063.9,636.6h-12.9v-32.8h4.9v28.4h8V636.6z"/>
	<path id="XMLID_25_" class="st1" d="M-1038.9,636.6h-13.6v-32.8h13.5v4.3h-8.6v9.6h7.4v4.3h-7.4v10.3h8.7V636.6z"/>
	<path id="XMLID_27_" class="st1" d="M-1010.8,633.6c0,2-1,3-3,3h-10.2c-1.9,0-2.9-1-2.9-3v-26.8c0-2,1-3,2.9-3h10.2c2,0,3,1,3,3
		v7.7h-4.9V608h-6.3v24.4h6.3v-6.9h4.9V633.6z"/>
	<path id="XMLID_29_" class="st1" d="M-982.2,633.6c0,2-1,3-3,3h-10.2c-1.9,0-2.9-1-2.9-3v-26.8c0-2,1-3,2.9-3h10.2c2,0,3,1,3,3v7.7
		h-4.9V608h-6.3v24.4h6.3v-6.9h4.9V633.6z"/>
	<path id="XMLID_31_" class="st1" d="M-964.8,636.6h-4.9v-32.8h4.9V636.6z"/>
	<path id="XMLID_33_" class="st1" d="M-935.7,633.6c0,2-1,3-3,3h-10.6c-1.9,0-2.9-1-2.9-3v-26.8c0-2,1-3,2.9-3h10.6c2,0,3,1,3,3
		V633.6z M-940.6,632.4V608h-6.7v24.4H-940.6z"/>
	<path id="XMLID_36_" class="st1" d="M-906.6,636.6h-4.3l-7.9-20.6c0.2,1,0.3,1.8,0.3,2.4v18.3h-4.8v-32.8h4.3l7.9,20.2
		c-0.2-1-0.3-1.8-0.3-2.4v-17.8h4.8V636.6z"/>
	<path id="XMLID_38_" class="st1" d="M-877.5,636.6h-4.9l-1-6.2h-6.1l-1,6.2h-4.8v-0.1l6.3-32.7h5.2L-877.5,636.6z M-884,626.1
		l-2.4-14.8l-2.4,14.8H-884z"/>
	<path id="XMLID_41_" class="st1" d="M-839.1,626.1h-10v-4.4h10V626.1z"/>
	<path id="XMLID_43_" class="st1" d="M-793.4,633.6c0,2-1,3-3,3h-10.2c-1.9,0-2.9-1-2.9-3v-26.8c0-2,1-3,2.9-3h10.2c2,0,3,1,3,3v7.7
		h-4.9V608h-6.3v24.4h6.3v-6.9h4.9V633.6z"/>
	<path id="XMLID_45_" class="st1" d="M-764.4,633.6c0,2-1,3-3,3h-10.6c-1.9,0-2.9-1-2.9-3v-26.8c0-2,1-3,2.9-3h10.6c2,0,3,1,3,3
		V633.6z M-769.3,632.4V608h-6.7v24.4H-769.3z"/>
	<path id="XMLID_48_" class="st1" d="M-735.3,636.6h-4.3l-7.9-20.6c0.2,1,0.3,1.8,0.3,2.4v18.3h-4.8v-32.8h4.3l7.9,20.2
		c-0.2-1-0.3-1.8-0.3-2.4v-17.8h4.8V636.6z"/>
	<path id="XMLID_50_" class="st1" d="M-706.3,633.6c0,2-1,3-3,3h-10.6c-1.9,0-2.9-1-2.9-3v-26.8c0-2,1-3,2.9-3h10.6c2,0,3,1,3,3
		V633.6z M-711.2,632.4V608h-6.7v24.4H-711.2z"/>
	<path id="XMLID_53_" class="st1" d="M-677.6,633.6c0,2-1,3-3,3h-10.2c-1.9,0-2.9-1-2.9-3v-26.8c0-2,1-3,2.9-3h10.2c2,0,3,1,3,3v7.7
		h-4.9V608h-6.3v24.4h6.3v-6.9h4.9V633.6z"/>
	<path id="XMLID_55_" class="st1" d="M-651.6,636.6h-13.6v-32.8h13.5v4.3h-8.6v9.6h7.4v4.3h-7.4v10.3h8.7V636.6z"/>
	<path id="XMLID_57_" class="st1" d="M-612.7,626.1h-10v-4.4h10V626.1z"/>
	<path id="XMLID_60_" class="st1" d="M-566.8,603.8l-6.3,32.8h-4.9l-6.3-32.8h4.9l3.7,22.5c0,0.6,0.1,1.6,0.1,2.8
		c0-0.6,0-1.6,0.1-2.8l3.7-22.5H-566.8z"/>
	<path id="XMLID_62_" class="st1" d="M-541.8,636.6h-13.6v-32.8h13.5v4.3h-8.6v9.6h7.4v4.3h-7.4v10.3h8.7V636.6z"/>
	<path id="XMLID_105_" class="st1" d="M-513.3,636.6h-4.3l-7.9-20.6c0.2,1,0.3,1.8,0.3,2.4v18.3h-4.8v-32.8h4.3l7.9,20.2
		c-0.2-1-0.3-1.8-0.3-2.4v-17.8h4.8V636.6z"/>
	<path id="XMLID_107_" class="st1" d="M-484.4,630.4c0,1.9-0.6,3.4-1.7,4.5c-1.1,1.1-2.7,1.6-4.6,1.6h-10v-32.8h10
		c1.9,0,3.5,0.6,4.6,1.7c1.1,1.1,1.7,2.6,1.7,4.6V630.4z M-489.4,629.6v-18.8c0-1.8-1-2.7-2.9-2.7h-3.6v24.4h3.5
		C-490.4,632.4-489.4,631.4-489.4,629.6z"/>
	<path id="XMLID_110_" class="st1" d="M-458.5,636.6h-13.6v-32.8h13.5v4.3h-8.6v9.6h7.4v4.3h-7.4v10.3h8.7V636.6z"/>
</g>
<g id="XMLID_136_">
	<g id="XMLID_128_">
		<path id="XMLID_129_" class="st0" d="M-982.1,13.9h-91.5v-158.6h91.5c14,0,27,3.5,39.1,10.6c12.1,7.1,21.7,16.7,28.9,28.9
			c7.2,12.2,10.7,25.4,10.7,39.6c0,10.8-2.1,21.1-6.3,31c-4.2,9.8-9.9,18.3-17,25.4c-7.1,7.1-15.5,12.7-25.2,16.9
			C-961.6,11.8-971.7,13.9-982.1,13.9z M-1065.7,5.9h83.6c12.6,0,24.2-3.2,35-9.5c10.8-6.4,19.4-15,25.8-26.1c6.4-11,9.6-23,9.6-36
			c0-12.8-3.2-24.7-9.6-35.6c-6.4-11-15.1-19.6-25.9-26c-10.8-6.4-22.5-9.5-35-9.5h-83.6V5.9z M-1057.8-2v-126.9h75.7
			c11.1,0,21.4,2.8,31,8.5c9.6,5.7,17.2,13.3,22.9,23.1c5.7,9.7,8.5,20.3,8.5,31.7c0,11.5-2.8,22.2-8.5,32
			c-5.7,9.8-13.3,17.5-22.9,23.2c-9.6,5.7-19.9,8.5-31,8.5H-1057.8z M-1049.9-9.9h67.7c9.7,0,18.7-2.5,27-7.4
			c8.3-4.9,14.9-11.7,19.8-20.3c4.9-8.6,7.4-18,7.4-28.1c0-9.9-2.5-19.1-7.4-27.7c-4.9-8.5-11.5-15.3-19.9-20.2
			c-8.3-5-17.3-7.4-26.9-7.4h-67.7V-9.9z M-1041.9-17.9v-95.2h59.8c12.6,0,23.4,4.6,32.4,13.9c9.1,9.3,13.6,20.4,13.6,33.4
			c0,13.3-4.5,24.6-13.5,33.9c-9,9.3-19.9,13.9-32.5,13.9H-1041.9z M-1034-25.8h51.9c10.4,0,19.4-3.9,26.8-11.6
			c7.4-7.7,11.1-17.2,11.1-28.3c0-10.9-3.7-20.2-11.2-27.9c-7.5-7.7-16.4-11.6-26.7-11.6h-51.9V-25.8z M-1026.1-33.7v-63.5h44
			c8.2,0,15.1,3.1,21,9.3s8.8,13.6,8.8,22.3c0,9-2.9,16.5-8.7,22.7c-5.8,6.2-12.8,9.3-21,9.3H-1026.1z M-1018.1-41.7h36
			c5.9,0,11-2.3,15.3-6.9c4.2-4.6,6.3-10.3,6.3-17.1c0-6.5-2.1-12-6.3-16.6c-4.2-4.6-9.3-6.9-15.3-6.9h-36V-41.7z"/>
	</g>
	<g id="XMLID_122_">
		<path id="XMLID_123_" class="st0" d="M-739.5-119.9l-6.4,4.7c-7.4-9.2-16.5-16.4-27.3-21.7c-10.8-5.3-22.3-7.9-34.5-7.9
			c-10.7,0-21,2.1-30.8,6.3c-9.8,4.2-18.3,9.8-25.3,16.9c-7.1,7.1-12.7,15.5-16.9,25.3c-4.2,9.8-6.3,20.1-6.3,30.8
			c0,10.7,2.1,21,6.3,30.8c4.2,9.8,9.8,18.3,16.9,25.3c7.1,7.1,15.5,12.7,25.3,16.9c9.8,4.2,20.1,6.3,30.8,6.3
			c12.3,0,23.8-2.6,34.5-7.9c10.8-5.3,19.8-12.5,27.3-21.7l6.3,4.8c-8.2,10.1-18.2,18.1-30,24c-11.9,5.8-24.5,8.8-38.1,8.8
			c-11.8,0-23.1-2.3-33.9-6.9c-10.8-4.6-20-10.8-27.8-18.6c-7.8-7.8-14-17.1-18.6-27.8c-4.6-10.8-6.9-22-6.9-33.9
			c0-11.8,2.3-23.1,6.9-33.9c4.6-10.8,10.8-20,18.6-27.8c7.8-7.8,17.1-14,27.8-18.6c10.8-4.6,22-6.9,33.9-6.9
			c13.5,0,26.2,2.9,38.1,8.8C-757.7-138.1-747.7-130.1-739.5-119.9z M-751.9-110l-6.2,5c-5.9-7.4-13.3-13.3-21.9-17.5
			c-8.7-4.3-17.9-6.4-27.8-6.4c-8.6,0-16.8,1.7-24.6,5c-7.8,3.3-14.6,7.9-20.3,13.6c-5.7,5.7-10.2,12.4-13.5,20.3
			c-3.3,7.8-5,16-5,24.6c0,8.6,1.7,16.8,5,24.6c3.3,7.8,7.9,14.6,13.5,20.3c5.7,5.7,12.4,10.2,20.3,13.5c7.8,3.3,16,5,24.6,5
			c9.8,0,19.1-2.1,27.8-6.4c8.7-4.3,16-10.1,21.9-17.5l5.9,5.2c-6.7,8.3-14.9,14.8-24.6,19.6c-9.7,4.7-20,7.1-31.1,7.1
			c-9.7,0-18.9-1.9-27.8-5.7c-8.8-3.8-16.4-8.8-22.7-15.2c-6.4-6.4-11.4-13.9-15.2-22.7c-3.8-8.8-5.7-18.1-5.7-27.8
			c0-9.7,1.9-18.9,5.7-27.8s8.9-16.4,15.2-22.7c6.4-6.4,13.9-11.4,22.7-15.2c8.8-3.8,18.1-5.7,27.8-5.7c11.1,0,21.5,2.4,31.2,7.2
			C-766.8-124.9-758.5-118.3-751.9-110z M-764.3-100.1l-6.3,4.8c-4.4-5.6-9.9-9.9-16.4-13.1c-6.5-3.2-13.4-4.7-20.8-4.7
			c-13.1,0-24.4,4.7-33.7,14c-9.3,9.3-13.9,20.5-13.9,33.6c0,13.1,4.6,24.3,13.9,33.6c9.3,9.3,20.5,14,33.7,14
			c7.3,0,14.3-1.6,20.8-4.8c6.5-3.2,12-7.6,16.4-13.2l6.1,5.1c-5.1,6.5-11.5,11.5-19.1,15.3c-7.6,3.7-15.6,5.6-24.2,5.6
			c-10.1,0-19.4-2.5-27.9-7.4s-15.3-11.7-20.2-20.2c-5-8.5-7.4-17.8-7.4-27.9c0-10.1,2.5-19.4,7.4-27.9c5-8.5,11.7-15.3,20.2-20.2
			c8.5-5,17.8-7.4,27.9-7.4c8.6,0,16.7,1.9,24.3,5.6C-775.8-111.7-769.5-106.6-764.3-100.1z M-776.7-90.1l-6.4,4.8
			c-6.4-7.9-14.6-11.9-24.7-11.9c-8.7,0-16.2,3.1-22.4,9.3c-6.2,6.2-9.3,13.7-9.3,22.4c0,8.7,3.1,16.2,9.3,22.4
			c6.2,6.2,13.7,9.3,22.4,9.3c4.9,0,9.5-1.1,13.8-3.2c4.3-2.1,7.9-5.1,11-8.8l6.2,5.2c-3.7,4.6-8.2,8.2-13.7,10.9
			c-5.4,2.6-11.2,3.9-17.3,3.9c-10.9,0-20.3-3.9-28-11.6c-7.7-7.7-11.6-17.1-11.6-28c0-10.9,3.9-20.3,11.6-28
			c7.7-7.7,17.1-11.6,28-11.6c6.2,0,12,1.3,17.4,4C-784.9-98.4-780.3-94.8-776.7-90.1z"/>
	</g>
</g>
</svg>
