<?xml version="1.0" encoding="utf-8"?>
<!-- Generator: Adobe Illustrator 19.0.0, SVG Export Plug-In . SVG Version: 6.00 Build 0)  -->
<svg version="1.1" id="Layer_1" xmlns="http://www.w3.org/2000/svg" xmlns:xlink="http://www.w3.org/1999/xlink" x="0px" y="0px"
	 viewBox="0 0 750 792" style="enable-background:new 0 0 750 792;" xml:space="preserve">
<style type="text/css">
	.st0{fill:#2D3436;}
	.st1{fill:#1A1A1A;}
</style>
<g id="XMLID_1_">
	<g id="XMLID_64_">
		<g id="XMLID_96_">
			<path id="XMLID_231_" class="st0" d="M1271.5,1061.6h-96.4V888.6h96.4c13.6,0,26.2,3.9,38,11.6c11.8,7.7,21.1,18.2,28.1,31.5
				c7,13.3,10.5,27.7,10.5,43.3c0,11.7-2.1,22.9-6.2,33.6c-4.1,10.7-9.7,19.9-16.6,27.6c-6.9,7.7-15.1,13.9-24.5,18.4
				C1291.5,1059.3,1281.7,1061.6,1271.5,1061.6z M1182.7,1054.1h88.9c9.1,0,17.9-2.1,26.4-6.3c8.5-4.2,15.8-9.8,22-16.8
				c6.2-7,11.2-15.4,14.9-25.2c3.7-9.8,5.6-20,5.6-30.7c0-10.7-1.9-20.9-5.6-30.6c-3.7-9.7-8.7-18.2-14.9-25.2
				c-6.2-7.1-13.5-12.7-22-16.9c-8.5-4.2-17.3-6.3-26.4-6.3h-88.9V1054.1z M1190.2,1046.5V903.7h81.4c10.9,0,21,3.2,30.4,9.6
				c9.4,6.4,16.9,15.1,22.5,26.1c5.6,11,8.4,22.9,8.4,35.8c0,12.9-2.8,24.8-8.4,35.8c-5.6,11-13.1,19.7-22.5,26.1
				c-9.4,6.4-19.5,9.6-30.4,9.6H1190.2z M1197.7,1039h73.8c9.5,0,18.4-2.9,26.6-8.6c8.2-5.7,14.7-13.5,19.6-23.3
				c4.9-9.8,7.3-20.5,7.3-32.1c0-11.5-2.4-22.2-7.3-32c-4.9-9.9-11.4-17.6-19.6-23.3c-8.2-5.7-17.1-8.6-26.5-8.6h-73.8V1039z
				 M1205.2,1031.5V918.7h66.3c8.1,0,15.7,2.5,22.8,7.5c7,5,12.6,11.9,16.8,20.5c4.1,8.7,6.2,18.1,6.2,28.4
				c0,10.2-2.1,19.6-6.2,28.3c-4.1,8.7-9.7,15.6-16.8,20.6c-7,5-14.6,7.5-22.8,7.5H1205.2z M1212.7,1024h58.8
				c10.4,0,19.3-4.8,26.8-14.4c7.5-9.6,11.2-21.1,11.2-34.5c0-8.8-1.7-17-5.2-24.5c-3.4-7.5-8.1-13.5-13.9-17.8
				c-5.8-4.4-12.1-6.5-19-6.5h-58.8V1024z M1220.3,1016.5v-82.7h51.3c8.3,0,15.4,4.1,21.4,12.2c6,8.1,8.9,17.8,8.9,29.2
				c0,11.4-3,21.2-8.9,29.2c-6,8.1-13.1,12.1-21.4,12.1H1220.3z M1227.8,1008.9h43.8c6.2,0,11.5-3.3,15.9-9.9
				c4.4-6.6,6.6-14.6,6.6-23.9c0-9.4-2.2-17.4-6.6-24c-4.4-6.6-9.7-9.9-15.9-9.9h-43.8V1008.9z"/>
		</g>
		<g id="XMLID_87_">
			<path id="XMLID_221_" class="st0" d="M1368.3,1011.6c-5-11.6-7.5-23.8-7.5-36.5c0-12.7,2.5-24.9,7.5-36.5
				c5-11.6,11.7-21.6,20.1-30c8.4-8.4,18.4-15.1,30-20.1c11.6-5,23.8-7.5,36.5-7.5c12.7,0,24.9,2.5,36.5,7.5
				c11.6,5,21.6,11.7,30,20.1c8.4,8.4,15.1,18.4,20.1,30c5,11.6,7.5,23.8,7.5,36.5c0,12.7-2.5,24.9-7.5,36.5
				c-5,11.6-11.7,21.6-20.1,30c-8.4,8.4-18.4,15.1-30,20.1s-23.8,7.5-36.5,7.5c-12.7,0-24.9-2.5-36.5-7.5s-21.6-11.7-30-20.1
				C1380,1033.2,1373.3,1023.2,1368.3,1011.6z M1375.2,941.5c-4.6,10.7-6.8,21.9-6.8,33.6s2.3,22.9,6.8,33.6
				c4.6,10.7,10.7,19.9,18.4,27.6c7.7,7.7,16.9,13.9,27.6,18.4c10.7,4.6,21.9,6.8,33.6,6.8c11.7,0,22.9-2.3,33.6-6.8
				c10.7-4.6,19.9-10.7,27.6-18.4c7.7-7.7,13.9-16.9,18.4-27.6c4.6-10.7,6.8-21.9,6.8-33.6s-2.3-22.9-6.8-33.6
				c-4.6-10.7-10.7-19.9-18.4-27.6c-7.7-7.7-16.9-13.9-27.6-18.4c-10.7-4.6-21.9-6.8-33.6-6.8c-11.7,0-22.9,2.3-33.6,6.8
				c-10.7,4.6-19.9,10.7-27.6,18.4C1385.9,921.6,1379.7,930.8,1375.2,941.5z M1386.5,1014.7c-7.1-12.1-10.6-25.3-10.6-39.6
				c0-14.3,3.5-27.5,10.6-39.6c7.1-12.1,16.7-21.7,28.8-28.8c12.1-7.1,25.3-10.6,39.6-10.6c14.3,0,27.5,3.5,39.6,10.6
				c12.1,7.1,21.7,16.7,28.8,28.8c7.1,12.1,10.6,25.3,10.6,39.6c0,14.3-3.5,27.5-10.6,39.6c-7.1,12.1-16.7,21.7-28.8,28.8
				c-12.1,7.1-25.3,10.6-39.6,10.6c-14.3,0-27.5-3.5-39.6-10.6C1403.1,1036.4,1393.5,1026.8,1386.5,1014.7z M1389,947.3
				c-3.8,8.8-5.6,18.1-5.6,27.8c0,9.7,1.9,18.9,5.6,27.8c3.8,8.8,8.8,16.4,15.2,22.8c6.4,6.4,14,11.4,22.8,15.2
				c8.8,3.8,18.1,5.6,27.8,5.6c9.7,0,18.9-1.9,27.8-5.6c8.8-3.8,16.4-8.8,22.8-15.2c6.4-6.4,11.4-14,15.2-22.8
				c3.8-8.8,5.6-18.1,5.6-27.8c0-9.7-1.9-18.9-5.6-27.8c-3.8-8.8-8.8-16.4-15.2-22.8c-6.4-6.4-14-11.4-22.8-15.2
				c-8.8-3.8-18.1-5.6-27.8-5.6c-9.7,0-18.9,1.9-27.8,5.6c-8.8,3.8-16.4,8.8-22.8,15.2S1392.8,938.5,1389,947.3z M1399.5,1007.2
				c-5.7-9.8-8.6-20.5-8.6-32.1c0-11.6,2.9-22.2,8.6-32.1c5.7-9.8,13.5-17.6,23.3-23.3c9.8-5.7,20.5-8.6,32.1-8.6
				c11.6,0,22.2,2.9,32.1,8.6c9.8,5.7,17.6,13.5,23.3,23.3c5.7,9.8,8.6,20.5,8.6,32.1c0,11.6-2.9,22.2-8.6,32.1
				c-5.7,9.8-13.5,17.6-23.3,23.3c-9.8,5.7-20.5,8.6-32.1,8.6c-11.6,0-22.2-2.9-32.1-8.6C1412.9,1024.7,1405.2,1017,1399.5,1007.2z
				 M1406,946.8c-5,8.6-7.6,18.1-7.6,28.3c0,10.2,2.5,19.7,7.6,28.3c5,8.6,11.9,15.5,20.5,20.5c8.6,5,18.1,7.6,28.3,7.6
				c10.2,0,19.7-2.5,28.3-7.6c8.6-5,15.5-11.9,20.5-20.5c5-8.6,7.6-18.1,7.6-28.3c0-10.2-2.5-19.7-7.6-28.3
				c-5-8.6-11.9-15.5-20.5-20.5c-8.6-5-18.1-7.6-28.3-7.6c-10.2,0-19.7,2.5-28.3,7.6C1417.9,931.3,1411,938.2,1406,946.8z
				 M1409.8,994.1c-2.6-6-3.9-12.3-3.9-19c0-6.6,1.3-12.9,3.9-19c2.6-6,6.1-11.2,10.4-15.6c4.4-4.4,9.6-7.9,15.6-10.4
				c6-2.6,12.3-3.9,19-3.9c6.6,0,12.9,1.3,19,3.9c6,2.6,11.2,6.1,15.6,10.4c4.4,4.4,7.9,9.6,10.4,15.6c2.6,6,3.9,12.3,3.9,19
				c0,6.6-1.3,12.9-3.9,19c-2.6,6-6.1,11.2-10.4,15.6c-4.4,4.4-9.6,7.9-15.6,10.4c-6,2.6-12.3,3.9-19,3.9c-6.6,0-12.9-1.3-19-3.9
				c-6-2.6-11.2-6.1-15.6-10.4C1415.9,1005.3,1412.4,1000.1,1409.8,994.1z M1425.6,945.9c-8.1,8.1-12.1,17.8-12.1,29.2
				c0,11.4,4,21.2,12.1,29.2c8.1,8.1,17.8,12.1,29.2,12.1c11.4,0,21.2-4,29.2-12.1c8.1-8.1,12.1-17.8,12.1-29.2
				c0-11.4-4-21.2-12.1-29.2c-8.1-8.1-17.8-12.1-29.2-12.1C1443.4,933.8,1433.7,937.8,1425.6,945.9z"/>
		</g>
		<g id="XMLID_75_">
			<path id="XMLID_208_" class="st0" d="M1640.2,1016.5h-8.5l-59.8-113.5v158.6h-7.5V888.6h8.5L1640.2,1016.5z M1579.4,927.9
				l7.5,14.3v119.4h-7.5V927.9z M1657.2,1016.5h-8.6l-67.3-127.8h8.6L1657.2,1016.5z M1594.4,956.5l7.5,14.2v90.9h-7.5V956.5z
				 M1734,902.9l-59.8,113.5h-8.6l-67.1-127.8h8.5l63.1,119.9l63-119.9h8.6v172.9h-7.5V902.9z M1609.5,985.1l7.5,14.2v62.2h-7.5
				V985.1z M1659.8,978.6l-4.4-7.9l43.4-82h8.6L1659.8,978.6z M1668.5,994.9l-4.3-7.8l51.8-98.5h8.5L1668.5,994.9z M1688.8,998.5
				l7.5-14.2v77.3h-7.5V998.5z M1703.9,969.7l7.5-14.2v106.1h-7.5V969.7z M1718.9,941.3l7.5-14.3v134.6h-7.5V941.3z"/>
		</g>
		<g id="XMLID_70_">
			<path id="XMLID_202_" class="st0" d="M1928.2,985.6v-96.9h7.5v96.9c0,15-3.9,29-11.8,41.8c-7.9,12.8-18.5,23-32,30.5
				c-13.5,7.5-28.1,11.2-43.9,11.2c-15.8,0-30.4-3.7-43.9-11.2c-13.5-7.5-24.1-17.6-32-30.5c-7.9-12.8-11.8-26.8-11.8-41.8v-96.9
				h7.5v96.9c0,10.2,2.1,20.1,6.4,29.4c4.2,9.4,10,17.5,17.1,24.3c7.2,6.8,15.7,12.2,25.6,16.2c9.9,4,20.3,6.1,31.1,6.1
				c10.8,0,21.1-2,31.1-6.1c9.9-4,18.5-9.5,25.6-16.2c7.2-6.8,12.9-14.9,17.1-24.3C1926.1,1005.6,1928.2,995.8,1928.2,985.6z
				 M1913.2,985.6v-96.9h7.5v96.9c0,9.3-1.9,18.1-5.8,26.6c-3.9,8.5-9,15.8-15.5,21.9c-6.5,6.1-14.2,11-23.2,14.6
				c-9,3.6-18.4,5.4-28.2,5.4c-9.8,0-19.2-1.8-28.2-5.4c-9-3.6-16.7-8.5-23.2-14.6c-6.5-6.1-11.6-13.4-15.5-21.9
				c-3.9-8.5-5.8-17.3-5.8-26.6v-96.9h7.5v96.9c0,11,2.9,21.2,8.8,30.5c5.8,9.4,13.8,16.8,23.8,22.2c10,5.5,20.9,8.2,32.6,8.2
				c11.8,0,22.6-2.7,32.6-8.2c10-5.5,17.9-12.9,23.8-22.2C1910.2,1006.7,1913.2,996.6,1913.2,985.6z M1898.1,985.6v-96.9h7.5v96.9
				c0,7.2-1.5,14.1-4.6,20.7c-3.1,6.6-7.2,12.3-12.3,17.1c-5.2,4.8-11.3,8.6-18.4,11.4c-7.1,2.8-14.6,4.2-22.3,4.2
				c-7.8,0-15.2-1.4-22.3-4.2s-13.2-6.6-18.4-11.4c-5.2-4.8-9.3-10.5-12.3-17.1c-3.1-6.6-4.6-13.5-4.6-20.7v-96.9h7.5v96.9
				c0,8.3,2.2,16,6.7,23c4.5,7.1,10.6,12.7,18.3,16.8c7.7,4.1,16.1,6.2,25.1,6.2c9,0,17.4-2.1,25.1-6.2c7.7-4.1,13.8-9.7,18.3-16.8
				C1895.9,1001.5,1898.1,993.8,1898.1,985.6z M1883.1,985.6v-96.9h7.5v96.9c0,10.6-4.2,19.6-12.5,27.2
				c-8.4,7.5-18.4,11.3-30.1,11.3c-11.7,0-21.7-3.8-30.1-11.3c-8.4-7.5-12.5-16.6-12.5-27.2v-96.9h7.5v96.9
				c0,8.5,3.4,15.8,10.3,21.8c6.9,6.1,15.1,9.1,24.8,9.1c9.7,0,17.9-3,24.8-9.1C1879.7,1001.3,1883.1,994,1883.1,985.6z"/>
		</g>
		<g id="XMLID_65_">
			<path id="XMLID_196_" class="st0" d="M2024.8,956.3h-12.6c-5.4,0-9.2-1.4-11.6-4.1c-2.4-2.7-3.6-6.4-3.6-10.9
				c0-10,7.5-15,22.5-15c14.1,0,24.6,2.1,31.7,6.3l-6.1,4.6c-4.9-2.2-13.4-3.3-25.7-3.3c-6,0-10,0.7-12.1,2
				c-2.1,1.3-3.1,3.2-3.1,5.5c0,2.4,0.6,4.2,1.7,5.5c1.1,1.3,3.2,2,6.2,2h12.9c9.4,0,17.9,1.6,25.4,4.8c7.6,3.2,13.8,7.6,18.6,13.1
				c4.9,5.5,8.6,11.9,11.2,19.1s3.9,14.9,3.9,23.1c0,6.7-0.9,13-2.8,19c-1.9,6-4.7,11.5-8.5,16.5c-3.8,5-8.4,9.3-13.7,13
				c-5.3,3.7-11.7,6.5-19,8.6c-7.3,2.1-15.3,3.1-23.9,3.1c-13.4,0-26-2-37.8-6.1c-11.7-4.1-21.5-9.8-29.3-17.1l6.1-4.5
				c7.1,6.4,16,11.4,26.7,14.9c10.7,3.5,22.1,5.3,34.3,5.3c9.5,0,18.2-1.4,25.8-4.1c7.7-2.7,14-6.5,19-11.3
				c5-4.8,8.8-10.4,11.5-16.7c2.7-6.3,4-13.2,4-20.5c0-9.7-1.9-18.4-5.8-26.3c-3.9-7.8-9.8-14.2-17.8-19.1
				C2045.1,958.7,2035.7,956.3,2024.8,956.3z M2012.2,993.9h11.5c5.4,0,9.2,1.4,11.6,4.2c2.4,2.8,3.6,6.4,3.6,10.9
				c0,10-7.5,15-22.5,15c-14.1,0-24.8-2.1-31.9-6.3l6.1-4.6c4.9,2.2,13.5,3.3,25.8,3.3c6,0,10-0.7,12.1-2c2.1-1.3,3.1-3.2,3.1-5.5
				c0-2.3-0.6-4.1-1.7-5.5s-3.3-2-6.3-2h-11.3c-9.6,0-18.3-1.6-26.1-4.7c-7.8-3.1-14.1-7.4-19.1-12.9c-5-5.5-8.8-11.9-11.4-19.1
				c-2.6-7.2-4-15-4-23.4c0-6.7,0.9-13,2.8-19c1.9-6,4.7-11.5,8.5-16.5c3.8-5,8.4-9.3,13.7-13c5.3-3.7,11.7-6.5,19-8.6
				c7.3-2.1,15.3-3.1,23.9-3.1c13.4,0,26,2,37.7,6.1c11.7,4.1,21.4,9.8,29.2,17.1l-6.1,4.5c-7.1-6.4-16-11.4-26.6-14.9
				c-10.7-3.5-22.1-5.3-34.3-5.3c-9.5,0-18.2,1.4-25.8,4.1c-7.7,2.8-14,6.5-19,11.3c-5,4.8-8.8,10.4-11.5,16.7
				c-2.7,6.3-4,13.2-4,20.5c0,9.8,2,18.7,6,26.5c4,7.9,10,14.2,18.2,19C1991.4,991.5,2001,993.9,2012.2,993.9z M2012.2,963.8h11.9
				c14.1,0,25.2,4.3,33.2,12.9c8,8.6,12,19.4,12,32.2c0,13-4.6,23.8-13.9,32.3c-9.3,8.5-22.2,12.8-39,12.8
				c-11.1,0-21.5-1.5-31.2-4.6c-9.7-3.1-17.7-7.4-24.1-12.9l5.8-4.7c5.7,4.7,12.9,8.3,21.6,10.9c8.7,2.6,18,3.9,27.9,3.9
				c14.7,0,25.9-3.5,33.7-10.5c7.8-7,11.6-16,11.6-27c0-10.9-3.3-19.8-9.8-26.9c-6.5-7.1-15.8-10.7-27.9-10.7h-11.8
				c-10.2,0-17.8-2.8-22.9-8.4c-5.1-5.6-7.6-12.8-7.6-21.7c0-8.9,3.1-16.2,9.5-21.7c6.3-5.6,15.8-8.4,28.4-8.4
				c8.8,0,17.1,1,24.6,3.1c7.6,2.1,13.9,5,18.8,8.8l-6,4.6c-8.7-6-21.2-9-37.5-9c-10.5,0-18.2,2.1-23,6.2c-4.8,4.1-7.3,9.6-7.3,16.3
				c0,6.8,1.8,12.3,5.4,16.4C1998.2,961.8,2004,963.8,2012.2,963.8z M2012.2,978.9h11.5c10.2,0,17.8,2.8,22.9,8.5
				c5.1,5.6,7.6,12.8,7.6,21.6c0,8.9-3.2,16.2-9.5,21.7c-6.3,5.6-15.8,8.4-28.4,8.4c-8.8,0-17.1-1-24.7-3.1
				c-7.6-2.1-13.9-5-18.8-8.8l6-4.6c8.7,6,21.2,9,37.6,9c10.5,0,18.2-2.1,23-6.2c4.8-4.1,7.3-9.6,7.3-16.3c0-6.8-1.8-12.2-5.4-16.3
				c-3.6-4.1-9.5-6.2-17.6-6.2h-11.4c-14.3,0-25.4-4.3-33.5-12.8c-8-8.5-12.1-19.3-12.1-32.3c0-13,4.6-23.8,13.9-32.3
				c9.3-8.5,22.2-12.8,39-12.8c11.1,0,21.5,1.5,31.2,4.6c9.6,3.1,17.7,7.4,24.1,12.9l-5.8,4.7c-5.7-4.7-12.9-8.3-21.5-10.9
				c-8.6-2.6-17.9-3.9-27.9-3.9c-14.7,0-25.9,3.5-33.7,10.5c-7.8,7-11.6,16-11.6,27c0,10.9,3.3,19.9,9.8,27
				C1990.5,975.3,1999.9,978.9,2012.2,978.9z"/>
		</g>
	</g>
</g>
<g id="XMLID_120_">
	<path id="XMLID_18_" class="st1" d="M1138.8-103c0,2-1,3-3,3h-10.2c-1.9,0-2.9-1-2.9-3v-26.8c0-2,1-3,2.9-3h10.2c2,0,3,1,3,3v7.7
		h-4.9v-6.5h-6.3v24.4h6.3v-6.9h4.9V-103z"/>
	<path id="XMLID_20_" class="st1" d="M1167.8-103c0,2-1,3-3,3h-10.6c-1.9,0-2.9-1-2.9-3v-26.8c0-2,1-3,2.9-3h10.6c2,0,3,1,3,3V-103z
		 M1162.9-104.2v-24.4h-6.7v24.4H1162.9z"/>
	<path id="XMLID_23_" class="st1" d="M1193.2-100h-12.9v-32.8h4.9v28.4h8V-100z"/>
	<path id="XMLID_25_" class="st1" d="M1218.2-100h-13.6v-32.8h13.5v4.3h-8.6v9.6h7.4v4.3h-7.4v10.3h8.7V-100z"/>
	<path id="XMLID_27_" class="st1" d="M1246.3-103c0,2-1,3-3,3h-10.2c-1.9,0-2.9-1-2.9-3v-26.8c0-2,1-3,2.9-3h10.2c2,0,3,1,3,3v7.7
		h-4.9v-6.5h-6.3v24.4h6.3v-6.9h4.9V-103z"/>
	<path id="XMLID_29_" class="st1" d="M1274.8-103c0,2-1,3-3,3h-10.2c-1.9,0-2.9-1-2.9-3v-26.8c0-2,1-3,2.9-3h10.2c2,0,3,1,3,3v7.7
		h-4.9v-6.5h-6.3v24.4h6.3v-6.9h4.9V-103z"/>
	<path id="XMLID_31_" class="st1" d="M1292.3-100h-4.9v-32.8h4.9V-100z"/>
	<path id="XMLID_33_" class="st1" d="M1321.4-103c0,2-1,3-3,3h-10.6c-1.9,0-2.9-1-2.9-3v-26.8c0-2,1-3,2.9-3h10.6c2,0,3,1,3,3V-103z
		 M1316.5-104.2v-24.4h-6.7v24.4H1316.5z"/>
	<path id="XMLID_36_" class="st1" d="M1350.5-100h-4.3l-7.9-20.6c0.2,1,0.3,1.8,0.3,2.4v18.3h-4.8v-32.8h4.3l7.9,20.2
		c-0.2-1-0.3-1.8-0.3-2.4v-17.8h4.8V-100z"/>
	<path id="XMLID_38_" class="st1" d="M1379.6-100h-4.9l-1-6.2h-6.1l-1,6.2h-4.8v-0.1l6.3-32.7h5.2L1379.6-100z M1373.1-110.4
		l-2.4-14.8l-2.4,14.8H1373.1z"/>
	<path id="XMLID_41_" class="st1" d="M1418-110.4h-10v-4.4h10V-110.4z"/>
	<path id="XMLID_43_" class="st1" d="M1463.7-103c0,2-1,3-3,3h-10.2c-1.9,0-2.9-1-2.9-3v-26.8c0-2,1-3,2.9-3h10.2c2,0,3,1,3,3v7.7
		h-4.9v-6.5h-6.3v24.4h6.3v-6.9h4.9V-103z"/>
	<path id="XMLID_45_" class="st1" d="M1492.6-103c0,2-1,3-3,3H1479c-1.9,0-2.9-1-2.9-3v-26.8c0-2,1-3,2.9-3h10.6c2,0,3,1,3,3V-103z
		 M1487.7-104.2v-24.4h-6.7v24.4H1487.7z"/>
	<path id="XMLID_48_" class="st1" d="M1521.8-100h-4.3l-7.9-20.6c0.2,1,0.3,1.8,0.3,2.4v18.3h-4.8v-32.8h4.3l7.9,20.2
		c-0.2-1-0.3-1.8-0.3-2.4v-17.8h4.8V-100z"/>
	<path id="XMLID_50_" class="st1" d="M1550.8-103c0,2-1,3-3,3h-10.6c-1.9,0-2.9-1-2.9-3v-26.8c0-2,1-3,2.9-3h10.6c2,0,3,1,3,3V-103z
		 M1545.9-104.2v-24.4h-6.7v24.4H1545.9z"/>
	<path id="XMLID_53_" class="st1" d="M1579.4-103c0,2-1,3-3,3h-10.2c-1.9,0-2.9-1-2.9-3v-26.8c0-2,1-3,2.9-3h10.2c2,0,3,1,3,3v7.7
		h-4.9v-6.5h-6.3v24.4h6.3v-6.9h4.9V-103z"/>
	<path id="XMLID_55_" class="st1" d="M1605.5-100h-13.6v-32.8h13.5v4.3h-8.6v9.6h7.4v4.3h-7.4v10.3h8.7V-100z"/>
	<path id="XMLID_57_" class="st1" d="M1644.4-110.4h-10v-4.4h10V-110.4z"/>
	<path id="XMLID_60_" class="st1" d="M1690.3-132.8L1684-100h-4.9l-6.3-32.8h4.9l3.7,22.5c0,0.6,0.1,1.6,0.1,2.8
		c0-0.6,0-1.6,0.1-2.8l3.7-22.5H1690.3z"/>
	<path id="XMLID_62_" class="st1" d="M1715.3-100h-13.6v-32.8h13.5v4.3h-8.6v9.6h7.4v4.3h-7.4v10.3h8.7V-100z"/>
	<path id="XMLID_105_" class="st1" d="M1743.8-100h-4.3l-7.9-20.6c0.2,1,0.3,1.8,0.3,2.4v18.3h-4.8v-32.8h4.3l7.9,20.2
		c-0.2-1-0.3-1.8-0.3-2.4v-17.8h4.8V-100z"/>
	<path id="XMLID_107_" class="st1" d="M1772.6-106.2c0,1.9-0.6,3.4-1.7,4.5c-1.1,1.1-2.7,1.6-4.6,1.6h-10v-32.8h10
		c1.9,0,3.5,0.6,4.6,1.7c1.1,1.1,1.7,2.6,1.7,4.6V-106.2z M1767.7-107v-18.8c0-1.8-1-2.7-2.9-2.7h-3.6v24.4h3.5
		C1766.7-104.2,1767.7-105.1,1767.7-107z"/>
	<path id="XMLID_110_" class="st1" d="M1798.6-100H1785v-32.8h13.5v4.3h-8.6v9.6h7.4v4.3h-7.4v10.3h8.7V-100z"/>
</g>
<g id="XMLID_136_">
	<g id="XMLID_128_">
		<path id="XMLID_129_" class="st0" d="M282.8,1319.3h-91.5v-158.6h91.5c14,0,27,3.5,39.1,10.6c12.1,7.1,21.7,16.7,28.9,28.9
			c7.2,12.2,10.7,25.4,10.7,39.6c0,10.8-2.1,21.1-6.3,31c-4.2,9.8-9.9,18.3-17,25.4c-7.1,7.1-15.5,12.7-25.2,16.9
			S293.2,1319.3,282.8,1319.3z M199.2,1311.4h83.6c12.6,0,24.2-3.2,35-9.5c10.8-6.4,19.4-15,25.8-26.1c6.4-11,9.6-23,9.6-36
			c0-12.8-3.2-24.7-9.6-35.6c-6.4-11-15.1-19.6-25.9-26c-10.8-6.4-22.5-9.5-35-9.5h-83.6V1311.4z M207.1,1303.5v-126.9h75.7
			c11.1,0,21.4,2.8,31,8.5c9.6,5.7,17.2,13.3,22.9,23.1c5.7,9.7,8.5,20.3,8.5,31.7c0,11.5-2.8,22.2-8.5,32
			c-5.7,9.8-13.3,17.5-22.9,23.2c-9.6,5.7-19.9,8.5-31,8.5H207.1z M215,1295.5h67.7c9.7,0,18.7-2.5,27-7.4
			c8.3-4.9,14.9-11.7,19.8-20.3c4.9-8.6,7.4-18,7.4-28.1c0-9.9-2.5-19.1-7.4-27.7c-4.9-8.5-11.5-15.3-19.9-20.2
			c-8.3-5-17.3-7.4-26.9-7.4H215V1295.5z M223,1287.6v-95.2h59.8c12.6,0,23.4,4.6,32.4,13.9c9.1,9.3,13.6,20.4,13.6,33.4
			c0,13.3-4.5,24.6-13.5,33.9c-9,9.3-19.9,13.9-32.5,13.9H223z M230.9,1279.7h51.9c10.4,0,19.4-3.9,26.8-11.6
			c7.4-7.7,11.1-17.2,11.1-28.3c0-10.9-3.7-20.2-11.2-27.9c-7.5-7.7-16.4-11.6-26.7-11.6h-51.9V1279.7z M238.8,1271.7v-63.5h44
			c8.2,0,15.1,3.1,21,9.3c5.8,6.2,8.8,13.6,8.8,22.3c0,9-2.9,16.5-8.7,22.7c-5.8,6.2-12.8,9.3-21,9.3H238.8z M246.8,1263.8h36
			c5.9,0,11-2.3,15.3-6.9c4.2-4.6,6.3-10.3,6.3-17.1c0-6.5-2.1-12-6.3-16.6c-4.2-4.6-9.3-6.9-15.3-6.9h-36V1263.8z"/>
	</g>
</g>
<g id="XMLID_125_">
	<path id="XMLID_299_" class="st0" d="M155.3,612.4l-38.3,32.8l-15-17.5c-3-3.5-5-7-6.1-10.5c-1-3.5-1.1-6.9-0.1-10.1
		c0.9-3.2,2.9-6.1,5.8-8.6c2.9-2.5,6-3.9,9.2-4.3c3.3-0.4,6.6,0.2,9.8,1.8c3.3,1.6,6.4,4.1,9.4,7.6l9.8,11.5l-8.7-0.9l14.7-12.6
		L155.3,612.4z M132.5,613.2l-0.9,9.1l-9.3-10.8c-1.9-2.3-3.9-3.5-5.8-3.8c-1.9-0.3-3.8,0.3-5.5,1.8c-1.8,1.5-2.7,3.3-2.7,5.2
		c0,2,0.9,4.1,2.9,6.3l9.3,10.8l-9.1-0.6L132.5,613.2z M135.1,588.7l-5.8,21.5l-9.9-11.5l5.8-21.5L135.1,588.7z"/>
	<path id="XMLID_303_" class="st0" d="M105.8,566.6L92,544.1l9.4-5.8l21.1,34.5l-43,26.3l-20.6-33.7l9.4-5.8l13.3,21.7L105.8,566.6z
		 M89.4,577.8l-12.2-20l9.1-5.6l12.2,20L89.4,577.8z"/>
	<path id="XMLID_306_" class="st0" d="M98.5,533.1l-46.8,18.7l-8.9-22.1c-2.1-5.2-2.9-10.1-2.6-14.8c0.3-4.7,1.8-8.8,4.4-12.4
		c2.6-3.6,6.3-6.4,11.1-8.3c4.8-1.9,9.3-2.5,13.7-1.7c4.4,0.8,8.3,2.8,11.8,5.9c3.5,3.2,6.3,7.3,8.3,12.5L98.5,533.1z M82.6,524.1
		l-3.3-8.4c-1.1-2.7-2.5-4.8-4.3-6.4c-1.8-1.6-3.9-2.5-6.3-2.9c-2.4-0.3-4.9,0-7.6,1.1c-2.7,1.1-4.8,2.6-6.3,4.5
		c-1.5,1.9-2.3,4-2.5,6.4c-0.2,2.4,0.2,4.9,1.3,7.6l3.3,8.4L82.6,524.1z"/>
	<path id="XMLID_309_" class="st0" d="M71.9,442.1c0.6,4.1,0.7,8.1,0.2,12c-0.5,3.9-1.3,7.2-2.6,9.8l-11.1-3.1
		c1.1-2.4,1.9-5.2,2.4-8.3c0.5-3.1,0.5-6,0.1-8.9c-0.3-1.9-0.7-3.5-1.2-4.6c-0.5-1.1-1.1-1.9-1.8-2.4c-0.7-0.5-1.4-0.6-2.2-0.5
		c-1.1,0.2-2,0.8-2.5,2c-0.5,1.1-0.9,2.6-1,4.3c-0.2,1.7-0.3,3.6-0.5,5.7c-0.1,2.1-0.4,4.2-0.7,6.3c-0.4,2.1-1,4.1-1.8,5.9
		c-0.8,1.8-2,3.4-3.6,4.7c-1.6,1.3-3.7,2.2-6.4,2.5c-3,0.4-5.8,0-8.5-1.2s-5-3.4-6.9-6.5c-2-3.1-3.3-7-4-11.9
		c-0.5-3.3-0.6-6.5-0.3-9.8c0.3-3.3,0.9-6.2,2-8.9l11.1,2.8c-0.9,2.6-1.5,5.1-1.8,7.5c-0.3,2.4-0.3,4.7,0,6.9
		c0.3,1.9,0.7,3.5,1.3,4.6c0.6,1.1,1.2,1.9,2,2.3c0.7,0.4,1.5,0.6,2.4,0.4c1.1-0.2,1.9-0.8,2.4-1.9c0.5-1.1,0.8-2.5,1-4.3
		c0.2-1.7,0.3-3.7,0.4-5.7c0.1-2.1,0.4-4.2,0.7-6.3c0.3-2.1,0.9-4.1,1.7-5.9c0.8-1.8,2-3.4,3.6-4.6c1.6-1.3,3.7-2.1,6.3-2.5
		c2.9-0.4,5.7,0,8.4,1.3c2.7,1.3,5,3.4,7,6.5C69.8,433.2,71.1,437.1,71.9,442.1z"/>
	<path id="XMLID_311_" class="st0" d="M68.5,390.2c-0.1,4-0.8,7.7-2.1,11.1c-1.4,3.4-3.2,6.3-5.7,8.8c-2.4,2.5-5.2,4.4-8.4,5.7
		c-3.2,1.3-6.7,2-10.5,1.9c-3.8-0.1-7.3-0.8-10.4-2.3c-3.1-1.4-5.9-3.5-8.2-6c-2.3-2.6-4.1-5.6-5.3-9c-1.2-3.4-1.8-7.2-1.7-11.2
		c0.1-4.1,0.8-7.8,2.1-11.2c1.4-3.4,3.2-6.3,5.7-8.7c2.4-2.5,5.2-4.4,8.4-5.7c3.2-1.4,6.7-2,10.5-1.9c3.8,0.1,7.3,0.8,10.4,2.3
		c3.2,1.5,5.9,3.5,8.2,6c2.3,2.5,4.1,5.5,5.3,8.9C68,382.4,68.5,386.1,68.5,390.2z M56.7,390c0-1.9-0.3-3.7-0.9-5.4
		c-0.6-1.7-1.6-3.1-2.8-4.4c-1.2-1.2-2.8-2.2-4.5-3c-1.8-0.7-3.7-1.1-5.9-1.2c-2.2,0-4.2,0.3-6,0.9c-1.8,0.7-3.3,1.6-4.6,2.8
		c-1.3,1.2-2.3,2.6-3,4.3c-0.7,1.6-1.1,3.4-1.1,5.3c0,1.9,0.3,3.7,0.9,5.4c0.6,1.7,1.6,3.1,2.8,4.4c1.3,1.2,2.7,2.2,4.5,3
		c1.7,0.7,3.7,1.1,5.9,1.2c2.2,0,4.1-0.3,5.9-0.9c1.8-0.7,3.3-1.6,4.6-2.8c1.3-1.2,2.3-2.6,3-4.3C56.3,393.7,56.6,391.9,56.7,390z"
		/>
	<path id="XMLID_314_" class="st0" d="M75,332.3c-0.8,3.9-2.1,7.4-4,10.5c-1.9,3.1-4.3,5.6-7,7.6c-2.8,2-5.9,3.3-9.3,4.1
		c-3.4,0.7-7,0.7-10.8,0c-3.8-0.7-7.1-2.1-9.9-4.1c-2.9-2-5.2-4.4-7-7.3c-1.8-2.9-3-6.1-3.6-9.7c-0.6-3.6-0.5-7.3,0.3-11.2
		c0.9-4.6,2.5-8.5,4.8-11.8c2.3-3.3,5.2-5.8,8.7-7.6l6.3,10.5c-2.2,1.2-4,2.7-5.4,4.4c-1.4,1.7-2.3,3.7-2.8,6.1
		c-0.4,2-0.4,4-0.1,5.8c0.3,1.8,1,3.5,2,4.9c1,1.4,2.3,2.7,3.9,3.7c1.6,1,3.5,1.8,5.6,2.2c2.1,0.4,4.1,0.5,6,0.1
		c1.9-0.3,3.6-1,5-1.9c1.5-1,2.7-2.2,3.7-3.8c1-1.6,1.7-3.4,2.1-5.4c0.5-2.4,0.4-4.6-0.2-6.7c-0.6-2.1-1.7-4.1-3.3-6.1l9.8-7.3
		c2.5,3,4.2,6.4,5.1,10.4C75.9,323.5,75.9,327.8,75,332.3z"/>
	<path id="XMLID_316_" class="st0" d="M80.5,306.4l-47.9-15.7l4.5-13.5L85,292.9L80.5,306.4z"/>
	<path id="XMLID_318_" class="st0" d="M84.6,290l-35.9-41.8l6-12.7l55.1,1.6l-6.4,13.4l-46.7-3l2.4-5.1l31.7,34.4L84.6,290z
		 M81,274.8l-7.9-7.8l10.6-22.2l11.1,1.2L81,274.8z"/>
	<path id="XMLID_321_" class="st0" d="M111.8,235.6l-41.5-28.6l8.1-11.7l32.2,22.1l13.6-19.8l9.3,6.4L111.8,235.6z"/>
	<path id="XMLID_323_" class="st0" d="M138.6,136.7l-3,10.2l-1.5-1.5l10.2-3l1.9,7.8l-9.8,2.4l0.3-1.2l6.9,6.6l-5.8,5.8l-6.6-6.9
		l1.2-0.3l-2.5,9.8l-7.8-2l3.1-10.2l1.5,1.5l-10.2,3l-2-7.8l9.8-2.4l-0.3,1.2l-7-6.7l5.8-5.8l6.7,7l-1.2,0.3l2.4-9.8L138.6,136.7z"
		/>
	<path id="XMLID_325_" class="st0" d="M186.7,150.7l-26.8-42.7l9.9-6.3l35.9,17.9l-5.2,3.3l-1.1-39.8l9.9-6.3l27,42.6l-11.1,7
		l-16.3-25.7l1.9-1.2l0.7,29.7l-5.4,3.4l-26.8-13.2l2.3-1.5l16.2,25.8L186.7,150.7z"/>
	<path id="XMLID_327_" class="st0" d="M238,118.7l2.8-55l13.1-5l38.9,39.1l-13.9,5.3l-31.8-34.3l5.2-2l-0.8,46.8L238,118.7z
		 M245.9,105.2l-0.3-11.1l23-8.8l7.2,8.5L245.9,105.2z"/>
	<path id="XMLID_330_" class="st0" d="M294.9,97.8l-9.6-49.5l22.6-4.4c4.5-0.9,8.6-0.9,12.1-0.1c3.6,0.8,6.5,2.4,8.8,4.8
		c2.3,2.4,3.9,5.5,4.6,9.3c0.7,3.7,0.5,7.1-0.8,10.2c-1.3,3.1-3.4,5.6-6.4,7.7c-3,2.1-6.8,3.6-11.3,4.4l-14.8,2.9l5.1-7.1l3.7,19
		L294.9,97.8z M305.4,77.6l-7.5-5.2l14-2.7c2.9-0.6,5-1.6,6.2-3.2c1.2-1.6,1.6-3.5,1.1-5.7c-0.4-2.3-1.5-4-3.2-5
		c-1.7-1-4-1.2-6.9-0.6l-14,2.7l5-7.6L305.4,77.6z M325.5,91.9l-15.8-15.6l14.9-2.9l15.9,15.6L325.5,91.9z"/>
	<path id="XMLID_334_" class="st0" d="M345.4,88.6l-1.3-50.4l14.1-0.4l1.3,50.4L345.4,88.6z M357.8,77.2l-1.2-16l21.1-23.8l15.7-0.4
		l-21,23.9l-7.7,8.5L357.8,77.2z M379.2,87.8l-16.9-20.4l9-10.2l24.5,30.1L379.2,87.8z"/>
	<path id="XMLID_338_" class="st0" d="M413.1,79.1l26.1,3.5l-1.5,10.9l-40.1-5.4l6.7-50l39.2,5.2L442,54.4L416.8,51L413.1,79.1z
		 M414.7,59.3l23.2,3.1L436.5,73l-23.2-3.1L414.7,59.3z"/>
	<path id="XMLID_341_" class="st0" d="M454,98l10.8-37.6L450,56.2l3.1-10.9l43.4,12.5l-3.1,10.9l-14.8-4.3L467.7,102L454,98z"/>
	<path id="XMLID_343_" class="st0" d="M485.8,107.6l21.3-45.7l20.9,9.7c4.2,1.9,7.5,4.3,9.9,7.1c2.4,2.8,3.8,5.8,4.3,9.1
		c0.5,3.3-0.1,6.7-1.7,10.2c-1.6,3.4-3.8,6-6.6,7.8c-2.8,1.8-6.1,2.6-9.7,2.6c-3.7,0-7.6-1-11.8-3L498.5,99l8.4-2.9l-8.2,17.6
		L485.8,107.6z M506.3,97.4l-3-8.6l12.9,6c2.7,1.3,5,1.6,6.9,1.1c1.9-0.6,3.3-1.9,4.3-4c1-2.1,1.1-4.1,0.3-5.9
		c-0.8-1.8-2.5-3.3-5.2-4.6l-12.9-6l8.5-3.3L506.3,97.4z"/>
	<path id="XMLID_346_" class="st0" d="M531.2,129.8l27.9-42l11.9,7.9l-21.6,32.6l20,13.3l-6.2,9.4L531.2,129.8z"/>
	<path id="XMLID_348_" class="st0" d="M562.1,149.4l50.5-22l10.3,9.5L605.3,189l-10.9-10l16.6-43.8l4.1,3.8l-42.2,20.2L562.1,149.4z
		 M577.7,150.4l9.8-5.3l18.1,16.7l-4.4,10.2L577.7,150.4z"/>
	<path id="XMLID_351_" class="st0" d="M620.3,211c-2.4-3.2-4.2-6.5-5.3-9.9s-1.4-6.9-1.1-10.3c0.3-3.4,1.4-6.6,3-9.7
		c1.7-3.1,4-5.8,7.1-8.1c3-2.4,6.2-4,9.6-4.8c3.4-0.9,6.8-1,10.1-0.5c3.4,0.5,6.6,1.7,9.7,3.6c3.1,1.9,5.8,4.4,8.3,7.6
		c2.9,3.7,4.8,7.5,5.7,11.4c1,3.9,1,7.8,0,11.6l-12-2.1c0.5-2.5,0.6-4.8,0.2-6.9c-0.4-2.2-1.3-4.2-2.8-6.1c-1.3-1.6-2.7-2.9-4.3-3.9
		c-1.6-1-3.3-1.5-5-1.7c-1.8-0.2-3.5,0-5.4,0.5c-1.8,0.5-3.6,1.5-5.3,2.8c-1.7,1.3-3.1,2.8-4,4.4c-1,1.6-1.6,3.3-1.9,5.1
		c-0.3,1.7-0.1,3.5,0.4,5.3c0.5,1.8,1.4,3.5,2.7,5.1c1.5,1.9,3.2,3.3,5.2,4.2s4.2,1.4,6.8,1.6l-0.9,12.2c-3.9-0.1-7.6-1.1-11.2-3
		C626.4,217.4,623.2,214.7,620.3,211z"/>
	<path id="XMLID_353_" class="st0" d="M652.9,238.6l12.6,23.1l-9.7,5.3l-19.4-35.5l44.2-24.2l19,34.7l-9.7,5.3L677.8,225
		L652.9,238.6z M669.8,228.2l11.2,20.5l-9.3,5.1l-11.2-20.5L669.8,228.2z"/>
	<path id="XMLID_356_" class="st0" d="M714.3,304.5l-7.7-7.4l2.1-0.7l-2,10.4l-7.9-1.9l2.3-9.8l0.9,0.8l-9.1,3.1l-2.5-7.8l9.2-2.7
		l-0.3,1.2l-7.6-6.7l5.3-6l7.6,7.4l-2.1,0.7l2-10.5l7.8,1.8l-2.4,9.8l-0.9-0.8l9.1-3.1l2.5,7.8l-9.3,2.7l0.3-1.2l7.6,6.6
		L714.3,304.5z"/>
	<path id="XMLID_358_" class="st0" d="M679.2,341.1l50.1-5.4l2.5,22.9c0.5,4.6,0.2,8.6-0.9,12.1c-1.1,3.5-3,6.3-5.6,8.4
		c-2.6,2.1-5.8,3.4-9.6,3.8c-3.8,0.4-7.1-0.1-10.1-1.7c-3-1.5-5.4-3.8-7.2-7c-1.9-3.2-3-7-3.5-11.6l-1.6-15l6.8,5.6l-19.3,2.1
		L679.2,341.1z M698.4,353.4l5.8-7l1.5,14.2c0.3,3,1.2,5.1,2.6,6.4c1.4,1.3,3.3,1.9,5.6,1.6c2.3-0.3,4.1-1.2,5.2-2.8
		c1.1-1.6,1.5-3.9,1.2-6.8l-1.5-14.2l7.2,5.6L698.4,353.4z"/>
	<path id="XMLID_361_" class="st0" d="M681.5,417.2c0.3-4,1.2-7.7,2.7-11c1.5-3.3,3.6-6.1,6.1-8.5c2.5-2.4,5.4-4.1,8.7-5.3
		c3.3-1.2,6.8-1.6,10.6-1.4c3.8,0.3,7.2,1.2,10.3,2.8c3.1,1.6,5.7,3.7,7.9,6.4s3.8,5.8,4.9,9.2c1.1,3.5,1.5,7.2,1.2,11.3
		c-0.3,4.1-1.2,7.7-2.7,11s-3.6,6.1-6.1,8.4c-2.5,2.3-5.4,4.1-8.7,5.3c-3.3,1.2-6.8,1.7-10.6,1.4c-3.8-0.3-7.2-1.2-10.3-2.8
		c-3.1-1.6-5.7-3.8-7.9-6.4c-2.2-2.7-3.8-5.7-4.9-9.2C681.6,425,681.2,421.2,681.5,417.2z M693.3,418c-0.1,1.9,0.1,3.7,0.6,5.4
		c0.6,1.7,1.4,3.2,2.6,4.5c1.2,1.3,2.6,2.4,4.4,3.2c1.7,0.8,3.7,1.3,5.8,1.4c2.2,0.2,4.2-0.1,6-0.6c1.8-0.6,3.4-1.4,4.7-2.6
		c1.4-1.1,2.4-2.5,3.2-4.1c0.8-1.6,1.2-3.4,1.4-5.3c0.1-1.9-0.1-3.7-0.6-5.4c-0.6-1.7-1.4-3.2-2.6-4.5c-1.2-1.3-2.6-2.4-4.3-3.2
		c-1.7-0.8-3.7-1.3-5.9-1.4c-2.2-0.1-4.1,0.1-6,0.6c-1.8,0.6-3.4,1.4-4.8,2.6c-1.4,1.1-2.4,2.5-3.2,4.1
		C693.9,414.3,693.4,416.1,693.3,418z"/>
	<path id="XMLID_364_" class="st0" d="M670.9,483.3l24.2-10.8l7.3,11.4l-35.6,15.4L670.9,483.3z M679.2,450.5l48.9,12.4l-3.5,13.7
		l-48.9-12.4L679.2,450.5z M686.9,465.6l15.7,3.2l17.2,26.7l-3.9,15.2L698.6,484l-6.1-9.7L686.9,465.6z"/>
	<path id="XMLID_368_" class="st0" d="M670,518.2l-10.5,24.2l-10.1-4.4l16.1-37.1l46.2,20.1L696,557.2l-10.1-4.4l10.1-23.3
		L670,518.2z M688.7,525.2l-9.3,21.5l-9.8-4.2l9.3-21.5L688.7,525.2z"/>
	<path id="XMLID_371_" class="st0" d="M646.9,543.3l42.2,27.6l-13,20c-3,4.7-6.6,8.2-10.6,10.6c-4,2.4-8.3,3.6-12.7,3.5
		c-4.4-0.1-8.8-1.5-13.2-4.3c-4.3-2.8-7.4-6.2-9.2-10.3c-1.9-4-2.5-8.4-1.9-13.1c0.6-4.7,2.4-9.3,5.4-14L646.9,543.3z M648.6,561.5
		l-4.9,7.5c-1.6,2.4-2.5,4.8-2.8,7.2c-0.3,2.4,0.2,4.6,1.2,6.8c1.1,2.1,2.8,4,5.3,5.6c2.5,1.6,4.9,2.5,7.3,2.6
		c2.4,0.1,4.6-0.4,6.7-1.6c2.1-1.2,3.9-3,5.5-5.4l4.9-7.5L648.6,561.5z"/>
	<path id="XMLID_374_" class="st0" d="M613,608.7L595.1,628l-8.1-7.5l27.5-29.7l37,34.2l-26.8,29l-8.1-7.5l17.3-18.7L613,608.7z
		 M628.3,621.4l-15.9,17.2l-7.8-7.2l15.9-17.2L628.3,621.4z"/>
	<path id="XMLID_377_" class="st0" d="M586.9,621.2l1.7,37.7l-6.2-8l35.2,10.4l-12.6,10l-22.7-6.9l5.3-4.3l1.7,23.6l-12.1,9.5
		l-1.6-36.2l6.2,7.9L545,654.3l12.9-10.2l23.5,7.6l-5.1,4.1l-2.1-24.5L586.9,621.2z"/>
	<path id="XMLID_379_" class="st0" d="M519.8,715.9l6-8.8l1,1.9l-10.6-0.3l0.6-8.1l10.1,0.7l-0.7,1.1l-4.5-8.4l7.3-3.7l4.1,8.6
		l-1.3-0.1l5.4-8.5l6.8,4.3l-6.1,8.7l-1-1.9l10.7,0.3l-0.5,8l-10.1-0.8l0.7-1.1l4.6,8.5l-7.3,3.7l-4.2-8.7l1.3,0.1l-5.3,8.6
		L519.8,715.9z"/>
	<path id="XMLID_381_" class="st0" d="M478.2,687.3l12.9,48.7l-23,6.1c-5.4,1.4-10.4,1.7-15,0.8c-4.6-0.9-8.5-2.9-11.8-5.9
		s-5.5-7-6.9-12c-1.3-5-1.3-9.6,0-13.8c1.3-4.3,3.8-7.9,7.3-11c3.6-3.1,8-5.3,13.4-6.7L478.2,687.3z M467.3,701.9l-8.7,2.3
		c-2.8,0.7-5.1,1.9-6.9,3.5c-1.8,1.6-3,3.5-3.6,5.9c-0.6,2.3-0.6,4.9,0.2,7.7c0.7,2.8,2,5.1,3.7,6.8c1.7,1.7,3.7,2.8,6,3.3
		c2.3,0.5,4.9,0.4,7.7-0.4l8.7-2.3L467.3,701.9z"/>
	<path id="XMLID_384_" class="st0" d="M397.2,702.1c4-0.3,7.8,0.1,11.3,1.2c3.5,1.1,6.6,2.7,9.3,4.9s4.8,4.8,6.4,7.9
		c1.6,3.1,2.5,6.5,2.8,10.3c0.3,3.8-0.2,7.3-1.4,10.6c-1.2,3.3-2.9,6.2-5.3,8.7c-2.3,2.5-5.2,4.6-8.5,6.1c-3.3,1.5-7,2.4-11,2.7
		c-4.1,0.3-7.8-0.1-11.3-1.2c-3.5-1.1-6.5-2.7-9.2-4.9c-2.7-2.2-4.8-4.8-6.4-7.9c-1.6-3.1-2.6-6.5-2.9-10.3
		c-0.3-3.8,0.2-7.3,1.4-10.6c1.2-3.3,2.9-6.2,5.3-8.7c2.3-2.5,5.1-4.5,8.4-6.1C389.4,703.2,393.1,702.3,397.2,702.1z M398,713.8
		c-1.9,0.1-3.7,0.6-5.3,1.4c-1.6,0.8-3,1.9-4.1,3.2c-1.1,1.4-2,2.9-2.6,4.8c-0.6,1.8-0.8,3.8-0.6,6c0.2,2.2,0.6,4.2,1.5,5.9
		c0.8,1.7,1.9,3.1,3.2,4.3c1.3,1.2,2.8,2.1,4.5,2.6c1.7,0.6,3.5,0.8,5.4,0.6c1.9-0.1,3.7-0.6,5.3-1.4c1.6-0.8,3-1.9,4.1-3.2
		c1.1-1.4,2-2.9,2.6-4.7c0.6-1.8,0.8-3.8,0.6-6c-0.2-2.2-0.6-4.1-1.5-5.8c-0.8-1.7-1.9-3.2-3.2-4.4c-1.3-1.2-2.8-2.1-4.5-2.6
		C401.7,713.9,399.9,713.7,398,713.8z"/>
	<path id="XMLID_387_" class="st0" d="M364.1,705l-6.5,50l-11.6-1.5l-16.3-36.7l6.1,0.8l-24.6,31.4l-11.6-1.5l6.4-50l13,1.7
		l-3.8,30.2L313,729l18.4-23.3l6.3,0.8l12.2,27.3l-2.7-0.4l3.9-30.2L364.1,705z"/>
	<path id="XMLID_389_" class="st0" d="M276.8,686.7c7,2.4,11.9,6.2,14.5,11.4c2.6,5.2,2.8,11.4,0.4,18.4l-9,26.5l-13.5-4.6l8.8-26
		c1.4-4.1,1.6-7.3,0.6-9.6c-1-2.3-2.9-4-5.7-4.9c-2.8-1-5.3-0.8-7.5,0.4c-2.2,1.2-4,3.9-5.4,8l-8.8,26l-13.3-4.5l9-26.5
		c2.4-7.1,6.2-11.9,11.5-14.4C263.6,684.3,269.7,684.3,276.8,686.7z"/>
	<path id="XMLID_391_" class="st0" d="M231.9,667.3c3.6,1.9,6.9,4.3,9.8,7c2.9,2.7,5,5.3,6.4,7.9l-9.1,7.1c-1.3-2.3-3.1-4.6-5.2-6.8
		c-2.2-2.2-4.5-4-7.1-5.4c-1.7-0.9-3.2-1.5-4.4-1.8c-1.2-0.2-2.2-0.2-3,0c-0.8,0.3-1.3,0.8-1.7,1.5c-0.5,1-0.5,2.1,0.1,3.2
		c0.6,1.1,1.6,2.2,2.8,3.4c1.3,1.2,2.7,2.4,4.3,3.8c1.6,1.3,3.1,2.8,4.6,4.3c1.5,1.6,2.7,3.2,3.7,4.9c1,1.7,1.5,3.6,1.6,5.7
		c0.1,2-0.5,4.3-1.7,6.6c-1.4,2.7-3.4,4.7-6,6.1c-2.6,1.4-5.7,2-9.4,1.7c-3.6-0.2-7.6-1.5-12-3.8c-2.9-1.6-5.6-3.4-8.1-5.6
		c-2.5-2.2-4.5-4.5-6-6.9l8.8-7.3c1.5,2.3,3.2,4.2,4.9,5.9c1.8,1.7,3.6,3,5.6,4.1c1.7,0.9,3.2,1.5,4.5,1.7c1.3,0.2,2.3,0.1,3-0.2
		c0.8-0.3,1.4-0.9,1.8-1.7c0.5-1,0.5-2-0.1-3c-0.6-1.1-1.6-2.2-2.9-3.3c-1.3-1.2-2.8-2.4-4.4-3.7c-1.6-1.3-3.1-2.8-4.6-4.3
		c-1.5-1.5-2.7-3.2-3.7-4.9c-1-1.7-1.5-3.6-1.6-5.7c-0.1-2,0.5-4.2,1.7-6.5c1.4-2.6,3.4-4.6,6-6c2.6-1.4,5.7-2,9.3-1.8
		C223.5,663.7,227.5,665,231.9,667.3z"/>
	<path id="XMLID_393_" class="st0" d="M143.5,659.5l10.5,1.9l-1.4,1.7l-4.1-9.8l7.6-2.8l3.5,9.5l-1.2-0.2l5.8-7.6l6.4,5.1l-6.2,7.3
		l-0.4-1.2l10,1.4l-1.1,8l-10.5-1.9l1.4-1.7l4.1,9.9l-7.5,2.8l-3.4-9.5l1.2,0.2l-5.9,7.7l-6.4-5.1l6.2-7.4l0.4,1.2l-10-1.3
		L143.5,659.5z"/>
</g>
<path id="XMLID_x5F_420_x5F_" style="fill:none;" d="M69.9-860C69.9-689.9-68-552.1-238-552.1S-545.9-689.9-545.9-860
	s137.9-307.9,307.9-307.9S69.9-1030.1,69.9-860z"/>
<text id="XMLID_297_"><textPath  xlink:href="#XMLID_x5F_420_x5F_" startOffset="1516.5527%">
<tspan  class="st0" style="font-family:'Montserrat-ExtraBold'; font-size:72px;">RED SOCIAL * MARKETPLACE * POKEDEX * DOMUS * </tspan></textPath>
</text>
</svg>
